<svg width="29" height="20" viewBox="0 0 29 20" fill="none" xmlns="http://www.w3.org/2000/svg">
<path d="M26.1905 9.04762H25.2381C24.8592 9.04762 24.4958 9.19813 24.2279 9.46604C23.96 9.73394 23.8095 10.0973 23.8095 10.4762V10.9524H22.8571V8.57143C22.8571 8.19255 22.7066 7.82918 22.4387 7.56127C22.1708 7.29337 21.8074 7.14286 21.4286 7.14286H20C19.8737 7.14286 19.7526 7.09269 19.6633 7.00338C19.574 6.91408 19.5238 6.79296 19.5238 6.66667V5.71428C19.5238 5.3354 19.3733 4.97204 19.1054 4.70413C18.8375 4.43622 18.4741 4.28571 18.0952 4.28571H16.1905V2.85714H18.5714C18.9503 2.85714 19.3137 2.70663 19.5816 2.43872C19.8495 2.17081 20 1.80745 20 1.42857C20 1.04969 19.8495 0.686328 19.5816 0.418419C19.3137 0.15051 18.9503 0 18.5714 0H9.04762C8.66874 0 8.30537 0.15051 8.03746 0.418419C7.76955 0.686328 7.61904 1.04969 7.61904 1.42857C7.61904 1.80745 7.76955 2.17081 8.03746 2.43872C8.30537 2.70663 8.66874 2.85714 9.04762 2.85714H11.4286V4.28571H9.04762C8.66874 4.28571 8.30537 4.43622 8.03746 4.70413C7.76955 4.97204 7.61904 5.3354 7.61904 5.71428C7.61904 5.84058 7.56887 5.9617 7.47957 6.051C7.39027 6.14031 7.26915 6.19047 7.14285 6.19047H5.71428C5.3354 6.19047 4.97204 6.34098 4.70413 6.60889C4.43622 6.8768 4.28571 7.24017 4.28571 7.61905V9.52381H2.85714V7.61905C2.85714 7.24017 2.70663 6.8768 2.43872 6.60889C2.17081 6.34098 1.80745 6.19047 1.42857 6.19047C1.04969 6.19047 0.686328 6.34098 0.418419 6.60889C0.15051 6.8768 0 7.24017 0 7.61905L0 15.2381C0 15.617 0.15051 15.9803 0.418419 16.2482C0.686328 16.5162 1.04969 16.6667 1.42857 16.6667C1.80745 16.6667 2.17081 16.5162 2.43872 16.2482C2.70663 15.9803 2.85714 15.617 2.85714 15.2381V13.3333H4.28571V15.7143C4.28571 16.0932 4.43622 16.4565 4.70413 16.7244C4.97204 16.9923 5.3354 17.1429 5.71428 17.1429H7.70095C7.82723 17.1429 7.94833 17.1931 8.03762 17.2824L10.3367 19.5814C10.4689 19.7146 10.6263 19.8201 10.7997 19.892C10.9731 19.9638 11.159 20.0005 11.3467 20H21.4286C21.8074 20 22.1708 19.8495 22.4387 19.5816C22.7066 19.3137 22.8571 18.9503 22.8571 18.5714V16.6667H23.8095V17.1429C23.8095 17.5217 23.96 17.8851 24.2279 18.153C24.4958 18.4209 24.8592 18.5714 25.2381 18.5714H26.1905C26.8217 18.5707 27.4269 18.3196 27.8732 17.8732C28.3196 17.4269 28.5707 16.8217 28.5714 16.1905V11.4286C28.5707 10.7973 28.3196 10.1922 27.8732 9.74582C27.4269 9.29947 26.8217 9.04837 26.1905 9.04762ZM8.57143 1.42857C8.57143 1.30228 8.6216 1.18116 8.7109 1.09185C8.8002 1.00255 8.92132 0.952381 9.04762 0.952381H18.5714C18.6977 0.952381 18.8188 1.00255 18.9081 1.09185C18.9974 1.18116 19.0476 1.30228 19.0476 1.42857C19.0476 1.55486 18.9974 1.67599 18.9081 1.76529C18.8188 1.85459 18.6977 1.90476 18.5714 1.90476H9.04762C8.92132 1.90476 8.8002 1.85459 8.7109 1.76529C8.6216 1.67599 8.57143 1.55486 8.57143 1.42857ZM12.3809 2.85714H15.2381V4.28571H12.3809V2.85714ZM1.90476 15.2381C1.90476 15.3644 1.85459 15.4855 1.76529 15.5748C1.67599 15.6641 1.55486 15.7143 1.42857 15.7143C1.30228 15.7143 1.18116 15.6641 1.09185 15.5748C1.00255 15.4855 0.952381 15.3644 0.952381 15.2381V7.61905C0.952381 7.49275 1.00255 7.37163 1.09185 7.28233C1.18116 7.19303 1.30228 7.14286 1.42857 7.14286C1.55486 7.14286 1.67599 7.19303 1.76529 7.28233C1.85459 7.37163 1.90476 7.49275 1.90476 7.61905V15.2381ZM2.85714 12.3809V10.4762H4.28571V12.3809H2.85714ZM21.9048 18.5714C21.9048 18.6977 21.8546 18.8188 21.7653 18.9081C21.676 18.9974 21.5549 19.0476 21.4286 19.0476H11.3467C11.2204 19.0476 11.0993 18.9974 11.01 18.9081L8.71095 16.609C8.57861 16.476 8.42121 16.3705 8.24785 16.2987C8.07449 16.2268 7.88861 16.19 7.70095 16.1905H5.71428C5.58799 16.1905 5.46687 16.1403 5.37757 16.051C5.28826 15.9617 5.23809 15.8406 5.23809 15.7143V7.61905C5.23809 7.49275 5.28826 7.37163 5.37757 7.28233C5.46687 7.19303 5.58799 7.14286 5.71428 7.14286H7.14285C7.52174 7.14286 7.8851 6.99235 8.15301 6.72444C8.42092 6.45653 8.57143 6.09316 8.57143 5.71428C8.57143 5.58799 8.6216 5.46687 8.7109 5.37757C8.8002 5.28826 8.92132 5.23809 9.04762 5.23809H18.0952C18.2215 5.23809 18.3426 5.28826 18.4319 5.37757C18.5213 5.46687 18.5714 5.58799 18.5714 5.71428V6.66667C18.5714 7.04555 18.7219 7.40891 18.9898 7.67682C19.2577 7.94473 19.6211 8.09524 20 8.09524H21.4286C21.5549 8.09524 21.676 8.14541 21.7653 8.23471C21.8546 8.32401 21.9048 8.44513 21.9048 8.57143V18.5714ZM22.8571 15.7143V11.9048H23.8095V15.7143H22.8571ZM27.619 16.1905C27.619 16.5694 27.4685 16.9327 27.2006 17.2006C26.9327 17.4685 26.5693 17.619 26.1905 17.619H25.2381C25.1118 17.619 24.9907 17.5689 24.9014 17.4796C24.8121 17.3903 24.7619 17.2691 24.7619 17.1429V10.4762C24.7619 10.3499 24.8121 10.2288 24.9014 10.1395C24.9907 10.0502 25.1118 10 25.2381 10H26.1905C26.5693 10 26.9327 10.1505 27.2006 10.4184C27.4685 10.6863 27.619 11.0497 27.619 11.4286V16.1905Z" fill="white"/>
<path d="M11.7207 12.9642C11.7207 12.3242 11.7847 11.7242 11.9127 11.1642C12.0487 10.6042 12.2287 10.0882 12.4527 9.61622C12.6767 9.13622 12.9247 8.70822 13.1967 8.33222C13.4767 7.94822 13.7647 7.61222 14.0607 7.32422L14.8767 7.91222C14.6127 8.20022 14.3567 8.50022 14.1087 8.81222C13.8607 9.11622 13.6407 9.46022 13.4487 9.84422C13.2567 10.2202 13.1007 10.6602 12.9807 11.1642C12.8687 11.6682 12.8127 12.2682 12.8127 12.9642H11.7207ZM11.7207 13.8402V13.0242H12.8127V13.8402H11.7207ZM15.0567 13.8402V13.0242H16.1487V13.8402H15.0567ZM16.1487 13.8402C16.1487 14.2882 16.0487 14.6882 15.8487 15.0402C15.6567 15.3922 15.3927 15.6722 15.0567 15.8802C14.7287 16.0802 14.3527 16.1802 13.9287 16.1802V15.2322C14.2887 15.2322 14.5647 15.1122 14.7567 14.8722C14.9567 14.6242 15.0567 14.2802 15.0567 13.8402H16.1487ZM11.7207 13.8402H12.8127C12.8127 14.2802 12.9127 14.6242 13.1127 14.8722C13.3127 15.1122 13.5887 15.2322 13.9407 15.2322V16.1802C13.5167 16.1802 13.1367 16.0802 12.8007 15.8802C12.4727 15.6722 12.2087 15.3922 12.0087 15.0402C11.8167 14.6882 11.7207 14.2882 11.7207 13.8402ZM16.1487 13.0242H15.0567C15.0567 12.5762 14.9567 12.2322 14.7567 11.9922C14.5647 11.7522 14.2887 11.6322 13.9287 11.6322V10.6842C14.3527 10.6842 14.7287 10.7882 15.0567 10.9962C15.3927 11.1962 15.6567 11.4722 15.8487 11.8242C16.0487 12.1762 16.1487 12.5762 16.1487 13.0242ZM11.7207 13.0242C11.7207 12.5762 11.8167 12.1762 12.0087 11.8242C12.2087 11.4722 12.4727 11.1962 12.8007 10.9962C13.1367 10.7882 13.5167 10.6842 13.9407 10.6842V11.6322C13.5887 11.6322 13.3127 11.7522 13.1127 11.9922C12.9127 12.2322 12.8127 12.5762 12.8127 13.0242H11.7207Z" fill="white"/>
</svg>
