<svg width="1258" height="236" viewBox="0 0 1258 236" fill="none" xmlns="http://www.w3.org/2000/svg">
<path opacity="0.2" d="M135.005 65.5386V68.5386H138.005V65.5386H135.005ZM78.7842 65.5386H75.7842V68.5386H78.7842V65.5386ZM78.3667 45.7778L75.3733 45.9774L75.377 46.032L75.3826 46.0865L78.3667 45.7778ZM75.0269 38.8198L72.9579 40.9922L72.9831 41.0162L73.0088 41.0396L75.0269 38.8198ZM56.2402 98.2412H53.2402L58.948 99.5326L56.2402 98.2412ZM68.9038 84.7427L70.3156 87.3897L70.3326 87.3806L70.3496 87.3713L68.9038 84.7427ZM123.455 214.718L121.115 212.84L121.112 212.844L123.455 214.718ZM101.885 229.887L100.785 227.095L100.775 227.099L101.885 229.887ZM10.4565 211.1L7.95136 212.751L7.96262 212.768L7.97412 212.785L10.4565 211.1ZM1.27197 186.33L-1.71408 186.619L-1.71254 186.634L-1.71083 186.65L1.27197 186.33ZM1.13281 51.2051L-1.85462 50.9307L-1.85589 50.9446L-1.85704 50.9585L1.13281 51.2051ZM33.9746 7.36963L35.1115 10.1458L35.1181 10.1431L35.1247 10.1404L33.9746 7.36963ZM58.8843 119.254L56.3634 117.628L56.3566 117.639L56.3498 117.649L58.8843 119.254ZM58.7451 196.071L56.1114 197.507L56.128 197.538L56.1452 197.568L58.7451 196.071ZM74.8877 197.184L76.8857 199.422L76.9076 199.402L76.929 199.382L74.8877 197.184ZM135.005 62.5386H78.7842V68.5386H135.005V62.5386ZM81.7842 65.5386C81.7842 55.1098 81.6485 48.3476 81.3508 45.4691L75.3826 46.0865C75.6415 48.589 75.7842 55.0006 75.7842 65.5386H81.7842ZM81.3601 45.5783C81.1235 42.0306 79.6672 38.9839 77.0449 36.6L73.0088 41.0396C74.4685 42.3666 75.2388 43.9587 75.3733 45.9774L81.3601 45.5783ZM77.0958 36.6474C74.4478 34.1255 70.9372 33.0366 66.9556 33.0366V39.0366C69.8391 39.0366 71.7094 39.8032 72.9579 40.9922L77.0958 36.6474ZM66.9556 33.0366C63.4137 33.0366 60.2757 34.1463 57.7922 36.5057L61.9246 40.8557C63.1521 39.6896 64.7455 39.0366 66.9556 39.0366V33.0366ZM57.7922 36.5057C55.3656 38.8109 54.0153 41.774 53.6726 45.201L59.6428 45.798C59.8568 43.6586 60.6403 42.0758 61.9246 40.8557L57.7922 36.5057ZM53.6726 45.201C53.3769 48.1581 53.2402 53.9213 53.2402 62.3379H59.2402C59.2402 53.8697 59.3819 48.4073 59.6428 45.798L53.6726 45.201ZM53.2402 62.3379V98.2412H59.2402V62.3379H53.2402ZM58.948 99.5326C61.5653 94.0448 65.3495 90.0383 70.3156 87.3897L67.492 82.0956C61.3253 85.3845 56.6671 90.3771 53.5324 96.9498L58.948 99.5326ZM70.3496 87.3713C75.3644 84.6132 81.7004 83.1504 89.4995 83.1504V77.1504C80.9705 77.1504 73.5761 78.7491 67.4581 82.114L70.3496 87.3713ZM89.4995 83.1504C99.2216 83.1504 107.7 85.7662 115.045 90.9509L118.505 86.0491C110.078 80.101 100.373 77.1504 89.4995 77.1504V83.1504ZM115.045 90.9509C122.477 96.1975 126.995 102.334 128.911 109.331L134.698 107.747C132.346 99.1582 126.844 91.9354 118.505 86.0491L115.045 90.9509ZM128.911 109.331C130.943 116.754 132.005 126.982 132.005 140.128H138.005C138.005 126.742 136.933 115.91 134.698 107.747L128.911 109.331ZM132.005 140.128V158.08H138.005V140.128H132.005ZM132.005 158.08C132.005 173.82 131.4 185.363 130.232 192.823L136.16 193.752C137.403 185.811 138.005 173.883 138.005 158.08H132.005ZM130.232 192.823C129.114 199.963 126.104 206.627 121.115 212.84L125.794 216.596C131.382 209.636 134.866 202.013 136.16 193.752L130.232 192.823ZM121.112 212.844C116.3 218.859 109.574 223.633 100.785 227.095L102.984 232.678C112.565 228.904 120.218 223.566 125.797 216.592L121.112 212.844ZM100.775 227.099C92.1107 230.548 81.8793 232.314 70.0171 232.314V238.314C82.4615 238.314 93.4752 236.462 102.994 232.674L100.775 227.099ZM70.0171 232.314C55.1392 232.314 43.1981 230.256 34.0527 226.298L31.67 231.805C41.8215 236.198 54.6509 238.314 70.0171 238.314V232.314ZM34.0527 226.298C24.8646 222.323 17.8706 216.683 12.939 209.416L7.97412 212.785C13.6186 221.103 21.5612 227.431 31.67 231.805L34.0527 226.298ZM12.9617 209.45C8.00555 201.927 5.12703 194.121 4.25478 186.009L-1.71083 186.65C-0.727619 195.794 2.51691 204.502 7.95136 212.751L12.9617 209.45ZM4.25802 186.041C3.43918 177.579 3.01953 160.975 3.01953 136.093H-2.98047C-2.98047 160.937 -2.56515 177.824 -1.71408 186.619L4.25802 186.041ZM3.01953 136.093V104.921H-2.98047V136.093H3.01953ZM3.01953 104.921C3.01953 78.0896 3.39229 60.3074 4.12266 51.4517L-1.85704 50.9585C-2.61104 60.1008 -2.98047 78.1291 -2.98047 104.921H3.01953ZM4.12024 51.4794C4.9036 42.9495 7.94671 34.8611 13.3304 27.1827L8.41765 23.7382C2.48298 32.2024 -0.968055 41.2771 -1.85462 50.9307L4.12024 51.4794ZM13.3304 27.1827C18.6371 19.6142 25.8643 13.9328 35.1115 10.1458L32.8377 4.59341C22.6025 8.78494 14.4293 15.1642 8.41765 23.7382L13.3304 27.1827ZM35.1247 10.1404C44.5283 6.23702 55.4435 4.24658 67.9297 4.24658V-1.75342C54.8104 -1.75342 43.0888 0.338173 32.8245 4.59885L35.1247 10.1404ZM67.9297 4.24658C83.4053 4.24658 95.8422 6.75401 105.404 11.5787L108.107 6.22204C97.444 0.841691 83.9971 -1.75342 67.9297 -1.75342V4.24658ZM105.404 11.5787C114.984 16.4129 121.704 23.1398 125.749 31.7463L131.179 29.1941C126.504 19.246 118.751 11.593 108.107 6.22204L105.404 11.5787ZM125.749 31.7463C129.865 40.5039 132.005 51.7221 132.005 65.5386H138.005C138.005 51.1519 135.784 38.9912 131.179 29.1941L125.749 31.7463ZM81.7842 135.814C81.7842 131.728 81.5594 128.195 81.085 125.248C80.6163 122.337 79.8749 119.808 78.7197 117.862L73.5606 120.925C74.1681 121.948 74.7487 123.64 75.1613 126.202C75.5682 128.729 75.7842 131.922 75.7842 135.814H81.7842ZM78.7197 117.862C76.3236 113.826 72.3646 111.94 67.5122 111.94V117.94C70.6383 117.94 72.4313 119.023 73.5606 120.925L78.7197 117.862ZM67.5122 111.94C62.7625 111.94 58.8556 113.765 56.3634 117.628L61.4052 120.881C62.6239 118.992 64.469 117.94 67.5122 117.94V111.94ZM56.3498 117.649C55.1492 119.545 54.4051 122.088 53.9388 125.009C53.4644 127.98 53.2402 131.595 53.2402 135.814H59.2402C59.2402 131.777 59.4568 128.504 59.8637 125.955C60.2788 123.355 60.8566 121.747 61.4187 120.86L56.3498 117.649ZM53.2402 135.814V176.588H59.2402V135.814H53.2402ZM53.2402 176.588C53.2402 181.622 53.4511 185.866 53.8909 189.287C54.3217 192.637 55.0036 195.476 56.1114 197.507L61.3788 194.634C60.8167 193.604 60.2462 191.665 59.842 188.521C59.4468 185.448 59.2402 181.482 59.2402 176.588H53.2402ZM56.1452 197.568C58.5218 201.695 62.4777 203.663 67.373 203.663V197.663C64.2899 197.663 62.4939 196.569 61.345 194.574L56.1452 197.568ZM67.373 203.663C70.7912 203.663 73.979 202.017 76.8857 199.422L72.8896 194.946C70.6011 196.99 68.7791 197.663 67.373 197.663V203.663ZM76.929 199.382C78.9365 197.518 80.067 194.537 80.7502 191.171C81.4556 187.694 81.7842 183.273 81.7842 177.98H75.7842C75.7842 183.077 75.4633 187.053 74.87 189.977C74.2543 193.012 73.4365 194.438 72.8463 194.986L76.929 199.382ZM81.7842 177.98V135.814H75.7842V177.98H81.7842ZM253.569 5.69971H256.569V2.69971H253.569V5.69971ZM253.569 54.8232L256.509 55.4223L256.569 55.1258V54.8232H253.569ZM217.666 231V234H220.116L220.606 231.599L217.666 231ZM161.724 231L158.791 230.366L158.006 234H161.724V231ZM201.663 46.1953L204.595 46.829L205.38 43.1953H201.663V46.1953ZM146.138 46.1953H143.138V49.1953H146.138V46.1953ZM146.138 5.69971V2.69971H143.138V5.69971H146.138ZM250.569 5.69971V54.8232H256.569V5.69971H250.569ZM250.63 54.2242L214.726 230.401L220.606 231.599L256.509 55.4223L250.63 54.2242ZM217.666 228H161.724V234H217.666V228ZM164.656 231.634L204.595 46.829L198.73 45.5616L158.791 230.366L164.656 231.634ZM201.663 43.1953H146.138V49.1953H201.663V43.1953ZM149.138 46.1953V5.69971H143.138V46.1953H149.138ZM146.138 8.69971H253.569V2.69971H146.138V8.69971ZM454.934 103.947V106.947H457.934V103.947H454.934ZM396.348 103.947H393.348V106.947H396.348V103.947ZM394.399 43.4121L391.633 44.5723L391.656 44.627L391.681 44.6808L394.399 43.4121ZM394.26 192.592L391.491 191.438L391.477 191.471L391.464 191.504L394.26 192.592ZM396.348 140.824V137.824H393.348V140.824H396.348ZM454.934 140.824H457.934V137.824H454.934V140.824ZM449.924 199.132L447.086 198.159L447.082 198.171L447.078 198.184L449.924 199.132ZM428.076 224.738L426.446 222.22L426.436 222.226L428.076 224.738ZM321.897 200.663L319.046 201.597L319.049 201.605L321.897 200.663ZM318.14 48.7002L321.112 49.1101L321.112 49.1055L318.14 48.7002ZM328.02 25.1821L325.609 23.3964L325.602 23.4061L325.595 23.4158L328.02 25.1821ZM350.981 7.50879L352.185 10.2567L352.197 10.2513L350.981 7.50879ZM449.646 36.0366L446.816 37.0323L446.819 37.0406L449.646 36.0366ZM454.934 100.947H396.348V106.947H454.934V100.947ZM399.348 103.947V64.7036H393.348V103.947H399.348ZM399.348 64.7036C399.348 58.9539 399.185 54.2257 398.848 50.549C398.523 46.991 398.009 44.0529 397.118 42.1435L391.681 44.6808C392.089 45.5546 392.549 47.5566 392.873 51.0958C393.186 54.5162 393.348 59.0422 393.348 64.7036H399.348ZM397.166 42.2519C396.296 40.1774 394.829 38.5671 392.838 37.5209C390.907 36.5063 388.634 36.0981 386.189 36.0981V42.0981C388.012 42.0981 389.241 42.409 390.047 42.8324C390.793 43.2241 391.297 43.7708 391.633 44.5723L397.166 42.2519ZM386.189 36.0981C383.447 36.0981 380.923 36.5825 378.808 37.7685C376.632 38.9883 375.085 40.8422 374.199 43.1854L379.81 45.3087C380.222 44.2194 380.856 43.4988 381.742 43.0022C382.688 42.4719 384.107 42.0981 386.189 42.0981V36.0981ZM374.199 43.1854C373.396 45.3058 372.884 48.3623 372.555 52.1264C372.219 55.9571 372.056 60.7604 372.056 66.5127H378.056C378.056 60.8539 378.218 56.2407 378.532 52.6494C378.852 48.9917 379.314 46.621 379.81 45.3087L374.199 43.1854ZM372.056 66.5127V171.161H378.056V66.5127H372.056ZM372.056 171.161C372.056 176.684 372.22 181.305 372.556 185.001C372.886 188.631 373.4 191.6 374.208 193.679L379.8 191.504C379.31 190.244 378.85 187.971 378.531 184.458C378.217 181.01 378.056 176.586 378.056 171.161H372.056ZM374.208 193.679C375.09 195.945 376.584 197.755 378.682 198.954C380.728 200.123 383.152 200.602 385.771 200.602V194.602C383.845 194.602 382.535 194.245 381.659 193.744C380.835 193.273 380.218 192.578 379.8 191.504L374.208 193.679ZM385.771 200.602C388.318 200.602 390.685 200.115 392.689 198.933C394.737 197.724 396.186 195.916 397.056 193.679L391.464 191.504C391.035 192.608 390.421 193.304 389.639 193.765C388.814 194.253 387.586 194.602 385.771 194.602V200.602ZM397.029 193.746C397.916 191.619 398.463 188.426 398.814 184.473C399.173 180.43 399.348 175.288 399.348 169.074H393.348C393.348 175.198 393.175 180.145 392.838 183.942C392.493 187.829 391.996 190.225 391.491 191.438L397.029 193.746ZM399.348 169.074V140.824H393.348V169.074H399.348ZM396.348 143.824H454.934V137.824H396.348V143.824ZM451.934 140.824V149.591H457.934V140.824H451.934ZM451.934 149.591C451.934 172.858 450.251 188.93 447.086 198.159L452.762 200.105C456.278 189.852 457.934 172.897 457.934 149.591H451.934ZM447.078 198.184C444.106 207.101 437.373 215.144 426.446 222.22L429.707 227.256C441.417 219.673 449.249 210.646 452.77 200.081L447.078 198.184ZM426.436 222.226C415.801 229.17 402.534 232.731 386.467 232.731V238.731C403.428 238.731 417.901 234.964 429.716 227.25L426.436 222.226ZM386.467 232.731C369.646 232.731 356.043 229.683 345.486 223.788L342.561 229.027C354.269 235.564 368.962 238.731 386.467 238.731V232.731ZM345.486 223.788C334.934 217.897 328.102 209.878 324.745 199.722L319.049 201.605C322.928 213.343 330.848 222.487 342.561 229.027L345.486 223.788ZM324.748 199.729C321.281 189.151 319.47 172.977 319.47 150.983H313.47C313.47 173.149 315.276 190.095 319.046 201.597L324.748 199.729ZM319.47 150.983V85.1602H313.47V150.983H319.47ZM319.47 85.1602C319.47 68.9555 320.027 56.9701 321.112 49.1101L315.168 48.2903C314.025 56.5728 313.47 68.8941 313.47 85.1602H319.47ZM321.112 49.1055C322.15 41.4937 325.226 34.1139 330.445 26.9484L325.595 23.4158C319.867 31.2796 316.356 39.5786 315.167 48.2949L321.112 49.1055ZM330.431 26.9678C335.645 19.9287 342.857 14.3436 352.185 10.2567L349.778 4.76092C339.624 9.20918 331.528 15.4063 325.609 23.3964L330.431 26.9678ZM352.197 10.2513C361.585 6.0887 372.431 3.96826 384.797 3.96826V-2.03174C371.744 -2.03174 360.045 0.208171 349.765 4.76629L352.197 10.2513ZM384.797 3.96826C401.682 3.96826 415.35 7.2374 425.985 13.5659L429.054 8.40969C417.238 1.37881 402.425 -2.03174 384.797 -2.03174V3.96826ZM425.985 13.5659C436.751 19.9716 443.574 27.8179 446.816 37.0323L452.476 35.0409C448.667 24.2162 440.74 15.3633 429.054 8.40969L425.985 13.5659ZM446.819 37.0406C450.165 46.4623 451.934 61.5273 451.934 82.5161H457.934C457.934 61.3858 456.178 45.4645 452.473 35.0326L446.819 37.0406ZM451.934 82.5161V103.947H457.934V82.5161H451.934ZM577.117 5.69971L580.084 5.258L579.703 2.69971H577.117V5.69971ZM610.654 231V234H614.134L613.622 230.558L610.654 231ZM550.676 231L547.684 231.216L547.885 234H550.676V231ZM547.754 190.504L550.746 190.288L550.545 187.504H547.754V190.504ZM526.741 190.504V187.504H523.987L523.752 190.248L526.741 190.504ZM523.262 231V234H526.015L526.251 231.257L523.262 231ZM462.588 231L459.614 230.607L459.165 234H462.588V231ZM492.368 5.69971V2.69971H489.739L489.394 5.30659L492.368 5.69971ZM546.084 150.565V153.565H549.453L549.064 150.219L546.084 150.565ZM537.178 56.0757L540.168 55.8388L534.206 55.6658L537.178 56.0757ZM526.045 150.565L523.053 150.343L522.813 153.565H526.045V150.565ZM574.149 6.14141L607.687 231.442L613.622 230.558L580.084 5.258L574.149 6.14141ZM610.654 228H550.676V234H610.654V228ZM553.668 230.784L550.746 190.288L544.762 190.72L547.684 231.216L553.668 230.784ZM547.754 187.504H526.741V193.504H547.754V187.504ZM523.752 190.248L520.273 230.743L526.251 231.257L529.73 190.761L523.752 190.248ZM523.262 228H462.588V234H523.262V228ZM465.562 231.393L495.342 6.09283L489.394 5.30659L459.614 230.607L465.562 231.393ZM492.368 8.69971H577.117V2.69971H492.368V8.69971ZM549.064 150.219C546.101 124.755 543.135 93.2977 540.168 55.8388L534.187 56.3126C537.158 93.8146 540.13 125.35 543.104 150.912L549.064 150.219ZM534.206 55.6658C528.267 98.7203 524.545 130.296 523.053 150.343L529.037 150.788C530.514 130.942 534.213 99.5248 540.15 56.4856L534.206 55.6658ZM526.045 153.565H546.084V147.565H526.045V153.565ZM801.443 5.69971H804.443V2.69971H801.443V5.69971ZM801.443 231V234H804.443V231H801.443ZM750.232 231H747.232V234H750.232V231ZM750.232 78.8979H753.232L747.259 78.4981L750.232 78.8979ZM729.775 231V234H732.399L732.749 231.4L729.775 231ZM693.455 231L690.486 231.431L690.859 234H693.455V231ZM671.885 82.377L674.854 81.9461L668.885 82.377H671.885ZM671.885 231V234H674.885V231H671.885ZM620.674 231H617.674V234H620.674V231ZM620.674 5.69971V2.69971H617.674V5.69971H620.674ZM696.516 5.69971L699.476 5.21309L699.063 2.69971H696.516V5.69971ZM703.613 53.5708L700.641 53.9761L700.643 53.989L703.613 53.5708ZM711.685 110.905L708.714 111.323L714.661 111.283L711.685 110.905ZM725.044 5.69971V2.69971H722.401L722.068 5.32179L725.044 5.69971ZM798.443 5.69971V231H804.443V5.69971H798.443ZM801.443 228H750.232V234H801.443V228ZM753.232 231V78.8979H747.232V231H753.232ZM747.259 78.4981L726.802 230.6L732.749 231.4L753.205 79.2978L747.259 78.4981ZM729.775 228H693.455V234H729.775V228ZM696.423 230.569L674.854 81.9461L668.916 82.8078L690.486 231.431L696.423 230.569ZM668.885 82.377V231H674.885V82.377H668.885ZM671.885 228H620.674V234H671.885V228ZM623.674 231V5.69971H617.674V231H623.674ZM620.674 8.69971H696.516V2.69971H620.674V8.69971ZM693.556 6.18633C695.777 19.6967 698.138 35.6254 700.641 53.9761L706.586 53.1655C704.078 34.7779 701.709 18.7925 699.476 5.21309L693.556 6.18633ZM700.643 53.989L708.714 111.323L714.655 110.487L706.584 53.1526L700.643 53.989ZM714.661 111.283L728.02 6.07762L722.068 5.32179L708.708 110.527L714.661 111.283ZM725.044 8.69971H801.443V2.69971H725.044V8.69971ZM926.13 5.69971L929.098 5.258L928.717 2.69971H926.13V5.69971ZM959.668 231V234H963.148L962.635 230.558L959.668 231ZM899.69 231L896.698 231.216L896.899 234H899.69V231ZM896.768 190.504L899.76 190.288L899.559 187.504H896.768V190.504ZM875.754 190.504V187.504H873.001L872.765 190.248L875.754 190.504ZM872.275 231V234H875.029L875.264 231.257L872.275 231ZM811.602 231L808.627 230.607L808.179 234H811.602V231ZM841.382 5.69971V2.69971H838.752L838.408 5.30659L841.382 5.69971ZM895.098 150.565V153.565H898.467L898.078 150.219L895.098 150.565ZM886.191 56.0757L889.182 55.8388L883.22 55.6658L886.191 56.0757ZM875.059 150.565L872.067 150.343L871.827 153.565H875.059V150.565ZM923.163 6.14141L956.701 231.442L962.635 230.558L929.098 5.258L923.163 6.14141ZM959.668 228H899.69V234H959.668V228ZM902.682 230.784L899.76 190.288L893.775 190.72L896.698 231.216L902.682 230.784ZM896.768 187.504H875.754V193.504H896.768V187.504ZM872.765 190.248L869.286 230.743L875.264 231.257L878.743 190.761L872.765 190.248ZM872.275 228H811.602V234H872.275V228ZM814.576 231.393L844.356 6.09283L838.408 5.30659L808.627 230.607L814.576 231.393ZM841.382 8.69971H926.13V2.69971H841.382V8.69971ZM898.078 150.219C895.115 124.755 892.149 93.2977 889.182 55.8388L883.201 56.3126C886.171 93.8146 889.143 125.35 892.118 150.912L898.078 150.219ZM883.22 55.6658C877.281 98.7203 873.559 130.296 872.067 150.343L878.05 150.788C879.527 130.942 883.227 99.5248 889.163 56.4856L883.22 55.6658ZM875.059 153.565H895.098V147.565H875.059V153.565ZM969.688 5.69971V2.69971H966.688V5.69971H969.688ZM1067.24 8.90039L1066.6 11.8309L1066.6 11.8322L1067.24 8.90039ZM1091.17 25.3213L1088.71 27.033L1088.72 27.0478L1088.73 27.0625L1091.17 25.3213ZM1068.21 113.41L1067.93 110.423L1067.49 116.321L1068.21 113.41ZM1098.97 138.319L1096.04 138.984L1096.05 139.024L1096.06 139.063L1098.97 138.319ZM1100.5 231V234H1103.5V231H1100.5ZM1046.09 231H1043.09V234H1046.09V231ZM1043.16 133.727L1040.64 135.353L1040.66 135.382L1040.68 135.41L1043.16 133.727ZM1028.27 129.413V126.413H1025.27V129.413H1028.27ZM1028.27 231V234H1031.27V231H1028.27ZM969.688 231H966.688V234H969.688V231ZM1028.27 44.2471V41.2471H1025.27V44.2471H1028.27ZM1028.27 94.3447H1025.27V97.3447H1028.27V94.3447ZM1042.05 91.7007L1043.74 94.1831L1043.74 94.1768L1043.75 94.1703L1042.05 91.7007ZM1042.19 47.5869L1040.2 49.8291L1040.22 49.8471L1040.24 49.8647L1042.19 47.5869ZM969.688 8.69971H1011.16V2.69971H969.688V8.69971ZM1011.16 8.69971C1038.84 8.69971 1057.22 9.77677 1066.6 11.8309L1067.88 5.96987C1057.78 3.75644 1038.77 2.69971 1011.16 2.69971V8.69971ZM1066.6 11.8322C1075.64 13.7937 1082.99 18.7973 1088.71 27.033L1093.64 23.6096C1087.11 14.2183 1078.5 8.27467 1067.87 5.96861L1066.6 11.8322ZM1088.73 27.0625C1094.4 35.0093 1097.5 48.1948 1097.5 67.2085H1103.5C1103.5 47.814 1100.38 33.0746 1093.62 23.58L1088.73 27.0625ZM1097.5 67.2085C1097.5 75.8683 1096.96 83.0006 1095.91 88.6499C1094.86 94.3403 1093.33 98.297 1091.53 100.797L1096.39 104.313C1098.94 100.783 1100.69 95.8335 1101.81 89.7417C1102.95 83.6088 1103.5 76.0829 1103.5 67.2085H1097.5ZM1091.53 100.797C1087.94 105.757 1080.47 109.242 1067.93 110.423L1068.49 116.396C1081.56 115.165 1091.25 111.414 1096.39 104.313L1091.53 100.797ZM1067.49 116.321C1078.95 119.163 1085.93 122.823 1089.28 126.872L1093.9 123.048C1089.27 117.448 1080.67 113.408 1068.94 110.498L1067.49 116.321ZM1089.28 126.872C1093.11 131.499 1095.26 135.531 1096.04 138.984L1101.89 137.654C1100.82 132.944 1098.06 128.07 1093.9 123.048L1089.28 126.872ZM1096.06 139.063C1096.48 140.718 1096.86 144.193 1097.12 149.764C1097.37 155.242 1097.5 162.508 1097.5 171.579H1103.5C1103.5 162.466 1103.37 155.097 1103.11 149.488C1102.86 143.973 1102.47 139.91 1101.87 137.576L1096.06 139.063ZM1097.5 171.579V231H1103.5V171.579H1097.5ZM1100.5 228H1046.09V234H1100.5V228ZM1049.09 231V156.132H1043.09V231H1049.09ZM1049.09 156.132C1049.09 150.039 1048.84 145.013 1048.33 141.097C1047.84 137.32 1047.05 134.112 1045.65 132.045L1040.68 135.41C1041.23 136.218 1041.9 138.183 1042.38 141.873C1042.84 145.426 1043.09 150.164 1043.09 156.132H1049.09ZM1045.68 132.101C1044.21 129.81 1041.72 128.431 1038.88 127.61C1036.02 126.781 1032.45 126.413 1028.27 126.413V132.413C1032.17 132.413 1035.11 132.764 1037.22 133.373C1039.34 133.99 1040.27 134.768 1040.64 135.353L1045.68 132.101ZM1025.27 129.413V231H1031.27V129.413H1025.27ZM1028.27 228H969.688V234H1028.27V228ZM972.688 231V5.69971H966.688V231H972.688ZM1025.27 44.2471V94.3447H1031.27V44.2471H1025.27ZM1028.27 97.3447C1034.93 97.3447 1040.33 96.4925 1043.74 94.1831L1040.37 89.2183C1038.57 90.4342 1034.79 91.3447 1028.27 91.3447V97.3447ZM1043.75 94.1703C1046.06 92.577 1047.29 89.6826 1048 86.5586C1048.75 83.2995 1049.09 79.0917 1049.09 74.0273H1043.09C1043.09 78.8897 1042.75 82.5909 1042.15 85.2229C1041.52 87.99 1040.73 88.9689 1040.35 89.231L1043.75 94.1703ZM1049.09 74.0273V61.6421H1043.09V74.0273H1049.09ZM1049.09 61.6421C1049.09 57.9137 1048.75 54.6637 1048 51.9692C1047.26 49.2841 1046.05 46.9419 1044.14 45.3091L1040.24 49.8647C1040.93 50.4585 1041.67 51.5721 1042.22 53.5721C1042.77 55.5626 1043.09 58.2269 1043.09 61.6421H1049.09ZM1044.18 45.3447C1040.79 42.3287 1035.14 41.2471 1028.27 41.2471V47.2471C1034.95 47.2471 1038.58 48.392 1040.2 49.8291L1044.18 45.3447ZM1255.52 185.773L1252.54 185.422L1252.54 185.435L1252.54 185.448L1255.52 185.773ZM1245.5 211.518L1243.08 209.755L1243.07 209.764L1243.06 209.774L1245.5 211.518ZM1156.86 229.887L1155.7 232.655L1155.72 232.662L1155.73 232.668L1156.86 229.887ZM1123.18 51.0659L1120.2 50.7154L1120.2 50.7282L1120.2 50.7411L1123.18 51.0659ZM1133.2 25.1821L1130.77 23.4193L1130.77 23.4288L1130.76 23.4384L1133.2 25.1821ZM1221.85 6.95215L1220.69 9.72058L1220.71 9.72732L1220.72 9.73387L1221.85 6.95215ZM1196.8 43.5513L1193.99 44.6046L1194.01 44.6585L1194.03 44.7114L1196.8 43.5513ZM1182.6 42.7163L1180.14 41.0087L1180.13 41.019L1180.12 41.0294L1182.6 42.7163ZM1181.77 193.009L1178.92 193.958L1178.93 193.996L1178.95 194.035L1181.77 193.009ZM1254.19 137.624C1254.19 160.258 1253.63 176.152 1252.54 185.422L1258.5 186.123C1259.64 176.469 1260.19 160.262 1260.19 137.624H1254.19ZM1252.54 185.448C1251.58 194.287 1248.43 202.375 1243.08 209.755L1247.93 213.28C1253.89 205.074 1257.43 195.999 1258.5 186.098L1252.54 185.448ZM1243.06 209.774C1237.84 217.087 1230.72 222.742 1221.62 226.72L1224.02 232.218C1234.03 227.846 1242.04 221.534 1247.94 213.261L1243.06 209.774ZM1221.62 226.72C1212.52 230.697 1201.81 232.731 1189.42 232.731V238.731C1202.46 238.731 1214.01 236.591 1224.02 232.218L1221.62 226.72ZM1189.42 232.731C1177.69 232.731 1167.22 230.836 1157.98 227.105L1155.73 232.668C1165.79 236.73 1177.04 238.731 1189.42 238.731V232.731ZM1158.01 227.118C1148.93 223.325 1141.67 217.715 1136.17 210.288L1131.35 213.861C1137.53 222.205 1145.68 228.47 1155.7 232.655L1158.01 227.118ZM1136.17 210.288C1130.62 202.799 1127.35 194.705 1126.3 185.972L1120.34 186.687C1121.52 196.508 1125.21 205.578 1131.35 213.861L1136.17 210.288ZM1126.3 185.972C1125.21 176.893 1124.65 160.821 1124.65 137.624H1118.65C1118.65 160.813 1119.2 177.211 1120.34 186.687L1126.3 185.972ZM1124.65 137.624V99.0762H1118.65V137.624H1124.65ZM1124.65 99.0762C1124.65 76.4399 1125.16 60.5823 1126.16 51.3907L1120.2 50.7411C1119.16 60.2898 1118.65 76.439 1118.65 99.0762H1124.65ZM1126.16 51.4164C1127.21 42.4586 1130.37 34.3094 1135.64 26.9258L1130.76 23.4384C1124.9 31.6408 1121.37 40.7475 1120.2 50.7154L1126.16 51.4164ZM1135.63 26.9449C1140.95 19.6195 1148.12 13.9589 1157.22 9.97955L1154.82 4.48138C1144.82 8.85168 1136.77 15.1588 1130.77 23.4193L1135.63 26.9449ZM1157.22 9.97955C1166.33 6.00228 1177.04 3.96826 1189.42 3.96826V-2.03174C1176.39 -2.03174 1164.83 0.109048 1154.82 4.48138L1157.22 9.97955ZM1189.42 3.96826C1201.15 3.96826 1211.56 5.90723 1220.69 9.72058L1223 4.18371C1213.02 0.0185521 1201.81 -2.03174 1189.42 -2.03174V3.96826ZM1220.72 9.73387C1229.89 13.4364 1237.18 18.9971 1242.68 26.4118L1247.5 22.8391C1241.3 14.4824 1233.1 8.26087 1222.97 4.17042L1220.72 9.73387ZM1242.68 26.4118C1248.23 33.9007 1251.5 41.9943 1252.54 50.7276L1258.5 50.0127C1257.32 40.1912 1253.63 31.1217 1247.5 22.8391L1242.68 26.4118ZM1252.54 50.7276C1253.63 59.8066 1254.19 75.8786 1254.19 99.0762H1260.19C1260.19 75.887 1259.64 59.4883 1258.5 50.0127L1252.54 50.7276ZM1254.19 99.0762V137.624H1260.19V99.0762H1254.19ZM1201.61 63.5903C1201.61 58.3026 1201.45 53.9129 1201.14 50.4483C1200.84 47.071 1200.36 44.285 1199.56 42.3911L1194.03 44.7114C1194.44 45.6935 1194.87 47.6854 1195.17 50.9878C1195.46 54.2028 1195.61 58.3947 1195.61 63.5903H1201.61ZM1199.61 42.4979C1198.85 40.4852 1197.6 38.8084 1195.78 37.6702C1194 36.5516 1191.91 36.0981 1189.7 36.0981V42.0981C1191.11 42.0981 1192.01 42.3868 1192.59 42.7526C1193.14 43.0989 1193.63 43.6486 1193.99 44.6046L1199.61 42.4979ZM1189.7 36.0981C1185.7 36.0981 1182.39 37.7462 1180.14 41.0087L1185.07 44.4239C1186.15 42.8622 1187.57 42.0981 1189.7 42.0981V36.0981ZM1180.12 41.0294C1179.44 42.031 1178.99 43.2907 1178.66 44.5843C1178.32 45.9219 1178.05 47.5171 1177.85 49.3365C1177.43 52.9763 1177.24 57.7419 1177.24 63.5903H1183.24C1183.24 57.8421 1183.43 53.3303 1183.81 50.0122C1184 48.3526 1184.22 47.0486 1184.47 46.0668C1184.74 45.0411 1184.98 44.5613 1185.08 44.4032L1180.12 41.0294ZM1177.24 63.5903V168.795H1183.24V63.5903H1177.24ZM1177.24 168.795C1177.24 175.366 1177.36 180.724 1177.63 184.849C1177.88 188.87 1178.27 192.014 1178.92 193.958L1184.61 192.061C1184.24 190.943 1183.87 188.52 1183.61 184.47C1183.36 180.524 1183.24 175.306 1183.24 168.795H1177.24ZM1178.95 194.035C1179.71 196.13 1181.02 197.854 1182.92 199.013C1184.77 200.146 1186.96 200.602 1189.28 200.602V194.602C1187.71 194.602 1186.7 194.292 1186.05 193.894C1185.44 193.522 1184.94 192.95 1184.59 191.984L1178.95 194.035ZM1189.28 200.602C1191.71 200.602 1193.99 200.063 1195.89 198.748C1197.82 197.419 1199.08 195.489 1199.8 193.217L1194.08 191.41C1193.68 192.664 1193.11 193.378 1192.48 193.811C1191.83 194.259 1190.84 194.602 1189.28 194.602V200.602ZM1199.8 193.217C1200.47 191.08 1200.9 187.783 1201.18 183.571C1201.47 179.281 1201.61 173.792 1201.61 167.125H1195.61C1195.61 173.726 1195.47 179.068 1195.2 183.174C1194.92 187.358 1194.51 190.021 1194.08 191.41L1199.8 193.217ZM1201.61 167.125V63.5903H1195.61V167.125H1201.61Z" fill="white"/>
</svg>
