<svg width="1264" height="242" viewBox="0 0 1264 242" fill="none" xmlns="http://www.w3.org/2000/svg">
<g opacity="0.2">
<mask id="path-1-outside-1_177_693" maskUnits="userSpaceOnUse" x="0.0195312" y="0.968262" width="1264" height="241" fill="black">
<rect fill="white" x="0.0195312" y="0.968262" width="1264" height="241"/>
<path d="M138.005 68.5386H81.7842C81.7842 58.0552 81.645 51.4683 81.3667 48.7778C81.1812 45.9946 80.0679 43.6753 78.0269 41.8198C76.0786 39.9644 73.3882 39.0366 69.9556 39.0366C67.0796 39.0366 64.7139 39.918 62.8584 41.6807C61.0029 43.4434 59.936 45.7163 59.6577 48.4995C59.3794 51.2827 59.2402 56.8955 59.2402 65.3379V101.241C62.1162 95.2109 66.3374 90.7114 71.9038 87.7427C77.4702 84.6812 84.3354 83.1504 92.4995 83.1504C102.797 83.1504 111.889 85.9336 119.775 91.5C127.661 97.0664 132.67 103.746 134.804 111.539C136.938 119.332 138.005 129.862 138.005 143.128V161.08C138.005 176.852 137.402 188.587 136.196 196.288C134.99 203.988 131.743 211.131 126.455 217.718C121.259 224.212 114.069 229.269 104.885 232.887C95.793 236.505 85.1704 238.314 73.0171 238.314C57.895 238.314 45.5098 236.227 35.8613 232.052C26.2129 227.877 18.7446 221.893 13.4565 214.1C8.26123 206.214 5.19971 197.958 4.27197 189.33C3.43701 180.702 3.01953 163.956 3.01953 139.093V107.921C3.01953 81.1094 3.39062 63.2041 4.13281 54.2051C4.96777 45.1133 8.21484 36.5317 13.874 28.4604C19.5332 20.3892 27.2334 14.3589 36.9746 10.3696C46.8086 6.2876 58.127 4.24658 70.9297 4.24658C86.7012 4.24658 99.6431 6.79785 109.755 11.9004C119.868 17.0029 127.104 24.1929 131.464 33.4702C135.825 42.7476 138.005 54.437 138.005 68.5386ZM81.7842 138.814C81.7842 130.836 80.9028 125.362 79.1401 122.394C77.3774 119.425 74.5015 117.94 70.5122 117.94C66.6157 117.94 63.7397 119.378 61.8843 122.254C60.1216 125.038 59.2402 130.558 59.2402 138.814V179.588C59.2402 189.515 60.0752 196.009 61.7451 199.071C63.5078 202.132 66.3838 203.663 70.373 203.663C72.7852 203.663 75.29 202.503 77.8877 200.184C80.4854 197.772 81.7842 191.371 81.7842 180.98V138.814ZM256.569 8.69971V57.8232L220.666 234H164.724L204.663 49.1953H149.138V8.69971H256.569ZM457.934 106.947H399.348V67.7036C399.348 56.2925 398.698 49.1953 397.399 46.4121C396.193 43.5361 393.457 42.0981 389.189 42.0981C384.365 42.0981 381.303 43.8145 380.004 47.2471C378.706 50.6797 378.056 58.1016 378.056 69.5127V174.161C378.056 185.108 378.706 192.252 380.004 195.592C381.303 198.932 384.226 200.602 388.771 200.602C393.132 200.602 395.961 198.932 397.26 195.592C398.652 192.252 399.348 184.413 399.348 172.074V143.824H457.934V152.591C457.934 175.877 456.264 192.391 452.924 202.132C449.677 211.874 442.395 220.409 431.076 227.738C419.851 235.067 405.981 238.731 389.467 238.731C372.304 238.731 358.156 235.624 347.023 229.408C335.891 223.192 328.515 214.61 324.897 203.663C321.279 192.623 319.47 176.063 319.47 153.983V88.1602C319.47 71.9248 320.026 59.7715 321.14 51.7002C322.253 43.5361 325.546 35.6968 331.02 28.1821C336.586 20.6675 344.24 14.7764 353.981 10.5088C363.815 6.14844 375.087 3.96826 387.797 3.96826C405.053 3.96826 419.294 7.30811 430.52 13.9878C441.745 20.6675 449.121 29.0171 452.646 39.0366C456.171 48.9634 457.934 64.4565 457.934 85.5161V106.947ZM580.117 8.69971L613.654 234H553.676L550.754 193.504H529.741L526.262 234H465.588L495.368 8.69971H580.117ZM549.084 153.565C546.115 128.053 543.146 96.5562 540.178 59.0757C534.24 102.123 530.529 133.619 529.045 153.565H549.084ZM804.443 8.69971V234H753.232V81.8979L732.775 234H696.455L674.885 85.377V234H623.674V8.69971H699.516C701.743 22.2446 704.108 38.2017 706.613 56.5708L714.685 113.905L728.044 8.69971H804.443ZM929.13 8.69971L962.668 234H902.69L899.768 193.504H878.754L875.275 234H814.602L844.382 8.69971H929.13ZM898.098 153.565C895.129 128.053 892.16 96.5562 889.191 59.0757C883.254 102.123 879.543 133.619 878.059 153.565H898.098ZM972.688 8.69971H1014.16C1041.8 8.69971 1060.5 9.7666 1070.24 11.9004C1080.07 14.0342 1088.05 19.5078 1094.17 28.3213C1100.39 37.042 1103.5 51.0044 1103.5 70.2085C1103.5 87.7427 1101.32 99.5249 1096.96 105.555C1092.6 111.585 1084.02 115.204 1071.21 116.41C1082.81 119.286 1090.6 123.136 1094.59 127.96C1098.58 132.784 1101.04 137.237 1101.97 141.319C1102.99 145.309 1103.5 156.395 1103.5 174.579V234H1049.09V159.132C1049.09 147.071 1048.11 139.603 1046.16 136.727C1044.31 133.851 1039.35 132.413 1031.27 132.413V234H972.688V8.69971ZM1031.27 47.2471V97.3447C1037.86 97.3447 1042.45 96.4634 1045.05 94.7007C1047.74 92.8452 1049.09 86.9541 1049.09 77.0273V64.6421C1049.09 57.4985 1047.79 52.8135 1045.19 50.5869C1042.69 48.3604 1038.05 47.2471 1031.27 47.2471ZM1260.19 140.624C1260.19 163.26 1259.64 179.31 1258.52 188.773C1257.5 198.143 1254.16 206.725 1248.5 214.518C1242.94 222.311 1235.38 228.294 1225.82 232.469C1216.26 236.644 1205.13 238.731 1192.42 238.731C1180.36 238.731 1169.51 236.783 1159.86 232.887C1150.3 228.897 1142.6 222.96 1136.76 215.074C1130.91 207.188 1127.43 198.607 1126.32 189.33C1125.21 180.052 1124.65 163.817 1124.65 140.624V102.076C1124.65 79.4395 1125.16 63.436 1126.18 54.0659C1127.29 44.603 1130.63 35.9751 1136.2 28.1821C1141.86 20.3892 1149.47 14.4053 1159.02 10.2305C1168.58 6.05566 1179.71 3.96826 1192.42 3.96826C1204.48 3.96826 1215.29 5.96289 1224.85 9.95215C1234.49 13.8486 1242.24 19.7397 1248.09 27.6255C1253.93 35.5112 1257.41 44.0928 1258.52 53.3701C1259.64 62.6475 1260.19 78.8828 1260.19 102.076V140.624ZM1201.61 66.5903C1201.61 56.1069 1201 49.4272 1199.8 46.5513C1198.68 43.5825 1196.32 42.0981 1192.7 42.0981C1189.64 42.0981 1187.27 43.3042 1185.6 45.7163C1184.03 48.0356 1183.24 54.9937 1183.24 66.5903V171.795C1183.24 184.876 1183.75 192.948 1184.77 196.009C1185.88 199.071 1188.39 200.602 1192.28 200.602C1196.27 200.602 1198.82 198.839 1199.94 195.313C1201.05 191.788 1201.61 183.392 1201.61 170.125V66.5903Z"/>
</mask>
<path d="M138.005 68.5386H81.7842C81.7842 58.0552 81.645 51.4683 81.3667 48.7778C81.1812 45.9946 80.0679 43.6753 78.0269 41.8198C76.0786 39.9644 73.3882 39.0366 69.9556 39.0366C67.0796 39.0366 64.7139 39.918 62.8584 41.6807C61.0029 43.4434 59.936 45.7163 59.6577 48.4995C59.3794 51.2827 59.2402 56.8955 59.2402 65.3379V101.241C62.1162 95.2109 66.3374 90.7114 71.9038 87.7427C77.4702 84.6812 84.3354 83.1504 92.4995 83.1504C102.797 83.1504 111.889 85.9336 119.775 91.5C127.661 97.0664 132.67 103.746 134.804 111.539C136.938 119.332 138.005 129.862 138.005 143.128V161.08C138.005 176.852 137.402 188.587 136.196 196.288C134.99 203.988 131.743 211.131 126.455 217.718C121.259 224.212 114.069 229.269 104.885 232.887C95.793 236.505 85.1704 238.314 73.0171 238.314C57.895 238.314 45.5098 236.227 35.8613 232.052C26.2129 227.877 18.7446 221.893 13.4565 214.1C8.26123 206.214 5.19971 197.958 4.27197 189.33C3.43701 180.702 3.01953 163.956 3.01953 139.093V107.921C3.01953 81.1094 3.39062 63.2041 4.13281 54.2051C4.96777 45.1133 8.21484 36.5317 13.874 28.4604C19.5332 20.3892 27.2334 14.3589 36.9746 10.3696C46.8086 6.2876 58.127 4.24658 70.9297 4.24658C86.7012 4.24658 99.6431 6.79785 109.755 11.9004C119.868 17.0029 127.104 24.1929 131.464 33.4702C135.825 42.7476 138.005 54.437 138.005 68.5386ZM81.7842 138.814C81.7842 130.836 80.9028 125.362 79.1401 122.394C77.3774 119.425 74.5015 117.94 70.5122 117.94C66.6157 117.94 63.7397 119.378 61.8843 122.254C60.1216 125.038 59.2402 130.558 59.2402 138.814V179.588C59.2402 189.515 60.0752 196.009 61.7451 199.071C63.5078 202.132 66.3838 203.663 70.373 203.663C72.7852 203.663 75.29 202.503 77.8877 200.184C80.4854 197.772 81.7842 191.371 81.7842 180.98V138.814ZM256.569 8.69971V57.8232L220.666 234H164.724L204.663 49.1953H149.138V8.69971H256.569ZM457.934 106.947H399.348V67.7036C399.348 56.2925 398.698 49.1953 397.399 46.4121C396.193 43.5361 393.457 42.0981 389.189 42.0981C384.365 42.0981 381.303 43.8145 380.004 47.2471C378.706 50.6797 378.056 58.1016 378.056 69.5127V174.161C378.056 185.108 378.706 192.252 380.004 195.592C381.303 198.932 384.226 200.602 388.771 200.602C393.132 200.602 395.961 198.932 397.26 195.592C398.652 192.252 399.348 184.413 399.348 172.074V143.824H457.934V152.591C457.934 175.877 456.264 192.391 452.924 202.132C449.677 211.874 442.395 220.409 431.076 227.738C419.851 235.067 405.981 238.731 389.467 238.731C372.304 238.731 358.156 235.624 347.023 229.408C335.891 223.192 328.515 214.61 324.897 203.663C321.279 192.623 319.47 176.063 319.47 153.983V88.1602C319.47 71.9248 320.026 59.7715 321.14 51.7002C322.253 43.5361 325.546 35.6968 331.02 28.1821C336.586 20.6675 344.24 14.7764 353.981 10.5088C363.815 6.14844 375.087 3.96826 387.797 3.96826C405.053 3.96826 419.294 7.30811 430.52 13.9878C441.745 20.6675 449.121 29.0171 452.646 39.0366C456.171 48.9634 457.934 64.4565 457.934 85.5161V106.947ZM580.117 8.69971L613.654 234H553.676L550.754 193.504H529.741L526.262 234H465.588L495.368 8.69971H580.117ZM549.084 153.565C546.115 128.053 543.146 96.5562 540.178 59.0757C534.24 102.123 530.529 133.619 529.045 153.565H549.084ZM804.443 8.69971V234H753.232V81.8979L732.775 234H696.455L674.885 85.377V234H623.674V8.69971H699.516C701.743 22.2446 704.108 38.2017 706.613 56.5708L714.685 113.905L728.044 8.69971H804.443ZM929.13 8.69971L962.668 234H902.69L899.768 193.504H878.754L875.275 234H814.602L844.382 8.69971H929.13ZM898.098 153.565C895.129 128.053 892.16 96.5562 889.191 59.0757C883.254 102.123 879.543 133.619 878.059 153.565H898.098ZM972.688 8.69971H1014.16C1041.8 8.69971 1060.5 9.7666 1070.24 11.9004C1080.07 14.0342 1088.05 19.5078 1094.17 28.3213C1100.39 37.042 1103.5 51.0044 1103.5 70.2085C1103.5 87.7427 1101.32 99.5249 1096.96 105.555C1092.6 111.585 1084.02 115.204 1071.21 116.41C1082.81 119.286 1090.6 123.136 1094.59 127.96C1098.58 132.784 1101.04 137.237 1101.97 141.319C1102.99 145.309 1103.5 156.395 1103.5 174.579V234H1049.09V159.132C1049.09 147.071 1048.11 139.603 1046.16 136.727C1044.31 133.851 1039.35 132.413 1031.27 132.413V234H972.688V8.69971ZM1031.27 47.2471V97.3447C1037.86 97.3447 1042.45 96.4634 1045.05 94.7007C1047.74 92.8452 1049.09 86.9541 1049.09 77.0273V64.6421C1049.09 57.4985 1047.79 52.8135 1045.19 50.5869C1042.69 48.3604 1038.05 47.2471 1031.27 47.2471ZM1260.19 140.624C1260.19 163.26 1259.64 179.31 1258.52 188.773C1257.5 198.143 1254.16 206.725 1248.5 214.518C1242.94 222.311 1235.38 228.294 1225.82 232.469C1216.26 236.644 1205.13 238.731 1192.42 238.731C1180.36 238.731 1169.51 236.783 1159.86 232.887C1150.3 228.897 1142.6 222.96 1136.76 215.074C1130.91 207.188 1127.43 198.607 1126.32 189.33C1125.21 180.052 1124.65 163.817 1124.65 140.624V102.076C1124.65 79.4395 1125.16 63.436 1126.18 54.0659C1127.29 44.603 1130.63 35.9751 1136.2 28.1821C1141.86 20.3892 1149.47 14.4053 1159.02 10.2305C1168.58 6.05566 1179.71 3.96826 1192.42 3.96826C1204.48 3.96826 1215.29 5.96289 1224.85 9.95215C1234.49 13.8486 1242.24 19.7397 1248.09 27.6255C1253.93 35.5112 1257.41 44.0928 1258.52 53.3701C1259.64 62.6475 1260.19 78.8828 1260.19 102.076V140.624ZM1201.61 66.5903C1201.61 56.1069 1201 49.4272 1199.8 46.5513C1198.68 43.5825 1196.32 42.0981 1192.7 42.0981C1189.64 42.0981 1187.27 43.3042 1185.6 45.7163C1184.03 48.0356 1183.24 54.9937 1183.24 66.5903V171.795C1183.24 184.876 1183.75 192.948 1184.77 196.009C1185.88 199.071 1188.39 200.602 1192.28 200.602C1196.27 200.602 1198.82 198.839 1199.94 195.313C1201.05 191.788 1201.61 183.392 1201.61 170.125V66.5903Z" stroke="white" stroke-width="6" mask="url(#path-1-outside-1_177_693)"/>
</g>
</svg>
