<?xml version="1.0" encoding="UTF-8" standalone="no"?>
<!DOCTYPE svg PUBLIC "-//W3C//DTD SVG 1.1//EN" "http://www.w3.org/Graphics/SVG/1.1/DTD/svg11.dtd">
<svg width="100%" height="100%" viewBox="0 0 260 241" version="1.1" xmlns="http://www.w3.org/2000/svg" xmlns:xlink="http://www.w3.org/1999/xlink" xml:space="preserve" xmlns:serif="http://www.serif.com/" style="fill-rule:evenodd;clip-rule:evenodd;stroke-linejoin:round;stroke-miterlimit:2;">
    <g transform="matrix(1,0,0,1,2.98047,1.75342)">
        <path d="M135.005,65.539L135.005,68.539L138.005,68.539L138.005,65.539L135.005,65.539ZM78.784,65.539L75.784,65.539L75.784,68.539L78.784,68.539L78.784,65.539ZM78.367,45.778L75.373,45.977L75.377,46.032L75.383,46.087L78.367,45.778ZM75.027,38.82L72.958,40.992L72.983,41.016L73.009,41.04L75.027,38.82ZM56.24,98.241L53.24,98.241L58.948,99.533L56.24,98.241ZM68.904,84.743L70.316,87.39L70.333,87.381L70.35,87.371L68.904,84.743ZM123.455,214.718L121.115,212.84L121.112,212.844L123.455,214.718ZM101.885,229.887L100.785,227.095L100.775,227.099L101.885,229.887ZM10.457,211.1L7.951,212.751L7.963,212.768L7.974,212.785L10.457,211.1ZM1.272,186.33L-1.714,186.619L-1.711,186.65L1.272,186.33ZM1.133,51.205L-1.855,50.931L-1.857,50.959L1.133,51.205ZM33.975,7.37L35.112,10.146L35.125,10.14L33.975,7.37ZM58.884,119.254L56.363,117.628L56.357,117.639L56.35,117.649L58.884,119.254ZM58.745,196.071L56.111,197.507L56.128,197.538L56.145,197.568L58.745,196.071ZM74.888,197.184L76.886,199.422L76.908,199.402L76.929,199.382L74.888,197.184ZM135.005,62.539L78.784,62.539L78.784,68.539L135.005,68.539L135.005,62.539ZM81.784,65.539C81.784,55.11 81.649,48.348 81.351,45.469L75.383,46.087C75.641,48.589 75.784,55.001 75.784,65.539L81.784,65.539ZM81.36,45.578C81.124,42.031 79.667,38.984 77.045,36.6L73.009,41.04C74.469,42.367 75.239,43.959 75.373,45.977L81.36,45.578ZM77.096,36.647C74.448,34.126 70.937,33.037 66.956,33.037L66.956,39.037C69.839,39.037 71.709,39.803 72.958,40.992L77.096,36.647ZM66.956,33.037C63.414,33.037 60.276,34.146 57.792,36.506L61.925,40.856C63.152,39.69 64.746,39.037 66.956,39.037L66.956,33.037ZM57.792,36.506C55.366,38.811 54.015,41.774 53.673,45.201L59.643,45.798C59.857,43.659 60.64,42.076 61.925,40.856L57.792,36.506ZM53.673,45.201C53.377,48.158 53.24,53.921 53.24,62.338L59.24,62.338C59.24,53.87 59.382,48.407 59.643,45.798L53.673,45.201ZM53.24,62.338L53.24,98.241L59.24,98.241L59.24,62.338L53.24,62.338ZM58.948,99.533C61.565,94.045 65.35,90.038 70.316,87.39L67.492,82.096C61.325,85.385 56.667,90.377 53.532,96.95L58.948,99.533ZM70.35,87.371C75.364,84.613 81.7,83.15 89.5,83.15L89.5,77.15C80.971,77.15 73.576,78.749 67.458,82.114L70.35,87.371ZM89.5,83.15C99.222,83.15 107.7,85.766 115.045,90.951L118.505,86.049C110.078,80.101 100.373,77.15 89.5,77.15L89.5,83.15ZM115.045,90.951C122.477,96.198 126.995,102.334 128.911,109.331L134.698,107.747C132.346,99.158 126.844,91.935 118.505,86.049L115.045,90.951ZM128.911,109.331C130.943,116.754 132.005,126.982 132.005,140.128L138.005,140.128C138.005,126.742 136.933,115.91 134.698,107.747L128.911,109.331ZM132.005,140.128L132.005,158.08L138.005,158.08L138.005,140.128L132.005,140.128ZM132.005,158.08C132.005,173.82 131.4,185.363 130.232,192.823L136.16,193.752C137.403,185.811 138.005,173.883 138.005,158.08L132.005,158.08ZM130.232,192.823C129.114,199.963 126.104,206.627 121.115,212.84L125.794,216.596C131.382,209.636 134.866,202.013 136.16,193.752L130.232,192.823ZM121.112,212.844C116.3,218.859 109.574,223.633 100.785,227.095L102.984,232.678C112.565,228.904 120.218,223.566 125.797,216.592L121.112,212.844ZM100.775,227.099C92.111,230.548 81.879,232.314 70.017,232.314L70.017,238.314C82.462,238.314 93.475,236.462 102.994,232.674L100.775,227.099ZM70.017,232.314C55.139,232.314 43.198,230.256 34.053,226.298L31.67,231.805C41.822,236.198 54.651,238.314 70.017,238.314L70.017,232.314ZM34.053,226.298C24.865,222.323 17.871,216.683 12.939,209.416L7.974,212.785C13.619,221.103 21.561,227.431 31.67,231.805L34.053,226.298ZM12.962,209.45C8.006,201.927 5.127,194.121 4.255,186.009L-1.711,186.65C-0.728,195.794 2.517,204.502 7.951,212.751L12.962,209.45ZM4.258,186.041C3.439,177.579 3.02,160.975 3.02,136.093L-2.98,136.093C-2.98,160.937 -2.565,177.824 -1.714,186.619L4.258,186.041ZM3.02,136.093L3.02,104.921L-2.98,104.921L-2.98,136.093L3.02,136.093ZM3.02,104.921C3.02,78.09 3.392,60.307 4.123,51.452L-1.857,50.959C-2.611,60.101 -2.98,78.129 -2.98,104.921L3.02,104.921ZM4.12,51.479C4.904,42.95 7.947,34.861 13.33,27.183L8.418,23.738C2.483,32.202 -0.968,41.277 -1.855,50.931L4.12,51.479ZM13.33,27.183C18.637,19.614 25.864,13.933 35.112,10.146L32.838,4.593C22.603,8.785 14.429,15.164 8.418,23.738L13.33,27.183ZM35.125,10.14C44.528,6.237 55.444,4.247 67.93,4.247L67.93,-1.753C54.81,-1.753 43.089,0.338 32.825,4.599L35.125,10.14ZM67.93,4.247C83.405,4.247 95.842,6.754 105.404,11.579L108.107,6.222C97.444,0.842 83.997,-1.753 67.93,-1.753L67.93,4.247ZM105.404,11.579C114.984,16.413 121.704,23.14 125.749,31.746L131.179,29.194C126.504,19.246 118.751,11.593 108.107,6.222L105.404,11.579ZM125.749,31.746C129.865,40.504 132.005,51.722 132.005,65.539L138.005,65.539C138.005,51.152 135.784,38.991 131.179,29.194L125.749,31.746ZM81.784,135.814C81.784,131.728 81.559,128.195 81.085,125.248C80.616,122.337 79.875,119.808 78.72,117.862L73.561,120.925C74.168,121.948 74.749,123.64 75.161,126.202C75.568,128.729 75.784,131.922 75.784,135.814L81.784,135.814ZM78.72,117.862C76.324,113.826 72.365,111.94 67.512,111.94L67.512,117.94C70.638,117.94 72.431,119.023 73.561,120.925L78.72,117.862ZM67.512,111.94C62.763,111.94 58.856,113.765 56.363,117.628L61.405,120.881C62.624,118.992 64.469,117.94 67.512,117.94L67.512,111.94ZM56.35,117.649C55.149,119.545 54.405,122.088 53.939,125.009C53.464,127.98 53.24,131.595 53.24,135.814L59.24,135.814C59.24,131.777 59.457,128.504 59.864,125.955C60.279,123.355 60.857,121.747 61.419,120.86L56.35,117.649ZM53.24,135.814L53.24,176.588L59.24,176.588L59.24,135.814L53.24,135.814ZM53.24,176.588C53.24,181.622 53.451,185.866 53.891,189.287C54.322,192.637 55.004,195.476 56.111,197.507L61.379,194.634C60.817,193.604 60.246,191.665 59.842,188.521C59.447,185.448 59.24,181.482 59.24,176.588L53.24,176.588ZM56.145,197.568C58.522,201.695 62.478,203.663 67.373,203.663L67.373,197.663C64.29,197.663 62.494,196.569 61.345,194.574L56.145,197.568ZM67.373,203.663C70.791,203.663 73.979,202.017 76.886,199.422L72.89,194.946C70.601,196.99 68.779,197.663 67.373,197.663L67.373,203.663ZM76.929,199.382C78.937,197.518 80.067,194.537 80.75,191.171C81.456,187.694 81.784,183.273 81.784,177.98L75.784,177.98C75.784,183.077 75.463,187.053 74.87,189.977C74.254,193.012 73.437,194.438 72.846,194.986L76.929,199.382ZM81.784,177.98L81.784,135.814L75.784,135.814L75.784,177.98L81.784,177.98ZM253.569,5.7L256.569,5.7L256.569,2.7L253.569,2.7L253.569,5.7ZM253.569,54.823L256.509,55.422L256.569,55.126L256.569,54.823L253.569,54.823ZM217.666,231L217.666,234L220.116,234L220.606,231.599L217.666,231ZM161.724,231L158.791,230.366L158.006,234L161.724,234L161.724,231ZM201.663,46.195L204.595,46.829L205.38,43.195L201.663,43.195L201.663,46.195ZM146.138,46.195L143.138,46.195L143.138,49.195L146.138,49.195L146.138,46.195ZM146.138,5.7L146.138,2.7L143.138,2.7L143.138,5.7L146.138,5.7ZM250.569,5.7L250.569,54.823L256.569,54.823L256.569,5.7L250.569,5.7ZM250.63,54.224L214.726,230.401L220.606,231.599L256.509,55.422L250.63,54.224ZM217.666,228L161.724,228L161.724,234L217.666,234L217.666,228ZM164.656,231.634L204.595,46.829L198.73,45.562L158.791,230.366L164.656,231.634ZM201.663,43.195L146.138,43.195L146.138,49.195L201.663,49.195L201.663,43.195ZM149.138,46.195L149.138,5.7L143.138,5.7L143.138,46.195L149.138,46.195ZM146.138,8.7L253.569,8.7L253.569,2.7L146.138,2.7L146.138,8.7Z" style="fill:white;fill-opacity:0.2;fill-rule:nonzero;"/>
    </g>
</svg>
