<svg width="393" height="253" viewBox="0 0 393 253" fill="none" xmlns="http://www.w3.org/2000/svg">
<path opacity="0.2" fill-rule="evenodd" clip-rule="evenodd" d="M213.267 73.8548H119.4V70.8475C119.4 59.7308 119.184 52.9561 118.79 50.3056L118.782 50.251L118.777 50.1962C118.569 48.0258 117.376 46.3075 115.119 44.8794L115.082 44.8559L115.045 44.8319C113.1 43.542 110.202 42.7247 105.79 42.7247C102.389 42.7247 99.9147 43.4258 98.0065 44.6876C96.0162 46.0037 94.807 47.7103 94.4778 50.0017C94.0809 52.7642 93.8664 58.536 93.8664 67.4702V95.4163C97.5039 92.6137 101.778 90.2912 106.686 88.4668C115.914 84.9387 127.074 83.2585 139.964 83.2585C156.404 83.2585 171.07 86.3631 183.803 92.6193C196.409 98.8136 204.713 106.406 208.261 115.427C211.642 124.021 213.267 135.435 213.267 149.554V168.496C213.267 185.17 212.355 197.746 210.472 206.112C208.517 214.8 203.254 222.818 194.806 230.143C186.379 237.473 174.816 243.089 160.327 247.063C145.932 251.049 129.269 253 110.431 253C87.1552 253 67.7406 250.768 52.39 246.145C37.1008 241.54 25.0966 234.881 16.567 226.131L16.5504 226.114L16.5342 226.097C8.31417 217.412 3.40961 208.248 1.92335 198.626L1.9209 198.611L1.91868 198.595C0.629746 189.324 0 171.512 0 145.296V112.403C0 84.1319 0.560146 65.1151 1.70226 55.4758L1.70391 55.4619L1.70574 55.4479C3.04578 45.2911 8.26179 35.7417 17.2374 26.831C26.3221 17.812 38.6733 11.0999 54.1475 6.68771C69.6722 2.20336 87.4069 0 107.266 0C131.601 0 151.947 2.73602 168.069 8.39865C184.164 14.0518 195.878 22.1028 202.941 32.5646C209.903 42.875 213.267 55.6819 213.267 70.8475V73.8548ZM55.7933 9.46826C41.0265 13.6777 29.3536 20.0408 20.7748 28.5575C12.196 37.0742 7.27371 46.1294 6.00799 55.723C4.8829 65.2186 4.32035 84.1121 4.32035 112.403V145.296C4.32035 171.531 4.95321 189.201 6.21894 198.305C7.62531 207.409 12.2663 216.122 20.1419 224.443C28.1582 232.666 39.4795 238.98 54.1056 243.385C68.7318 247.79 87.5068 249.993 110.431 249.993C128.854 249.993 144.957 248.084 158.739 244.266C172.662 240.448 183.561 235.113 191.437 228.26C199.453 221.31 204.376 213.772 206.204 205.647C208.032 197.522 208.946 185.138 208.946 168.496V149.554C208.946 135.555 207.329 124.444 204.094 116.221C200.86 107.998 193.265 100.95 181.311 95.0762C169.357 89.2026 155.575 86.2658 139.964 86.2658C127.588 86.2658 117.181 87.881 108.743 91.1115C102.758 93.3332 97.7995 96.3674 93.8664 100.214C92.2538 101.791 90.8137 103.505 89.546 105.355V67.4702C89.546 58.5619 89.757 52.6393 90.1789 49.7025C90.6008 46.7657 92.2181 44.3673 95.0308 42.5073C97.8436 40.6474 101.43 39.7174 105.79 39.7174C110.993 39.7174 115.072 40.6963 118.025 42.6542C121.119 44.612 122.807 47.0594 123.088 49.9962C123.51 52.8351 123.721 59.7855 123.721 70.8475H208.946C208.946 69.8333 208.931 68.8308 208.9 67.8402C208.48 54.298 205.191 42.9658 199.031 33.8438C192.422 24.0544 181.452 16.4677 166.123 11.0835C150.793 5.69936 131.174 3.00729 107.266 3.00729C87.8584 3.00729 70.7007 5.16095 55.7933 9.46826ZM118.453 134.834C117.826 132.121 116.939 130.314 115.998 129.21C114.238 127.147 111.438 125.983 106.633 125.983C101.964 125.983 99.091 127.109 97.1952 129.147C96.3218 130.112 95.4433 131.831 94.8144 134.573C94.1949 137.274 93.8664 140.737 93.8664 145.002V188.026C93.8664 193.193 94.1797 197.386 94.7804 200.638C95.3887 203.932 96.2481 205.994 97.1132 207.114C98.9024 209.256 101.703 210.422 106.422 210.422C108.622 210.422 111.424 209.691 114.899 207.538C115.845 206.914 117.082 205.368 118.01 202.186C118.914 199.085 119.4 194.878 119.4 189.495V145.002C119.4 140.889 119.073 137.512 118.453 134.834ZM117.814 209.758C113.876 212.206 110.079 213.429 106.422 213.429C100.375 213.429 96.0153 211.814 93.3432 208.584C90.8117 205.353 89.546 198.501 89.546 188.026V145.002C89.546 136.289 90.8821 130.465 93.5541 127.528C96.3669 124.493 100.727 122.976 106.633 122.976C112.681 122.976 117.04 124.542 119.713 127.675C122.385 130.807 123.721 136.583 123.721 145.002V189.495C123.721 200.459 121.752 207.213 117.814 209.758ZM393 4.69889V59.8441L337.782 248.448H244.096L304.64 53.444H221.502V4.69889H393ZM309.994 50.4367L249.45 245.441H334.253L388.68 59.5408V7.70618H225.823V50.4367H309.994Z" fill="white"/>
</svg>
