<svg width="20" height="20" viewBox="0 0 20 20" fill="none" xmlns="http://www.w3.org/2000/svg">
<path fill-rule="evenodd" clip-rule="evenodd" d="M10 1.48148C5.29535 1.48148 1.48148 5.29535 1.48148 10C1.48148 14.7046 5.29535 18.5185 10 18.5185C14.7046 18.5185 18.5185 14.7046 18.5185 10C18.5185 5.29535 14.7046 1.48148 10 1.48148ZM0 10C0 4.47715 4.47715 0 10 0C15.5228 0 20 4.47715 20 10C20 15.5228 15.5228 20 10 20C4.47715 20 0 15.5228 0 10Z" fill="white"/>
<path d="M11.0682 11.5879V7.84392H12.7602V11.5879H11.0682ZM9.14821 13.9999V12.6799H10.0962V13.9999H9.14821ZM9.14821 6.73992V5.41992H10.0962V6.73992H9.14821ZM9.14821 6.73992V5.41992H10.0962V6.73992H9.14821ZM12.7602 7.84392H11.0682C11.0682 7.49192 10.9802 7.21992 10.8042 7.02792C10.6362 6.83592 10.4002 6.73992 10.0962 6.73992V5.41992C10.6082 5.41992 11.0642 5.52392 11.4642 5.73192C11.8642 5.93992 12.1802 6.22792 12.4122 6.59592C12.6442 6.96392 12.7602 7.37992 12.7602 7.84392ZM12.7602 11.5639C12.7602 12.0359 12.6442 12.4559 12.4122 12.8239C12.1802 13.1839 11.8642 13.4719 11.4642 13.6879C11.0642 13.8959 10.6082 13.9999 10.0962 13.9999V12.6799C10.4002 12.6799 10.6362 12.5839 10.8042 12.3919C10.9802 12.1919 11.0682 11.9159 11.0682 11.5639H12.7602ZM7.72021 13.9999V5.41992H9.41221V13.9999H7.72021Z" fill="white"/>
</svg>
