<svg width="35" height="30" viewBox="0 0 35 30" fill="none" xmlns="http://www.w3.org/2000/svg">
<path fill-rule="evenodd" clip-rule="evenodd" d="M30.4015 4.61539H25.4469L24.87 2.88462C24.5919 2.04423 24.0558 1.313 23.3379 0.795072C22.6201 0.277139 21.7571 -0.00109151 20.8719 3.21811e-06H13.7435C12.8585 -0.000672996 11.9959 0.277738 11.2783 0.795629C10.5607 1.31352 10.0247 2.04451 9.74654 2.88462L9.16846 4.61539H4.21385C3.09664 4.61661 2.02554 5.06096 1.23556 5.85094C0.445571 6.64093 0.00122166 7.71203 0 8.82923V25.7908C0.00244224 26.9072 0.447331 27.9771 1.23718 28.7661C2.02704 29.5551 3.09744 29.9988 4.21385 30H30.4062C31.5226 29.9976 32.5925 29.5527 33.3815 28.7628C34.1705 27.973 34.6142 26.9026 34.6154 25.7862V8.82462C34.6129 7.70821 34.1681 6.6383 33.3782 5.84931C32.5883 5.06032 31.5179 4.61661 30.4015 4.61539ZM32.3077 25.7862C32.3071 26.2915 32.1061 26.776 31.7487 27.1333C31.3914 27.4907 30.9069 27.6917 30.4015 27.6923H4.21385C3.70849 27.6917 3.22401 27.4907 2.86667 27.1333C2.50933 26.776 2.3083 26.2915 2.30769 25.7862V8.82462C2.30952 8.32006 2.51108 7.83676 2.86829 7.48042C3.2255 7.12407 3.70929 6.92369 4.21385 6.92308H10.0004C10.2425 6.9229 10.4783 6.84658 10.6746 6.70495C10.8709 6.56331 11.0177 6.36351 11.0942 6.13385L11.9354 3.61039C12.0617 3.23083 12.3044 2.9007 12.6289 2.66686C12.9535 2.43302 13.3434 2.30735 13.7435 2.3077H20.8719C21.2721 2.30726 21.6623 2.43303 21.9869 2.66711C22.3115 2.90119 22.554 3.23167 22.68 3.61154L23.5212 6.13385C23.5976 6.36351 23.7444 6.56331 23.9407 6.70495C24.137 6.84658 24.3729 6.9229 24.615 6.92308H30.4015C30.9069 6.92369 31.3914 7.12471 31.7487 7.48205C32.1061 7.83939 32.3071 8.32388 32.3077 8.82923V25.7862ZM17.3081 8.07715C15.5966 8.07715 13.9234 8.58469 12.5003 9.53559C11.0772 10.4865 9.96802 11.838 9.31304 13.4193C8.65805 15.0006 8.48667 16.7406 8.82058 18.4193C9.15449 20.098 9.97869 21.6399 11.189 22.8502C12.3992 24.0604 13.9412 24.8846 15.6199 25.2186C17.2985 25.5525 19.0385 25.3811 20.6198 24.7261C22.2011 24.0711 23.5527 22.9619 24.5036 21.5388C25.4545 20.1157 25.962 18.4426 25.962 16.731C25.9595 14.4366 25.047 12.2369 23.4246 10.6145C21.8023 8.99212 19.6025 8.07959 17.3081 8.07715ZM17.3081 23.0771C16.053 23.0771 14.826 22.705 13.7824 22.0076C12.7388 21.3103 11.9254 20.3192 11.4451 19.1596C10.9647 18 10.8391 16.724 11.0839 15.4929C11.3288 14.2619 11.9332 13.1311 12.8207 12.2436C13.7083 11.3561 14.839 10.7516 16.0701 10.5068C17.3011 10.2619 18.5771 10.3876 19.7367 10.8679C20.8963 11.3482 21.8875 12.1616 22.5848 13.2053C23.2821 14.2489 23.6543 15.4758 23.6543 16.731C23.6525 18.4135 22.9833 20.0266 21.7935 21.2164C20.6038 22.4061 18.9907 23.0753 17.3081 23.0771ZM29.9991 10.3853C29.9991 11.0225 29.4825 11.5391 28.8453 11.5391C28.208 11.5391 27.6914 11.0225 27.6914 10.3853C27.6914 9.74804 28.208 9.23145 28.8453 9.23145C29.4825 9.23145 29.9991 9.74804 29.9991 10.3853Z" fill="#282828"/>
</svg>
