<svg width="35" height="35" viewBox="0 0 35 35" fill="none" xmlns="http://www.w3.org/2000/svg">
<path d="M21.8743 5.83301V10.208C21.8743 12.6242 19.9156 14.583 17.4993 14.583C15.0831 14.583 13.1243 12.6242 13.1243 10.208V5.83301H11.666V10.208C11.6696 13.4281 14.2792 16.0377 17.4993 16.0413C20.7195 16.0377 23.329 13.4281 23.3326 10.208V5.83301H21.8743Z" fill="#282828"/>
<path d="M25.5492 19.1235L20.4173 16.4621V14.583H18.959V16.9054C18.959 17.1778 19.1108 17.4276 19.3528 17.5529L24.8784 20.4163C26.5997 21.1916 27.7073 22.9034 27.709 24.7913V33.5413H7.29233V24.7913C7.29404 22.9034 8.40159 21.1916 10.123 20.4163L15.6486 17.5529C15.8905 17.4276 16.0423 17.1778 16.0423 16.9054V14.583H14.584V16.4621L9.45214 19.1235C7.24037 20.1414 5.82629 22.3566 5.83402 24.7913V34.2705C5.83395 34.6731 6.16043 34.9996 6.56314 34.9996H28.4381C28.8408 34.9996 29.1673 34.6731 29.1673 34.2704V24.7913C29.175 22.3566 27.7609 20.1414 25.5492 19.1235Z" fill="#282828"/>
<path d="M10.9368 29.167H9.47852V34.2712H10.9368V29.167Z" fill="#282828"/>
<path d="M25.5208 29.167H24.0625V34.2712H25.5208V29.167Z" fill="#282828"/>
<path d="M24.7911 0H10.2077C9.805 0 9.47852 0.326484 9.47852 0.729189C9.47852 1.84557 9.95614 3.84275 11.666 4.28606V5.83338C11.666 6.23608 11.9925 6.56257 12.3952 6.56257H22.6035C23.0062 6.56257 23.3327 6.23608 23.3327 5.83338V4.28606C25.0426 3.84275 25.5202 1.84557 25.5202 0.729189C25.5202 0.326484 25.1938 0 24.7911 0ZM22.6036 2.91669C22.2009 2.91669 21.8744 3.24317 21.8744 3.64588V5.10419H13.1244V3.64581C13.1244 3.24311 12.7979 2.91662 12.3952 2.91662C11.502 2.91662 11.1556 2.09556 11.0215 1.45831H23.9773C23.8431 2.09562 23.4968 2.91669 22.6036 2.91669Z" fill="#282828"/>
<path d="M20.4167 5.83301C20.4167 7.04112 19.4373 8.02051 18.2292 8.02051H16.7709C15.5628 8.02051 14.5834 7.04112 14.5834 5.83301H13.125C13.1274 7.84558 14.7583 9.47643 16.7708 9.47882H18.2291C20.2417 9.47643 21.8725 7.84551 21.8749 5.83301H20.4167Z" fill="#282828"/>
<path d="M19.9799 16.917L17.5007 18.7764L15.0215 16.917L14.1465 18.0837L17.0632 20.2712C17.1894 20.3659 17.3429 20.417 17.5007 20.417C17.6584 20.417 17.812 20.3658 17.9382 20.2712L20.8549 18.0837L19.9799 16.917Z" fill="#282828"/>
<path d="M17.5 18.958C16.2919 18.958 15.3125 19.9374 15.3125 21.1455C15.3125 21.995 15.995 24.7913 17.5 24.7913C19.005 24.7913 19.6875 21.9949 19.6875 21.1455C19.6875 19.9374 18.7081 18.958 17.5 18.958ZM17.5 23.2718C17.0818 22.6357 16.831 21.9044 16.7708 21.1455C16.7708 20.7428 17.0973 20.4163 17.5 20.4163C17.9027 20.4163 18.2292 20.7428 18.2292 21.1455C18.169 21.9044 17.9182 22.6357 17.5 23.2718Z" fill="#282828"/>
<path d="M16.8174 23.8066C16.7263 24.0495 14.584 29.815 14.584 34.2709H16.0423C16.0423 30.0818 18.162 24.3754 18.1839 24.317L16.8174 23.8066Z" fill="#282828"/>
<path d="M18.1828 23.8076L16.8164 24.3181C16.8383 24.3749 18.958 30.0763 18.958 34.2704H20.4163C20.4163 29.8145 18.274 24.049 18.1828 23.8076Z" fill="#282828"/>
</svg>
