<svg width="20" height="12" viewBox="0 0 20 12" fill="none" xmlns="http://www.w3.org/2000/svg">
<path d="M14.9762 0.6875H5.17717C4.78998 0.6875 4.47607 1.0014 4.47607 1.38859C4.47607 4.47677 6.98852 6.98922 10.0767 6.98922C13.1649 6.98922 15.6773 4.47677 15.6773 1.38859C15.6773 1.0014 15.3634 0.6875 14.9762 0.6875ZM10.0767 5.58703C8.00052 5.58703 6.27144 4.0722 5.93678 2.08969H14.2166C13.8821 4.0722 12.153 5.58703 10.0767 5.58703Z" fill="white"/>
<path d="M19.4916 0.6875H17.1495C16.8687 0.6875 16.6411 0.938144 16.6411 1.24731C16.6411 1.55647 16.8687 1.80712 17.1495 1.80712H19.4916C19.7723 1.80712 20 1.55647 20 1.24731C20 0.938144 19.7723 0.6875 19.4916 0.6875Z" fill="white"/>
<path d="M2.85047 0.6875H0.508372C0.227615 0.6875 0 0.938144 0 1.24731C0 1.55647 0.227615 1.80712 0.508372 1.80712H2.85047C3.13123 1.80712 3.35885 1.55647 3.35885 1.24731C3.35885 0.938144 3.13123 0.6875 2.85047 0.6875Z" fill="white"/>
<path d="M11.1963 8.26476L11.1963 10.6069C11.1963 10.8876 10.9456 11.1152 10.6365 11.1152C10.3273 11.1152 10.0767 10.8876 10.0767 10.6069L10.0767 8.26476C10.0767 7.984 10.3273 7.75639 10.6365 7.75639C10.9456 7.75639 11.1963 7.984 11.1963 8.26476Z" fill="white"/>
<path d="M4.81865 6.15482L3.14782 7.79609C2.94753 7.99284 2.60951 7.97354 2.39286 7.75298C2.17621 7.53243 2.16294 7.19412 2.36323 6.99737L4.03406 5.3561C4.23435 5.15935 4.57237 5.17865 4.78902 5.39921C5.00567 5.61976 5.01894 5.95807 4.81865 6.15482Z" fill="white"/>
<path d="M15.363 6.15482L17.0338 7.79609C17.2341 7.99284 17.5721 7.97354 17.7888 7.75298C18.0054 7.53243 18.0187 7.19412 17.8184 6.99737L16.1476 5.3561C15.9473 5.15935 15.6093 5.17865 15.3926 5.39921C15.176 5.61976 15.1627 5.95807 15.363 6.15482Z" fill="white"/>
</svg>
