<svg width="25" height="17" viewBox="0 0 25 17" fill="none" xmlns="http://www.w3.org/2000/svg">
<path fill-rule="evenodd" clip-rule="evenodd" d="M23.5 0H1.5C0.672998 0 0 0.672998 0 1.5V4.5V6.5V15.5C0 16.327 0.672998 17 1.5 17H23.5C24.327 17 25 16.327 25 15.5V6.5V4.5V1.5C25 0.672998 24.327 0 23.5 0ZM24 4V1.5C24 1.22397 23.775 1 23.5 1H1.5C1.22402 1 1 1.22397 1 1.5V4H24ZM1 7H24V15.5C24 15.775 23.775 16 23.5 16H1.5C1.22402 16 1 15.775 1 15.5V7ZM13.501 9.99805H4.50098C4.225 9.99805 4.00098 10.2221 4.00098 10.498C4.00098 10.774 4.225 10.998 4.50098 10.998H13.501C13.777 10.998 14.001 10.774 14.001 10.498C14.001 10.222 13.777 9.99805 13.501 9.99805ZM4.50098 11.9999H9.50098C9.77696 11.9999 10.001 12.2239 10.001 12.4999C10.001 12.7759 9.77696 12.9999 9.50098 12.9999H4.50098C4.22501 12.9999 4.00098 12.7759 4.00098 12.4999C4.00098 12.2239 4.22501 11.9999 4.50098 11.9999Z" fill="white"/>
</svg>
