<svg width="21" height="20" viewBox="0 0 21 20" fill="none" xmlns="http://www.w3.org/2000/svg">
<path d="M4.05078 14.1998V3.47496H5.82076L10.6207 3.45996C12.5607 3.45996 14.0657 3.91496 15.1356 4.82494C16.2056 5.73493 16.7406 7.06991 16.7406 8.82989C16.7406 10.5899 16.2056 11.9249 15.1356 12.8348C14.0657 13.7448 12.5607 14.1998 10.6207 14.1998H4.05078ZM10.4557 5.40994H6.45075V12.2498H10.4557C11.7157 12.2498 12.6707 11.9749 13.3207 11.4249C13.9707 10.8749 14.2956 10.0099 14.2956 8.82989C14.2956 7.63991 13.9707 6.77492 13.3207 6.23493C12.6707 5.68493 11.7157 5.40994 10.4557 5.40994Z" fill="white"/>
<path fill-rule="evenodd" clip-rule="evenodd" d="M1.99997 1.49998H18.1998C18.4759 1.49998 18.6998 1.72383 18.6998 1.99997V15.7998C18.6998 16.0759 18.4759 16.2998 18.1998 16.2998H12.3313L13.893 17.7998H18.1998C19.3043 17.7998 20.1997 16.9044 20.1997 15.7998V1.99997C20.1997 0.895419 19.3043 0 18.1998 0H1.99997C0.895419 0 0 0.895418 0 1.99997V15.7998C0 16.9044 0.895418 17.7998 1.99997 17.7998H6.36564L8.03001 16.2998H1.99997C1.72384 16.2998 1.49998 16.0759 1.49998 15.7998V1.99997C1.49998 1.72384 1.72383 1.49998 1.99997 1.49998Z" fill="white"/>
<path d="M10.0757 15.5996L12.8037 18.8996H7.3478L10.0757 15.5996Z" fill="white"/>
</svg>
