<svg width="20" height="20" viewBox="0 0 20 20" fill="none" xmlns="http://www.w3.org/2000/svg">
<path fill-rule="evenodd" clip-rule="evenodd" d="M1.48148 10C1.48148 5.29535 5.29535 1.48148 10 1.48148C14.7046 1.48148 18.5185 5.29535 18.5185 10C18.5185 14.7046 14.7046 18.5185 10 18.5185C5.29535 18.5185 1.48148 14.7046 1.48148 10ZM10 0C4.47715 0 0 4.47715 0 10C0 15.5228 4.47715 20 10 20C15.5228 20 20 15.5228 20 10C20 4.47715 15.5228 0 10 0ZM13.9462 7.71408V13.7662C14.4513 13.9454 14.8142 14.4278 14.8142 14.9936C14.8142 15.7116 14.2301 16.2957 13.5122 16.2957C12.7942 16.2957 12.2101 15.7116 12.2101 14.9936C12.2101 14.4278 12.573 13.9453 13.0781 13.7662V11.1742H9.69271V13.7662C10.1979 13.9454 10.5608 14.4278 10.5608 14.9936C10.5608 15.7116 9.97665 16.2957 9.25868 16.2957C8.54071 16.2957 7.9566 15.7116 7.9566 14.9936C7.9566 14.4278 8.31949 13.9453 8.82465 13.7662V11.1742H5.87326C5.15529 11.1742 4.57118 10.59 4.57118 9.87207V7.71408C4.06602 7.5349 3.70312 7.05247 3.70312 6.48665C3.70312 5.76868 4.28724 5.18457 5.00521 5.18457C5.72318 5.18457 6.30729 5.76868 6.30729 6.48665C6.30729 7.05247 5.9444 7.53492 5.43924 7.71408V9.87207C5.43924 10.1114 5.63394 10.3061 5.87326 10.3061H8.82465V7.71408C8.31949 7.5349 7.9566 7.05247 7.9566 6.48665C7.9566 5.76868 8.54071 5.18457 9.25868 5.18457C9.97665 5.18457 10.5608 5.76868 10.5608 6.48665C10.5608 7.05247 10.1979 7.53492 9.69271 7.71408V10.3061H13.0781V7.71408C12.573 7.5349 12.2101 7.05247 12.2101 6.48665C12.2101 5.76868 12.7942 5.18457 13.5122 5.18457C14.2301 5.18457 14.8142 5.76868 14.8142 6.48665C14.8142 7.05247 14.4513 7.53492 13.9462 7.71408ZM9.69271 6.48665C9.69271 6.24733 9.498 6.05263 9.25868 6.05263C9.01936 6.05263 8.82465 6.24733 8.82465 6.48665C8.82465 6.72598 9.01936 6.92068 9.25868 6.92068C9.498 6.92068 9.69271 6.72598 9.69271 6.48665ZM5.43924 6.48665C5.43924 6.24733 5.24453 6.05263 5.00521 6.05263C4.76589 6.05263 4.57118 6.24733 4.57118 6.48665C4.57118 6.72598 4.76589 6.92068 5.00521 6.92068C5.24453 6.92068 5.43924 6.72598 5.43924 6.48665ZM8.82465 14.9936C8.82465 15.2329 9.01936 15.4276 9.25868 15.4276C9.498 15.4276 9.69271 15.2329 9.69271 14.9936C9.69271 14.7543 9.498 14.5596 9.25868 14.5596C9.01936 14.5596 8.82465 14.7543 8.82465 14.9936ZM13.9462 6.48665C13.9462 6.24733 13.7515 6.05263 13.5122 6.05263C13.2728 6.05263 13.0781 6.24733 13.0781 6.48665C13.0781 6.72598 13.2728 6.92068 13.5122 6.92068C13.7515 6.92068 13.9462 6.72598 13.9462 6.48665ZM13.0781 14.9936C13.0781 15.2329 13.2728 15.4276 13.5122 15.4276C13.7515 15.4276 13.9462 15.2329 13.9462 14.9936C13.9462 14.7543 13.7515 14.5596 13.5122 14.5596C13.2728 14.5596 13.0781 14.7543 13.0781 14.9936Z" fill="white"/>
</svg>
