<svg width="30" height="30" viewBox="0 0 30 30" fill="none" xmlns="http://www.w3.org/2000/svg">
<path fill-rule="evenodd" clip-rule="evenodd" d="M2.22222 15C2.22222 7.94303 7.94303 2.22222 15 2.22222C22.057 2.22222 27.7778 7.94303 27.7778 15C27.7778 22.057 22.057 27.7778 15 27.7778C7.94303 27.7778 2.22222 22.057 2.22222 15ZM15 0C6.71573 0 0 6.71573 0 15C0 23.2843 6.71573 30 15 30C23.2843 30 30 23.2843 30 15C30 6.71573 23.2843 0 15 0ZM20.9193 11.5716V20.6497C21.677 20.9185 22.2214 21.6422 22.2214 22.4909C22.2214 23.5678 21.3452 24.444 20.2682 24.444C19.1913 24.444 18.3151 23.5678 18.3151 22.4909C18.3151 21.6422 18.8594 20.9185 19.6172 20.6497V16.7617H14.5391V20.6497C15.2968 20.9185 15.8411 21.6422 15.8411 22.4909C15.8411 23.5678 14.965 24.444 13.888 24.444C12.8111 24.444 11.9349 23.5678 11.9349 22.4909C11.9349 21.6422 12.4792 20.9185 13.237 20.6497V16.7617H8.8099C7.73294 16.7617 6.85677 15.8855 6.85677 14.8086V11.5716C6.09902 11.3028 5.55469 10.5792 5.55469 9.73047C5.55469 8.65352 6.43086 7.77734 7.50781 7.77734C8.58477 7.77734 9.46094 8.65352 9.46094 9.73047C9.46094 10.5792 8.9166 11.3029 8.15885 11.5716V14.8086C8.15885 15.1676 8.45091 15.4596 8.8099 15.4596H13.237V11.5716C12.4792 11.3028 11.9349 10.5792 11.9349 9.73047C11.9349 8.65352 12.8111 7.77734 13.888 7.77734C14.965 7.77734 15.8411 8.65352 15.8411 9.73047C15.8411 10.5792 15.2968 11.3029 14.5391 11.5716V15.4596H19.6172V11.5716C18.8594 11.3028 18.3151 10.5792 18.3151 9.73047C18.3151 8.65352 19.1913 7.77734 20.2682 7.77734C21.3452 7.77734 22.2214 8.65352 22.2214 9.73047C22.2214 10.5792 21.677 11.3029 20.9193 11.5716ZM14.5391 9.73047C14.5391 9.37148 14.247 9.07943 13.888 9.07943C13.529 9.07943 13.237 9.37148 13.237 9.73047C13.237 10.0895 13.529 10.3815 13.888 10.3815C14.247 10.3815 14.5391 10.0895 14.5391 9.73047ZM8.15885 9.73047C8.15885 9.37148 7.8668 9.07943 7.50781 9.07943C7.14883 9.07943 6.85677 9.37148 6.85677 9.73047C6.85677 10.0895 7.14883 10.3815 7.50781 10.3815C7.8668 10.3815 8.15885 10.0895 8.15885 9.73047ZM13.237 22.4909C13.237 22.8499 13.529 23.1419 13.888 23.1419C14.247 23.1419 14.5391 22.8499 14.5391 22.4909C14.5391 22.1319 14.247 21.8398 13.888 21.8398C13.529 21.8398 13.237 22.1319 13.237 22.4909ZM20.9193 9.73047C20.9193 9.37148 20.6272 9.07943 20.2682 9.07943C19.9092 9.07943 19.6172 9.37148 19.6172 9.73047C19.6172 10.0895 19.9092 10.3815 20.2682 10.3815C20.6272 10.3815 20.9193 10.0895 20.9193 9.73047ZM19.6172 22.4909C19.6172 22.8499 19.9092 23.1419 20.2682 23.1419C20.6272 23.1419 20.9193 22.8499 20.9193 22.4909C20.9193 22.1319 20.6272 21.8398 20.2682 21.8398C19.9092 21.8398 19.6172 22.1319 19.6172 22.4909Z" fill="#fff"/>
</svg>
