<svg width="24" height="20" viewBox="0 0 24 20" fill="none" xmlns="http://www.w3.org/2000/svg">
<path d="M13.4433 0H4.20282C3.78336 0 3.44329 0.340066 3.44329 0.759529C3.44329 1.17899 3.78336 1.51906 4.20282 1.51906H8.15093C7.31795 2.04072 6.5669 2.68138 5.92197 3.41742H0.759529C0.340066 3.41747 0 3.75758 0 4.17704C0 4.59651 0.340066 4.93657 0.759529 4.93657H4.8232C3.94691 6.42266 3.44325 8.15353 3.44325 10C3.44325 12.1486 4.12452 14.141 5.28213 15.7728H3.12708C2.70762 15.7728 2.36755 16.1129 2.36755 16.5323C2.36755 16.9518 2.70762 17.2919 3.12708 17.2919H6.60783C7.08141 17.7361 7.59813 18.1347 8.15093 18.4809H0.837872C0.418409 18.4809 0.078343 18.821 0.078343 19.2405C0.078343 19.6599 0.418409 20 0.837872 20H13.4433C18.9574 20 23.4433 15.514 23.4433 9.99998C23.4433 4.48597 18.9574 0 13.4433 0ZM17.1328 14.9845C17.1188 14.9963 17.105 15.0082 17.0899 15.0191C17.073 15.0314 17.0556 15.0429 17.0381 15.0536C16.0232 15.7775 14.7822 16.2039 13.4433 16.2039C12.1045 16.2039 10.8634 15.7775 9.84856 15.0536C9.83097 15.0429 9.81367 15.0314 9.79672 15.0191C9.78171 15.0081 9.76783 14.9962 9.75382 14.9845C8.22931 13.8531 7.23938 12.0401 7.23938 10C7.23938 6.57917 10.0225 3.79609 13.4433 3.79609C16.8642 3.79609 19.6472 6.57917 19.6472 10C19.6472 12.0401 18.6574 13.8531 17.1328 14.9845Z" fill="white"/>
<path d="M13.4436 8.85352C12.8113 8.85352 12.2969 9.36794 12.2969 10.0003C12.2969 10.6326 12.8113 11.147 13.4436 11.147C14.076 11.147 14.5904 10.6326 14.5904 10.0003C14.5904 9.36794 14.076 8.85352 13.4436 8.85352Z" fill="white"/>
<path d="M14.2031 5.37695V7.44487C14.792 7.62024 15.2962 7.99382 15.6378 8.48828L17.6047 7.84918C16.9357 6.56016 15.6853 5.61958 14.2031 5.37695Z" fill="white"/>
<path d="M18.0747 9.29395L16.1072 9.93324C16.1078 9.95558 16.109 9.97779 16.109 10.0002C16.109 10.6091 15.9034 11.1705 15.5586 11.6198L16.7733 13.2917C17.6103 12.445 18.1279 11.282 18.1279 10.0002C18.1279 9.7602 18.1097 9.52435 18.0747 9.29395Z" fill="white"/>
<path d="M9.2832 7.84918L11.25 8.48828C11.5917 7.99387 12.0958 7.62028 12.6847 7.44487V5.37695C11.2026 5.61963 9.95216 6.56016 9.2832 7.84918Z" fill="white"/>
<path d="M14.3315 12.5137C14.0537 12.612 13.7552 12.6661 13.4441 12.6661C13.1332 12.6661 12.8346 12.612 12.5568 12.5137L11.3418 14.1859C11.9744 14.5049 12.6886 14.685 13.4441 14.685C14.1997 14.685 14.9139 14.505 15.5465 14.1859L14.3315 12.5137Z" fill="white"/>
<path d="M10.7768 10.0002C10.7768 9.97779 10.7779 9.95558 10.7785 9.93323L8.81102 9.29395C8.77604 9.52435 8.75781 9.7602 8.75781 10.0002C8.75781 11.282 9.27544 12.445 10.1124 13.2918L11.3272 11.6198C10.9824 11.1705 10.7768 10.6091 10.7768 10.0002Z" fill="white"/>
</svg>
