<svg width="25" height="17" viewBox="0 0 25 17" fill="none" xmlns="http://www.w3.org/2000/svg">
<path d="M22.0078 0H2.99225C2.19889 0.000637199 1.43822 0.316058 0.877207 0.877017C0.316198 1.43798 0.000708094 2.19863 0 2.99198V13.3521C0.00056649 14.1456 0.315993 14.9064 0.877018 15.4674C1.43804 16.0285 2.1988 16.344 2.99225 16.3447H22.0078C22.8012 16.344 23.562 16.0285 24.123 15.4674C24.684 14.9064 24.9994 14.1456 25 13.3521V2.99198C24.9993 2.19863 24.6838 1.43798 24.1228 0.877017C23.5618 0.316058 22.8011 0.000637199 22.0078 0ZM24.0642 13.3521C24.0636 13.8974 23.8468 14.4201 23.4613 14.8057C23.0757 15.1913 22.553 15.4082 22.0078 15.4088H2.99225C2.447 15.4082 1.92427 15.1913 1.53875 14.8057C1.15323 14.4201 0.936395 13.8974 0.935829 13.3521V2.99198C0.936536 2.44682 1.15343 1.92421 1.53894 1.53875C1.92444 1.15329 2.44709 0.936466 2.99225 0.935829H22.0078C22.5529 0.936466 23.0756 1.15329 23.4611 1.53875C23.8466 1.92421 24.0635 2.44682 24.0642 2.99198V13.3521Z" fill="white"/>
<path d="M7.74764 3.40625C6.74542 3.40641 5.76874 3.72237 4.95633 4.30926C4.14393 4.89615 3.53712 5.72412 3.22211 6.67555C2.9071 7.62697 2.89991 8.65347 3.20156 9.60922C3.5032 10.565 4.09835 11.4014 4.90245 11.9996L4.91716 12.0097L4.92384 12.0143C5.69262 12.5838 6.61655 12.9058 7.57278 12.9375C7.63026 12.9421 7.68775 12.9426 7.74764 12.9426C7.80753 12.9426 7.86475 12.9426 7.92224 12.9375C8.87882 12.9059 9.80315 12.5841 10.5725 12.0148L10.5808 12.0092C10.5851 12.0057 10.5899 12.003 10.5942 11.9998C11.3985 11.4016 11.9938 10.5651 12.2954 9.60913C12.5971 8.65321 12.5899 7.62651 12.2747 6.67495C11.9595 5.7234 11.3524 4.89538 10.5397 4.30858C9.72701 3.72178 8.75004 3.40605 7.74764 3.40625ZM7.87946 12.0028C7.87037 12.0028 7.86074 12.0028 7.85272 12.0046C7.81823 12.0073 7.784 12.0065 7.74871 12.0068C7.71342 12.0071 7.67866 12.0068 7.64443 12.0046C7.63534 12.0046 7.62598 12.003 7.61769 12.0028C6.91752 11.9809 6.23718 11.765 5.65245 11.3792V11.2456C5.65288 10.8142 5.82443 10.4006 6.12946 10.0956C6.43449 9.79053 6.84808 9.61898 7.27946 9.61855H8.21983C8.65139 9.61904 9.06516 9.79055 9.37051 10.0955C9.67587 10.4005 9.84792 10.814 9.84898 11.2456V11.3792C9.26287 11.7654 8.58103 11.9813 7.87946 12.0028ZM7.75085 8.68165H7.74577C7.42326 8.68098 7.11421 8.5523 6.88652 8.3239C6.65883 8.0955 6.53113 7.78605 6.53146 7.46354C6.5318 7.14103 6.66015 6.83185 6.88832 6.60392C7.11649 6.37599 7.4258 6.24796 7.74831 6.24796C8.07082 6.24796 8.38013 6.37599 8.6083 6.60392C8.83647 6.83185 8.96482 7.14103 8.96515 7.46354C8.96549 7.78605 8.83779 8.0955 8.6101 8.3239C8.38241 8.5523 8.07336 8.68098 7.75085 8.68165ZM10.7019 10.618C10.609 10.2531 10.4371 9.91305 10.1982 9.62196C9.95929 9.33087 9.65935 9.09584 9.31957 8.93352C9.60654 8.62711 9.79766 8.24349 9.86943 7.82986C9.94119 7.41623 9.89046 6.99064 9.72348 6.60547C9.55649 6.2203 9.28055 5.89236 8.92959 5.66199C8.57863 5.43162 8.16798 5.30889 7.74818 5.30889C7.32837 5.30889 6.91772 5.43162 6.56676 5.66199C6.21581 5.89236 5.93986 6.2203 5.77287 6.60547C5.60589 6.99064 5.55516 7.41623 5.62692 7.82986C5.69869 8.24349 5.88982 8.62711 6.17679 8.93352C5.83712 9.09592 5.53728 9.33098 5.2985 9.62206C5.05972 9.91315 4.88782 10.2532 4.79497 10.618C4.22407 9.93246 3.91307 9.06763 3.91662 8.1755C3.91662 7.67223 4.01575 7.17389 4.20835 6.70892C4.40094 6.24396 4.68323 5.82149 5.03909 5.46562C5.39496 5.10975 5.81744 4.82746 6.2824 4.63487C6.74736 4.44227 7.24571 4.34315 7.74898 4.34315C8.25225 4.34315 8.75059 4.44227 9.21556 4.63487C9.68052 4.82746 10.103 5.10975 10.4589 5.46562C10.8147 5.82149 11.097 6.24396 11.2896 6.70892C11.4822 7.17389 11.5813 7.67223 11.5813 8.1755C11.5847 9.06778 11.2733 9.93267 10.7019 10.618Z" fill="white"/>
<path d="M21.5513 4.85156H15.5353C15.4112 4.85156 15.2922 4.90086 15.2044 4.98861C15.1167 5.07636 15.0674 5.19538 15.0674 5.31948C15.0674 5.44358 15.1167 5.56259 15.2044 5.65034C15.2922 5.73809 15.4112 5.78739 15.5353 5.78739H21.5513C21.6754 5.78739 21.7945 5.73809 21.8822 5.65034C21.97 5.56259 22.0193 5.44358 22.0193 5.31948C22.0193 5.19538 21.97 5.07636 21.8822 4.98861C21.7945 4.90086 21.6754 4.85156 21.5513 4.85156Z" fill="white"/>
<path d="M21.5513 7.70312H15.5353C15.4112 7.70313 15.2922 7.75242 15.2044 7.84017C15.1167 7.92792 15.0674 8.04694 15.0674 8.17104C15.0674 8.29514 15.1167 8.41415 15.2044 8.5019C15.2922 8.58966 15.4112 8.63895 15.5353 8.63895H21.5513C21.6754 8.63895 21.7945 8.58966 21.8822 8.5019C21.97 8.41415 22.0193 8.29514 22.0193 8.17104C22.0193 8.04694 21.97 7.92792 21.8822 7.84017C21.7945 7.75242 21.6754 7.70312 21.5513 7.70312Z" fill="white"/>
<path d="M21.5513 10.5547H15.5353C15.4112 10.5547 15.2922 10.604 15.2044 10.6917C15.1167 10.7795 15.0674 10.8985 15.0674 11.0226C15.0674 11.1467 15.1167 11.2657 15.2044 11.3535C15.2922 11.4412 15.4112 11.4905 15.5353 11.4905H21.5513C21.6754 11.4905 21.7945 11.4412 21.8822 11.3535C21.97 11.2657 22.0193 11.1467 22.0193 11.0226C22.0193 10.8985 21.97 10.7795 21.8822 10.6917C21.7945 10.604 21.6754 10.5547 21.5513 10.5547Z" fill="white"/>
</svg>
