<svg width="25" height="17" viewBox="0 0 25 17" fill="none" xmlns="http://www.w3.org/2000/svg">
<path d="M22.0528 0H2.125C0.950914 0 0 0.956817 0 2.125V14.875C0 16.0501 0.957903 17 2.125 17H22.0528C23.217 17 24.1778 16.0541 24.1778 14.875V2.125C24.1778 0.958894 23.2306 0 22.0528 0ZM21.7552 1.41667C21.321 1.84851 13.8495 9.28073 13.5915 9.53733C13.1901 9.93872 12.6565 10.1597 12.0889 10.1597C11.5213 10.1597 10.9877 9.93867 10.585 9.53601C10.4115 9.36341 3.02236 2.01327 2.42259 1.41667H21.7552ZM1.41667 14.5867V2.41424L7.53846 8.50378L1.41667 14.5867ZM2.42349 15.5833L8.54288 9.50286L9.58455 10.5391C10.2535 11.208 11.1429 11.5764 12.0889 11.5764C13.0349 11.5764 13.9243 11.208 14.5919 10.5404L15.6349 9.50286L21.7543 15.5833H2.42349ZM22.7611 14.5867L16.6393 8.50378L22.7611 2.41424V14.5867Z" fill="white"/>
</svg>
