<svg width="21" height="20" viewBox="0 0 21 20" fill="none" xmlns="http://www.w3.org/2000/svg">
<path fill-rule="evenodd" clip-rule="evenodd" d="M1.99998 1.49999H18.1998C18.476 1.49999 18.6998 1.72384 18.6998 1.99998V15.7999C18.6998 16.076 18.476 16.2999 18.1998 16.2999H12.3323L13.8939 17.7998H18.1998C19.3044 17.7998 20.1998 16.9044 20.1998 15.7999V1.99998C20.1998 0.895423 19.3044 0 18.1998 0H1.99998C0.895423 0 0 0.895422 0 1.99998V15.7999C0 16.9044 0.895422 17.7998 1.99998 17.7998H6.36617L8.03053 16.2999H1.99998C1.72384 16.2999 1.49999 16.076 1.49999 15.7999V1.99998C1.49999 1.72384 1.72384 1.49999 1.99998 1.49999Z" fill="white"/>
<path d="M10.0758 15.5996L12.8037 18.8996H7.3478L10.0758 15.5996Z" fill="white"/>
<path d="M4 14.2215V3.55469H6.41682L13.9656 11.2229V3.55469H16.3526V14.2215H13.9358L6.38698 6.53841V14.2215H4Z" fill="white"/>
</svg>
