<svg width="30" height="20" viewBox="0 0 30 20" fill="none" xmlns="http://www.w3.org/2000/svg">
<path d="M25.9458 8.85707C26.8243 8.23973 27.406 7.21282 27.406 6.05533C27.406 4.16178 25.8746 2.63032 23.981 2.63032C22.0875 2.63032 20.556 4.16178 20.556 6.05533C20.556 7.21282 21.1318 8.23973 22.0162 8.85707C21.2624 9.11825 20.5738 9.52189 19.9921 10.0442C19.1907 9.36162 18.2469 8.83926 17.2141 8.53059C18.4666 7.7708 19.3095 6.38774 19.3095 4.81472C19.3095 2.41662 17.3684 0.475586 14.9703 0.475586C12.5722 0.475586 10.6312 2.42256 10.6312 4.81472C10.6312 6.38774 11.4681 7.7708 12.7266 8.53059C11.7056 8.83926 10.7736 9.35568 9.97824 10.0264C9.39652 9.51595 8.71983 9.11825 7.97784 8.863C8.85635 8.24567 9.43807 7.21876 9.43807 6.06126C9.43807 4.16771 7.90661 2.63625 6.01306 2.63625C4.11951 2.63625 2.58805 4.16771 2.58805 6.06126C2.58805 7.21876 3.16383 8.24567 4.04828 8.863C1.69173 9.67622 0 11.9141 0 14.5437V14.9354C0 14.9473 0.0118718 14.9592 0.0237436 14.9592H7.28334C7.24179 15.2856 7.21805 15.624 7.21805 15.9623V16.366C7.21805 18.1111 8.63079 19.5239 10.3759 19.5239H19.5766C21.3217 19.5239 22.7345 18.1111 22.7345 16.366V15.9623C22.7345 15.624 22.7107 15.2856 22.6692 14.9592H29.9763C29.9881 14.9592 30 14.9473 30 14.9354V14.5437C29.9881 11.9081 28.3023 9.67028 25.9458 8.85707ZM21.5057 6.04939C21.5057 4.68413 22.6157 3.57412 23.981 3.57412C25.3463 3.57412 26.4563 4.68413 26.4563 6.04939C26.4563 7.39684 25.37 8.49498 24.0285 8.52466C24.0107 8.52466 23.9988 8.52466 23.981 8.52466C23.9632 8.52466 23.9513 8.52466 23.9335 8.52466C22.5861 8.50091 21.5057 7.40277 21.5057 6.04939ZM11.5691 4.81472C11.5691 2.94492 13.0886 1.42533 14.9584 1.42533C16.8283 1.42533 18.3478 2.94492 18.3478 4.81472C18.3478 6.61924 16.9292 8.09727 15.1543 8.19818C15.089 8.19818 15.0237 8.19818 14.9584 8.19818C14.8932 8.19818 14.8279 8.19818 14.7626 8.19818C12.9877 8.09727 11.5691 6.61924 11.5691 4.81472ZM3.51998 6.04939C3.51998 4.68413 4.63 3.57412 5.99525 3.57412C7.36051 3.57412 8.47052 4.68413 8.47052 6.04939C8.47052 7.39684 7.38425 8.49498 6.04274 8.52466C6.02493 8.52466 6.01306 8.52466 5.99525 8.52466C5.97744 8.52466 5.96557 8.52466 5.94776 8.52466C4.60625 8.50091 3.51998 7.40277 3.51998 6.04939ZM7.44954 14.0035H0.961615C1.22873 11.4748 3.36565 9.49221 5.95964 9.4744C5.97151 9.4744 5.98338 9.4744 5.99525 9.4744C6.00712 9.4744 6.01899 9.4744 6.03087 9.4744C7.26553 9.48034 8.39335 9.9374 9.26593 10.6794C8.41116 11.6054 7.77602 12.7451 7.44954 14.0035ZM21.7729 16.366C21.7729 17.5828 20.7816 18.5741 19.5647 18.5741H10.3641C9.14721 18.5741 8.15592 17.5828 8.15592 16.366V15.9623C8.15592 12.2761 11.1001 9.26071 14.7626 9.15386C14.8279 9.1598 14.8991 9.1598 14.9644 9.1598C15.0297 9.1598 15.1009 9.1598 15.1662 9.15386C18.8287 9.26071 21.7729 12.2761 21.7729 15.9623V16.366ZM22.4792 14.0035C22.1528 12.751 21.5295 11.6291 20.6806 10.7031C21.5592 9.94333 22.6989 9.48627 23.9454 9.4744C23.9573 9.4744 23.9691 9.4744 23.981 9.4744C23.9929 9.4744 24.0047 9.4744 24.0166 9.4744C26.6106 9.49221 28.7475 11.4748 29.0146 14.0035H22.4792Z" fill="white"/>
</svg>
