<svg width="30" height="30" viewBox="0 0 30 30" fill="none" xmlns="http://www.w3.org/2000/svg">
<path d="M25.9458 13.8571C26.8243 13.2397 27.406 12.2128 27.406 11.0553C27.406 9.16178 25.8746 7.63032 23.981 7.63032C22.0875 7.63032 20.556 9.16178 20.556 11.0553C20.556 12.2128 21.1318 13.2397 22.0162 13.8571C21.2624 14.1182 20.5738 14.5219 19.9921 15.0442C19.1907 14.3616 18.2469 13.8393 17.2141 13.5306C18.4666 12.7708 19.3095 11.3877 19.3095 9.81472C19.3095 7.41662 17.3684 5.47559 14.9703 5.47559C12.5722 5.47559 10.6312 7.42256 10.6312 9.81472C10.6312 11.3877 11.4681 12.7708 12.7266 13.5306C11.7056 13.8393 10.7736 14.3557 9.97824 15.0264C9.39652 14.516 8.71983 14.1182 7.97784 13.863C8.85635 13.2457 9.43807 12.2188 9.43807 11.0613C9.43807 9.16771 7.90661 7.63625 6.01306 7.63625C4.11951 7.63625 2.58805 9.16771 2.58805 11.0613C2.58805 12.2188 3.16383 13.2457 4.04828 13.863C1.69173 14.6762 0 16.9141 0 19.5437V19.9354C0 19.9473 0.0118718 19.9592 0.0237436 19.9592H7.28334C7.24179 20.2856 7.21805 20.624 7.21805 20.9623V21.366C7.21805 23.1111 8.63079 24.5239 10.3759 24.5239H19.5766C21.3217 24.5239 22.7345 23.1111 22.7345 21.366V20.9623C22.7345 20.624 22.7107 20.2856 22.6692 19.9592H29.9763C29.9881 19.9592 30 19.9473 30 19.9354V19.5437C29.9881 16.9081 28.3023 14.6703 25.9458 13.8571ZM21.5057 11.0494C21.5057 9.68413 22.6157 8.57412 23.981 8.57412C25.3463 8.57412 26.4563 9.68413 26.4563 11.0494C26.4563 12.3968 25.37 13.495 24.0285 13.5247C24.0107 13.5247 23.9988 13.5247 23.981 13.5247C23.9632 13.5247 23.9513 13.5247 23.9335 13.5247C22.5861 13.5009 21.5057 12.4028 21.5057 11.0494ZM11.5691 9.81472C11.5691 7.94492 13.0886 6.42533 14.9584 6.42533C16.8283 6.42533 18.3478 7.94492 18.3478 9.81472C18.3478 11.6192 16.9292 13.0973 15.1543 13.1982C15.089 13.1982 15.0237 13.1982 14.9584 13.1982C14.8932 13.1982 14.8279 13.1982 14.7626 13.1982C12.9877 13.0973 11.5691 11.6192 11.5691 9.81472ZM3.51998 11.0494C3.51998 9.68413 4.63 8.57412 5.99525 8.57412C7.36051 8.57412 8.47052 9.68413 8.47052 11.0494C8.47052 12.3968 7.38425 13.495 6.04274 13.5247C6.02493 13.5247 6.01306 13.5247 5.99525 13.5247C5.97744 13.5247 5.96557 13.5247 5.94776 13.5247C4.60625 13.5009 3.51998 12.4028 3.51998 11.0494ZM7.44954 19.0035H0.961615C1.22873 16.4748 3.36565 14.4922 5.95964 14.4744C5.97151 14.4744 5.98338 14.4744 5.99525 14.4744C6.00712 14.4744 6.01899 14.4744 6.03087 14.4744C7.26553 14.4803 8.39335 14.9374 9.26593 15.6794C8.41116 16.6054 7.77602 17.7451 7.44954 19.0035ZM21.7729 21.366C21.7729 22.5828 20.7816 23.5741 19.5647 23.5741H10.3641C9.14721 23.5741 8.15592 22.5828 8.15592 21.366V20.9623C8.15592 17.2761 11.1001 14.2607 14.7626 14.1539C14.8279 14.1598 14.8991 14.1598 14.9644 14.1598C15.0297 14.1598 15.1009 14.1598 15.1662 14.1539C18.8287 14.2607 21.7729 17.2761 21.7729 20.9623V21.366ZM22.4792 19.0035C22.1528 17.751 21.5295 16.6291 20.6806 15.7031C21.5592 14.9433 22.6989 14.4863 23.9454 14.4744C23.9573 14.4744 23.9691 14.4744 23.981 14.4744C23.9929 14.4744 24.0047 14.4744 24.0166 14.4744C26.6106 14.4922 28.7475 16.4748 29.0146 19.0035H22.4792Z" fill="white"/>
</svg>
