<svg width="20" height="20" viewBox="0 0 20 20" fill="none" xmlns="http://www.w3.org/2000/svg">
<path fill-rule="evenodd" clip-rule="evenodd" d="M10 18.4C14.6392 18.4 18.4 14.6392 18.4 10C18.4 5.36081 14.6392 1.6 10 1.6C5.36081 1.6 1.6 5.36081 1.6 10C1.6 14.6392 5.36081 18.4 10 18.4ZM10 20C15.5228 20 20 15.5228 20 10C20 4.47715 15.5228 0 10 0C4.47715 0 0 4.47715 0 10C0 15.5228 4.47715 20 10 20Z" fill="#282828"/>
<path d="M6.30312 7.61719C6.30312 7.1224 6.46198 6.6224 6.77969 6.11719C7.0974 5.60677 7.56094 5.1849 8.17031 4.85156C8.77969 4.51823 9.49063 4.35156 10.3031 4.35156C11.0583 4.35156 11.725 4.49219 12.3031 4.77344C12.8813 5.04948 13.3266 5.42708 13.6391 5.90625C13.9568 6.38542 14.1156 6.90625 14.1156 7.46875C14.1156 7.91146 14.0245 8.29948 13.8422 8.63281C13.6651 8.96615 13.4516 9.25521 13.2016 9.5C12.9568 9.73958 12.5141 10.1458 11.8734 10.7188C11.6964 10.8802 11.5531 11.0234 11.4438 11.1484C11.3396 11.2682 11.2615 11.3802 11.2094 11.4844C11.1573 11.5833 11.1156 11.6849 11.0844 11.7891C11.0583 11.888 11.0167 12.0651 10.9594 12.3203C10.8604 12.862 10.5505 13.1328 10.0297 13.1328C9.75885 13.1328 9.52969 13.0443 9.34219 12.8672C9.1599 12.6901 9.06875 12.4271 9.06875 12.0781C9.06875 11.6406 9.13646 11.263 9.27188 10.9453C9.40729 10.6224 9.58698 10.3411 9.81094 10.1016C10.0349 9.85677 10.337 9.56771 10.7172 9.23438C11.0505 8.94271 11.2901 8.72396 11.4359 8.57812C11.587 8.42708 11.712 8.26042 11.8109 8.07812C11.9151 7.89583 11.9672 7.69792 11.9672 7.48438C11.9672 7.06771 11.8109 6.71615 11.4984 6.42969C11.1911 6.14323 10.7927 6 10.3031 6C9.73021 6 9.30833 6.14583 9.0375 6.4375C8.76667 6.72396 8.5375 7.14844 8.35 7.71094C8.17292 8.29948 7.83698 8.59375 7.34219 8.59375C7.05052 8.59375 6.80312 8.49219 6.6 8.28906C6.40208 8.08073 6.30312 7.85677 6.30312 7.61719ZM10.1156 16.1797C9.79792 16.1797 9.51927 16.0781 9.27969 15.875C9.04531 15.6667 8.92813 15.3776 8.92813 15.0078C8.92813 14.6797 9.04271 14.4036 9.27188 14.1797C9.50104 13.9557 9.78229 13.8438 10.1156 13.8438C10.4438 13.8438 10.7198 13.9557 10.9438 14.1797C11.1677 14.4036 11.2797 14.6797 11.2797 15.0078C11.2797 15.3724 11.1625 15.6589 10.9281 15.8672C10.6938 16.0755 10.4229 16.1797 10.1156 16.1797Z" fill="#282828"/>
</svg>
