<svg width="21" height="20" viewBox="0 0 21 20" fill="none" xmlns="http://www.w3.org/2000/svg">
<path d="M3.64209 14.2991V3.57422H12.627C13.737 3.57422 14.597 3.85422 15.207 4.41421C15.827 4.97421 16.137 5.8242 16.137 6.96419C16.137 7.93418 15.912 8.69417 15.462 9.24417C15.012 9.79416 14.372 10.1392 13.542 10.2792L16.017 14.2991H13.287L10.992 10.3542H6.04207V14.2991H3.64209ZM12.342 5.5242H6.04207V8.38918L12.342 8.40418C12.782 8.40418 13.117 8.29418 13.347 8.07418C13.587 7.85418 13.707 7.48418 13.707 6.96419C13.707 6.43419 13.587 6.0642 13.347 5.8542C13.117 5.6342 12.782 5.5242 12.342 5.5242Z" fill="white"/>
<path fill-rule="evenodd" clip-rule="evenodd" d="M1.99998 1.49999H18.1998C18.476 1.49999 18.6998 1.72384 18.6998 1.99998V15.7999C18.6998 16.076 18.476 16.2999 18.1998 16.2999H12.3323L13.8939 17.7998H18.1998C19.3044 17.7998 20.1998 16.9044 20.1998 15.7999V1.99998C20.1998 0.895423 19.3044 0 18.1998 0H1.99998C0.895423 0 0 0.895422 0 1.99998V15.7999C0 16.9044 0.895422 17.7998 1.99998 17.7998H6.36617L8.03053 16.2999H1.99998C1.72384 16.2999 1.49999 16.076 1.49999 15.7999V1.99998C1.49999 1.72384 1.72384 1.49999 1.99998 1.49999Z" fill="white"/>
<path d="M10.0758 15.5996L12.8037 18.8996H7.3478L10.0758 15.5996Z" fill="white"/>
</svg>
