<svg width="70" height="70" viewBox="0 0 70 70" fill="none" xmlns="http://www.w3.org/2000/svg">
<path d="M47.2894 19.5851L41.0094 13.3052L43.647 9.33464H54.3521L56.9896 13.3052L50.6869 19.6079L53.9863 22.9074L62.9893 13.9045L56.854 4.66797H41.145L35.0098 13.9045L43.9899 22.8846L47.2894 19.5851Z" fill="white"/>
<path d="M23.3333 65.3346C26.0119 65.3346 28.5925 64.896 30.9748 64.0415C36.0561 62.2961 40.397 58.812 43.1906 54.2445C45.4647 50.577 46.6667 46.3433 46.6667 42.0013C46.6667 39.0835 46.1244 36.2352 45.0557 33.5361L40.7171 35.2542C41.5682 37.4041 42 39.6737 42 42.0013C42 45.474 41.0396 48.8566 39.2166 51.7972C36.9801 55.4533 33.5155 58.2344 29.4298 59.638C27.5238 60.3216 25.473 60.668 23.3333 60.668C13.0407 60.668 4.66667 52.2939 4.66667 42.0013C4.66667 31.7087 13.0407 23.3346 23.3333 23.3346C26.5702 23.3346 29.7443 24.172 32.5106 25.7557L34.8303 21.7066C31.3576 19.7184 27.3825 18.668 23.3333 18.668C10.467 18.668 0 29.1349 0 42.0013C0 54.8677 10.467 65.3346 23.3333 65.3346Z" fill="white"/>
<path d="M49 23.3359C47.9268 23.3359 46.8649 23.4157 45.8498 23.5718C40.4141 24.3978 35.5856 27.2677 32.2508 31.661C29.5096 35.2966 28 39.798 28 44.3359C28 47.6662 28.7599 50.8483 30.2604 53.7946L34.419 51.6777C33.2568 49.3934 32.6667 46.9233 32.6667 44.3359C32.6667 40.7539 33.8117 37.3428 35.9718 34.4762C38.5649 31.0617 42.3213 28.8275 46.555 28.1849C47.3411 28.0641 48.1637 28.0026 49 28.0026C58.0063 28.0026 65.3333 35.3296 65.3333 44.3359C65.3333 53.3423 58.0063 60.6693 49 60.6693C47.1452 60.6693 45.369 60.3696 43.7192 59.7795L42.147 64.1727C44.3026 64.9452 46.6074 65.3359 49 65.3359C60.5789 65.3359 70 55.9149 70 44.3359C70 32.757 60.5789 23.3359 49 23.3359Z" fill="white"/>
</svg>
