<svg width="244" height="99" viewBox="0 0 244 99" fill="none" xmlns="http://www.w3.org/2000/svg">
<path d="M0 70.2565V17.5641H44.1437C49.5972 17.5641 53.8224 18.9397 56.8194 21.691C59.8654 24.4423 61.3885 28.6184 61.3885 34.2193C61.3885 38.985 60.283 42.7189 58.0722 45.421C55.8613 48.1232 52.717 49.8182 48.6391 50.506L60.7989 70.2565H47.3863L36.1109 50.8745H11.7913V70.2565H0ZM42.7435 27.1445H11.7913V41.2204L42.7435 41.2941C44.9052 41.2941 46.5511 40.7537 47.6811 39.6728C48.8602 38.5919 49.4498 36.7741 49.4498 34.2193C49.4498 31.6154 48.8602 29.7976 47.6811 28.7658C46.5511 27.685 44.9052 27.1445 42.7435 27.1445Z" fill="black"/>
<path d="M71.73 70.2565V17.5641H83.6687L120.959 55.4437V17.5641H132.75V70.2565H120.811L83.5213 32.3032V70.2565H71.73Z" fill="black"/>
<path d="M163.722 69.7651V17.0727H172.418L196.001 16.999C205.532 16.999 212.926 19.2345 218.183 23.7053C223.44 28.1762 226.069 34.7351 226.069 43.3821C226.069 52.029 223.44 58.5879 218.183 63.0588C212.926 67.5297 205.532 69.7651 196.001 69.7651H163.722ZM195.19 26.5795H175.513V60.1847H195.19C201.381 60.1847 206.073 58.8336 209.266 56.1314C212.46 53.4292 214.056 49.1795 214.056 43.3821C214.056 37.5355 212.46 33.2858 209.266 30.6327C206.073 27.9305 201.381 26.5795 195.19 26.5795Z" fill="black"/>
<path fill-rule="evenodd" clip-rule="evenodd" d="M153.651 7.36957H233.242C234.599 7.36957 235.699 8.46939 235.699 9.82609V77.6261C235.699 78.9828 234.599 80.0826 233.242 80.0826H204.413L212.086 87.4522H233.242C238.669 87.4522 243.068 83.0529 243.068 77.6261V9.82609C243.068 4.39929 238.669 0 233.242 0H153.651C148.224 0 143.825 4.39929 143.825 9.82609V77.6261C143.825 83.0529 148.224 87.4522 153.651 87.4522H175.103L183.28 80.0826H153.651C152.294 80.0826 151.194 78.9828 151.194 77.6261V9.82609C151.194 8.46939 152.294 7.36957 153.651 7.36957Z" fill="black"/>
<path d="M193.328 76.6436L206.731 92.8566H179.925L193.328 76.6436Z" fill="black"/>
</svg>
