<svg width="244" height="131" viewBox="0 0 244 131" fill="none" xmlns="http://www.w3.org/2000/svg">
<path d="M0 70.2564V17.564H44.1437C49.5972 17.564 53.8224 18.9396 56.8194 21.6909C59.8654 24.4422 61.3885 28.6183 61.3885 34.2192C61.3885 38.9848 60.2831 42.7187 58.0722 45.4209C55.8613 48.1231 52.717 49.8181 48.6391 50.5059L60.7989 70.2564H47.3863L36.1109 50.8744H11.7913V70.2564H0ZM42.7435 27.1444H11.7913V41.2203L42.7435 41.294C44.9052 41.294 46.5511 40.7535 47.6811 39.6727C48.8602 38.5918 49.4498 36.774 49.4498 34.2192C49.4498 31.6153 48.8602 29.7974 47.6811 28.7657C46.5511 27.6848 44.9052 27.1444 42.7435 27.1444Z" fill="white"/>
<path d="M71.73 70.2564V17.564H83.6687L120.959 55.4435V17.564H132.75V70.2564H120.811L83.5213 32.3031V70.2564H71.73Z" fill="white"/>
<path d="M163.722 69.7651V17.0727H172.418L196.001 16.999C205.532 16.999 212.926 19.2345 218.183 23.7053C223.44 28.1762 226.069 34.7351 226.069 43.3821C226.069 52.029 223.44 58.5879 218.183 63.0588C212.926 67.5297 205.532 69.7651 196.001 69.7651H163.722ZM195.19 26.5795H175.513V60.1847H195.19C201.381 60.1847 206.073 58.8336 209.266 56.1314C212.46 53.4292 214.056 49.1795 214.056 43.3821C214.056 37.5355 212.46 33.2858 209.266 30.6327C206.073 27.9305 201.381 26.5795 195.19 26.5795Z" fill="white"/>
<path fill-rule="evenodd" clip-rule="evenodd" d="M153.651 7.36957H233.242C234.599 7.36957 235.699 8.46939 235.699 9.82609V77.6261C235.699 78.9828 234.599 80.0826 233.242 80.0826H204.413L212.086 87.4522H233.242C238.669 87.4522 243.068 83.0529 243.068 77.6261V9.82609C243.068 4.39929 238.669 0 233.242 0H153.651C148.224 0 143.825 4.39929 143.825 9.82609V77.6261C143.825 83.0529 148.224 87.4522 153.651 87.4522H175.103L183.28 80.0826H153.651C152.294 80.0826 151.194 78.9828 151.194 77.6261V9.82609C151.194 8.46939 152.294 7.36957 153.651 7.36957Z" fill="#FF9D0B"/>
<path d="M193.328 76.6433L206.731 92.8564H179.925L193.328 76.6433Z" fill="white"/>
<path d="M9.39646 130.429V126.609H19.4279C20.7566 126.609 21.4209 125.934 21.4209 124.583V122.955H14.1132C11.1459 122.955 8.83178 122.224 7.17094 120.763C5.51011 119.301 4.67969 117.186 4.67969 114.418C4.67969 111.628 5.51011 109.502 7.17094 108.041C8.83178 106.579 11.1459 105.848 14.1132 105.848H26.2373V125.181C26.2373 126.753 25.7834 128.015 24.8755 128.967C23.9675 129.942 22.5503 130.429 20.6237 130.429H9.39646ZM14.1132 119.135H21.4209V109.668H14.1132C12.6738 109.668 11.5666 110.067 10.7916 110.864C10.0387 111.639 9.6622 112.824 9.6622 114.418C9.6622 115.991 10.0387 117.175 10.7916 117.973C11.5666 118.748 12.6738 119.135 14.1132 119.135Z" fill="#657170"/>
<path d="M52.7196 122.955C50.9259 122.955 49.553 122.501 48.6008 121.593C47.6485 120.685 47.1724 119.39 47.1724 117.707C47.1724 116.046 47.6485 114.762 48.6008 113.854C49.553 112.946 50.9259 112.492 52.7196 112.492H65.4749V111.695C65.4749 110.344 64.8105 109.668 63.4819 109.668H49.398V105.848H64.7441C66.7592 105.848 68.1876 106.313 69.029 107.244C69.8705 108.151 70.2913 109.436 70.2913 111.097V122.955H52.7196ZM53.5833 119.135H65.4749V116.312H53.5833C53.1625 116.312 52.8304 116.445 52.5868 116.71C52.3653 116.954 52.2546 117.286 52.2546 117.707C52.2546 118.128 52.3653 118.471 52.5868 118.737C52.8304 119.002 53.1625 119.135 53.5833 119.135Z" fill="#657170"/>
<path d="M92.2265 122.955V105.848H105.314C107.24 105.848 108.658 106.336 109.566 107.31C110.474 108.262 110.928 109.524 110.928 111.097V114.651H106.045V111.695C106.045 110.366 105.38 109.702 104.052 109.702H97.1094V122.955H92.2265Z" fill="#657170"/>
<path d="M136.391 122.955C134.597 122.955 133.224 122.501 132.272 121.593C131.32 120.685 130.844 119.39 130.844 117.707C130.844 116.046 131.32 114.762 132.272 113.854C133.224 112.946 134.597 112.492 136.391 112.492H149.146V111.695C149.146 110.344 148.482 109.668 147.153 109.668H133.069V105.848H148.415C150.43 105.848 151.859 106.313 152.7 107.244C153.542 108.151 153.962 109.436 153.962 111.097V122.955H136.391ZM137.254 119.135H149.146V116.312H137.254C136.834 116.312 136.501 116.445 136.258 116.71C136.036 116.954 135.926 117.286 135.926 117.707C135.926 118.128 136.036 118.471 136.258 118.737C136.501 119.002 136.834 119.135 137.254 119.135Z" fill="#657170"/>
<path d="M179.95 130.429V126.609H189.982C191.31 126.609 191.975 125.934 191.975 124.583V122.955H184.667C181.699 122.955 179.385 122.224 177.725 120.763C176.064 119.301 175.233 117.186 175.233 114.418C175.233 111.628 176.064 109.502 177.725 108.041C179.385 106.579 181.699 105.848 184.667 105.848H196.791V125.181C196.791 126.753 196.337 128.015 195.429 128.967C194.521 129.942 193.104 130.429 191.177 130.429H179.95ZM184.667 119.135H191.975V109.668H184.667C183.227 109.668 182.12 110.067 181.345 110.864C180.592 111.639 180.216 112.824 180.216 114.418C180.216 115.991 180.592 117.175 181.345 117.973C182.12 118.748 183.227 119.135 184.667 119.135Z" fill="#657170"/>
<path d="M227.492 123.121C224.524 123.121 222.21 122.39 220.549 120.929C218.889 119.445 218.058 117.275 218.058 114.418C218.058 111.54 218.889 109.369 220.549 107.908C222.21 106.424 224.524 105.682 227.492 105.682H235.796C237.745 105.682 239.228 106.147 240.247 107.077C241.288 107.985 241.808 109.292 241.808 110.997C241.808 114.474 239.804 116.212 235.796 116.212H223.24C223.705 118.272 225.122 119.301 227.492 119.301H240.945V123.121H227.492ZM227.492 109.502C225.211 109.502 223.805 110.466 223.273 112.392H235.563C236.006 112.392 236.35 112.259 236.593 111.994C236.859 111.728 236.992 111.362 236.992 110.897C236.992 109.967 236.516 109.502 235.563 109.502H227.492Z" fill="#657170"/>
</svg>
