<svg width="18" height="20" viewBox="0 0 18 20" fill="none" xmlns="http://www.w3.org/2000/svg">
<path d="M13.919 13.4529C12.9753 13.4529 12.1251 13.8667 11.535 14.525L6.2273 11.187C6.36901 10.8186 6.4476 10.4185 6.4476 10C6.4476 9.5813 6.36901 9.18121 6.2273 8.81302L11.535 5.47485C12.1251 6.13312 12.9753 6.54709 13.919 6.54709C15.6967 6.54709 17.1429 5.07858 17.1429 3.27347C17.1429 1.46835 15.6967 0 13.919 0C12.1413 0 10.6951 1.46851 10.6951 3.27362C10.6951 3.69217 10.7738 4.09225 10.9154 4.4606L5.60789 7.79861C5.01779 7.14035 4.16756 6.72638 3.22387 6.72638C1.44619 6.72638 0 8.19504 0 10C0 11.8051 1.44619 13.2736 3.22387 13.2736C4.16756 13.2736 5.01779 12.8598 5.60789 12.2014L10.9154 15.5394C10.7738 15.9077 10.6951 16.3078 10.6951 16.7265C10.6951 18.5315 12.1413 20 13.919 20C15.6967 20 17.1429 18.5315 17.1429 16.7265C17.1429 14.9214 15.6967 13.4529 13.919 13.4529ZM11.8707 3.27362C11.8707 2.12677 12.7896 1.1937 13.919 1.1937C15.0484 1.1937 15.9673 2.12677 15.9673 3.27362C15.9673 4.42047 15.0484 5.35355 13.919 5.35355C12.7896 5.35355 11.8707 4.42047 11.8707 3.27362ZM3.22387 12.0799C2.0943 12.0799 1.17541 11.1469 1.17541 10C1.17541 8.85315 2.0943 7.92007 3.22387 7.92007C4.3533 7.92007 5.27204 8.85315 5.27204 10C5.27204 11.1469 4.3533 12.0799 3.22387 12.0799ZM11.8707 16.7264C11.8707 15.5795 12.7896 14.6465 13.919 14.6465C15.0484 14.6465 15.9673 15.5795 15.9673 16.7264C15.9673 17.8732 15.0484 18.8063 13.919 18.8063C12.7896 18.8063 11.8707 17.8732 11.8707 16.7264Z" fill="white"/>
</svg>
