<svg width="38" height="38" viewBox="0 0 38 38" fill="none" xmlns="http://www.w3.org/2000/svg">
<path fill-rule="evenodd" clip-rule="evenodd" d="M2.81481 19C2.81481 10.0612 10.0612 2.81481 19 2.81481C27.9388 2.81481 35.1852 10.0612 35.1852 19C35.1852 27.9388 27.9388 35.1852 19 35.1852C10.0612 35.1852 2.81481 27.9388 2.81481 19ZM19 0C8.50659 0 0 8.50659 0 19C0 29.4934 8.50659 38 19 38C29.4934 38 38 29.4934 38 19C38 8.50659 29.4934 0 19 0ZM26.4989 14.6576V26.1566C27.4587 26.4971 28.1482 27.4137 28.1482 28.4887C28.1482 29.8529 27.0384 30.9627 25.6743 30.9627C24.3101 30.9627 23.2003 29.8529 23.2003 28.4887C23.2003 27.4137 23.8898 26.497 24.8496 26.1566V21.2318H18.4173V26.1566C19.3771 26.4971 20.0666 27.4137 20.0666 28.4887C20.0666 29.8529 18.9568 30.9627 17.5927 30.9627C16.2285 30.9627 15.1187 29.8529 15.1187 28.4887C15.1187 27.4137 15.8082 26.497 16.768 26.1566V21.2318H11.1604C9.79623 21.2318 8.68641 20.122 8.68641 18.7578V14.6576C7.7266 14.3172 7.03711 13.4006 7.03711 12.3255C7.03711 10.9614 8.14693 9.85156 9.51107 9.85156C10.8752 9.85156 11.985 10.9614 11.985 12.3255C11.985 13.4006 11.2955 14.3172 10.3357 14.6576V18.7578C10.3357 19.2125 10.7057 19.5825 11.1604 19.5825H16.768V14.6576C15.8082 14.3172 15.1187 13.4006 15.1187 12.3255C15.1187 10.9614 16.2285 9.85156 17.5927 9.85156C18.9568 9.85156 20.0666 10.9614 20.0666 12.3255C20.0666 13.4006 19.3771 14.3172 18.4173 14.6576V19.5825H24.8496V14.6576C23.8898 14.3172 23.2003 13.4006 23.2003 12.3255C23.2003 10.9614 24.3101 9.85156 25.6743 9.85156C27.0384 9.85156 28.1482 10.9614 28.1482 12.3255C28.1482 13.4006 27.4587 14.3172 26.4989 14.6576ZM18.4173 12.3255C18.4173 11.8708 18.0474 11.5009 17.5927 11.5009C17.138 11.5009 16.768 11.8708 16.768 12.3255C16.768 12.7802 17.138 13.1502 17.5927 13.1502C18.0474 13.1502 18.4173 12.7802 18.4173 12.3255ZM10.3357 12.3255C10.3357 11.8708 9.96578 11.5009 9.51107 11.5009C9.05635 11.5009 8.68641 11.8708 8.68641 12.3255C8.68641 12.7802 9.05635 13.1502 9.51107 13.1502C9.96578 13.1502 10.3357 12.7802 10.3357 12.3255ZM16.768 28.4887C16.768 28.9434 17.138 29.3134 17.5927 29.3134C18.0474 29.3134 18.4173 28.9434 18.4173 28.4887C18.4173 28.034 18.0474 27.6641 17.5927 27.6641C17.138 27.6641 16.768 28.034 16.768 28.4887ZM26.4989 12.3255C26.4989 11.8708 26.129 11.5009 25.6743 11.5009C25.2195 11.5009 24.8496 11.8708 24.8496 12.3255C24.8496 12.7802 25.2195 13.1502 25.6743 13.1502C26.129 13.1502 26.4989 12.7802 26.4989 12.3255ZM24.8496 28.4887C24.8496 28.9434 25.2195 29.3134 25.6743 29.3134C26.129 29.3134 26.4989 28.9434 26.4989 28.4887C26.4989 28.034 26.129 27.6641 25.6743 27.6641C25.2195 27.6641 24.8496 28.034 24.8496 28.4887Z" fill="#282828"/>
</svg>
