<svg width="27" height="20" viewBox="0 0 27 20" fill="none" xmlns="http://www.w3.org/2000/svg">
<g opacity="0.3">
<path d="M24.9604 6.6672C23.7606 6.69454 22.982 7.95341 23.4904 9.03863C22.5763 9.81416 21.3013 10.6121 20.619 10.4418C20.5518 10.4251 20.2112 10.0032 20.2085 8.40268C20.2075 7.74851 20.2638 7.09954 20.3164 6.63652C21.143 6.47745 21.7535 5.70588 21.6568 4.81463C21.5594 3.91706 20.7781 3.2743 19.8775 3.33763C18.6457 3.42425 17.9245 4.80541 18.5793 5.86984C17.9517 6.80527 16.9663 7.88757 16.2777 7.91622C16.1907 7.86726 15.634 7.47455 14.8855 5.14171C14.6007 4.25342 14.3027 3.04258 14.3027 3.02138C14.7517 2.70033 15.0341 2.16158 14.9968 1.56084C14.9456 0.734374 14.2784 0.0617631 13.4524 0.00415836C12.4796 -0.0637069 11.6668 0.70802 11.6668 1.66668C11.6668 2.22449 11.9418 2.71929 12.3642 3.02138C12.3642 3.03883 12.0998 4.14894 11.7814 5.14171C11.0329 7.47455 10.4762 7.86726 10.3892 7.91622C9.70062 7.88757 8.71468 6.80475 8.08759 5.86984C8.74218 4.80582 8.0216 3.42456 6.78992 3.33768C5.88923 3.27414 5.10761 3.9168 5.01016 4.81447C4.91339 5.70578 5.52386 6.47745 6.35059 6.63652C6.40319 7.09954 6.45944 7.74851 6.4584 8.40268C6.4558 10.0032 6.11517 10.4251 6.04798 10.4418C5.36568 10.6126 4.09067 9.81416 3.1766 9.03863C3.68494 7.95351 2.90592 6.69438 1.70632 6.6672C0.829386 6.6473 0.0742219 7.32434 0.00531497 8.19877C-0.06979 9.15154 0.660686 9.95478 1.58752 9.99801C1.9981 10.7812 2.88654 12.6062 3.50561 14.8091C3.53728 14.9218 3.63942 15.0001 3.7565 15.0001H22.9104C23.0275 15.0001 23.1296 14.9218 23.1613 14.8091C23.7804 12.6057 24.6693 10.7812 25.0799 9.99801C26.0061 9.95426 26.7366 9.1517 26.6616 8.19893C26.5928 7.32434 25.8375 6.6472 24.9604 6.6672ZM13.3335 13.7501C12.5861 13.7501 12.0835 12.9965 12.0835 11.8751C12.0835 10.7537 12.5861 10.0001 13.3335 10.0001C14.0809 10.0001 14.5835 10.7537 14.5835 11.8751C14.5835 12.9965 14.0809 13.7501 13.3335 13.7501Z" fill="white"/>
<path d="M3.98377 16.968C4.09851 17.6903 4.16627 18.4287 4.16642 19.1644C4.16653 19.6249 4.53471 20.0004 4.99524 20.0004H21.6711C22.1317 20.0004 22.4998 19.6249 22.4999 19.1644C22.5001 18.4288 22.5679 17.6903 22.6826 16.968C22.7077 16.81 22.5858 16.667 22.4257 16.667H4.24064C4.08059 16.667 3.95861 16.81 3.98377 16.968Z" fill="white"/>
</g>
</svg>
