<svg width="31" height="31" viewBox="0 0 31 31" fill="none" xmlns="http://www.w3.org/2000/svg">
<path d="M20.4436 19.3397L19.8949 18.7907L28.1291 10.5562C29.0374 9.64611 29.0374 8.17281 28.1291 7.26245L27.5804 6.71344L30.3251 3.9687C31.2278 3.05806 31.2246 1.58902 30.3177 0.682068C29.411 -0.2246 27.942 -0.227728 27.0314 0.67496L24.2863 3.4197L23.7376 2.87069C22.8273 1.9626 21.354 1.9626 20.4436 2.87069L12.2095 11.1052L11.6605 10.5562C10.7504 9.6481 9.2768 9.6481 8.36673 10.5562L5.07272 13.8502C4.16463 14.7603 4.16463 16.2339 5.07272 17.144L5.62172 17.693L0.681276 22.6334C-0.227092 23.5435 -0.227092 25.0171 0.681276 25.9272L1.23028 26.4762L0.681276 27.0252C-0.22169 27.9358 -0.218279 29.4052 0.688384 30.3118C1.59505 31.2185 3.06436 31.2216 3.975 30.3189L4.524 29.7699L5.07272 30.3189C5.98279 31.227 7.45637 31.227 8.36644 30.3189L13.3072 25.3785L13.8562 25.9275C14.7662 26.8356 16.2398 26.8356 17.1499 25.9275L20.4436 22.6337C21.352 21.7234 21.352 20.2498 20.4436 19.3397V19.3397ZM28.1291 1.77297C28.4327 1.47188 28.9226 1.47302 29.2248 1.77524C29.527 2.07747 29.5282 2.56733 29.2271 2.87069L26.4824 5.61572L25.3843 4.51771L28.1291 1.77297ZM21.5419 3.9687C21.8453 3.6662 22.3363 3.6662 22.6396 3.9687L27.0314 8.36046C27.3339 8.66382 27.3339 9.15511 27.0314 9.45847L18.7969 17.693L13.3072 12.2032L21.5419 3.9687ZM6.17072 14.9479L9.46445 11.6542C9.76809 11.3517 10.2591 11.3517 10.5624 11.6542L14.4052 15.4969L10.0134 19.8887L6.17072 16.046C5.86822 15.7426 5.86822 15.2513 6.17072 14.9479V14.9479ZM8.91573 27.5742L3.426 22.0844L4.524 20.9867L10.0134 26.4762L8.91573 27.5742ZM2.877 29.2209C2.57336 29.522 2.08377 29.5209 1.78155 29.2187C1.47933 28.9164 1.4782 28.4268 1.77899 28.1232L2.328 27.5742L3.426 28.6722L2.877 29.2209ZM6.17072 29.2209L1.77899 24.8295C1.47649 24.5258 1.47649 24.0348 1.77899 23.7314L2.328 23.1824L7.81773 28.6722L7.26872 29.2209C6.96537 29.5237 6.47408 29.5237 6.17072 29.2209V29.2209ZM11.1115 25.3785L5.62172 19.8887L6.71972 18.7907L12.2095 24.2805L11.1115 25.3785ZM16.0522 24.8295C15.7485 25.132 15.2575 25.132 14.9542 24.8295L11.1115 20.9867L15.5032 16.595L19.3459 20.4377C19.6484 20.7411 19.6484 21.2321 19.3459 21.5357L16.0522 24.8295Z" fill="#FF9D0B"/>
</svg>
