<svg width="62" height="50" viewBox="0 0 62 50" fill="none" xmlns="http://www.w3.org/2000/svg">
<path d="M45.0482 30.5488H40.9531V32.5964H45.0482V30.5488Z" fill="white"/>
<path d="M11.2624 42.834H9.21484V44.8815H11.2624V42.834Z" fill="white"/>
<path d="M49.1413 42.834H47.0938V44.8815H49.1413V42.834Z" fill="white"/>
<path d="M60.72 26.0181L55.7414 16.8041C55.478 16.3168 55.0878 15.9097 54.612 15.626C54.1362 15.3423 53.5925 15.1926 53.0386 15.1927H39.0272L6.6361 0.0961515C6.51442 0.0391046 6.38265 0.00674604 6.2484 0.000947063C6.11414 -0.00485191 5.98007 0.0160238 5.85393 0.062367C5.72747 0.108259 5.61129 0.178626 5.51204 0.269445C5.41279 0.360264 5.33241 0.469755 5.2755 0.591658L3.54532 4.30795C3.48806 4.43004 3.45548 4.56224 3.44946 4.69696C3.44343 4.83167 3.46408 4.96625 3.51022 5.09296C3.55636 5.21968 3.62708 5.33603 3.71831 5.43533C3.80954 5.53463 3.9195 5.61493 4.04185 5.67162L4.09509 5.69312V11.0976C4.09509 11.3691 4.20295 11.6295 4.39495 11.8215C4.58694 12.0135 4.84734 12.1214 5.11886 12.1214C5.32135 12.1214 5.51928 12.1814 5.68764 12.2939C5.856 12.4064 5.98722 12.5663 6.06471 12.7534C6.14219 12.9404 6.16247 13.1463 6.12296 13.3449C6.08346 13.5435 5.98596 13.7259 5.84278 13.8691C5.6996 14.0123 5.51718 14.1098 5.31859 14.1493C5.12 14.1888 4.91415 14.1685 4.72708 14.091C4.54001 14.0135 4.38012 13.8823 4.26763 13.7139C4.15513 13.5456 4.09509 13.3476 4.09509 13.1452H2.04755C2.04765 13.7082 2.20254 14.2604 2.49526 14.7414C2.78799 15.2223 3.2073 15.6136 3.70737 15.8723C4.20743 16.1311 4.769 16.2474 5.33071 16.2086C5.89241 16.1697 6.43263 15.9772 6.89233 15.6521C7.35202 15.327 7.7135 14.8818 7.93725 14.3651C8.161 13.8484 8.23842 13.2802 8.16104 12.7225C8.08366 12.1648 7.85446 11.6391 7.49849 11.2028C7.14252 10.7666 6.67348 10.4366 6.14264 10.2489V6.64727L32.7607 19.0544V33.6206H1.02377C0.752251 33.6206 0.491851 33.7285 0.299856 33.9205C0.107861 34.1125 0 34.3729 0 34.6444V42.8346C0 43.3776 0.215723 43.8984 0.599712 44.2824C0.983701 44.6664 1.5045 44.8821 2.04755 44.8821H4.18723C4.42785 46.3128 5.16768 47.612 6.27536 48.5489C7.38305 49.4859 8.78692 50 10.2377 50C11.6885 50 13.0924 49.4859 14.2001 48.5489C15.3078 47.612 16.0476 46.3128 16.2882 44.8821H42.0668C42.3074 46.3128 43.0473 47.612 44.155 48.5489C45.2626 49.4859 46.6665 50 48.1173 50C49.5681 50 50.972 49.4859 52.0797 48.5489C53.1874 47.612 53.9272 46.3128 54.1678 44.8821H58.355C59.1696 44.8821 59.9508 44.5585 60.5268 43.9825C61.1028 43.4066 61.4264 42.6254 61.4264 41.8108V28.6123C61.4283 27.6998 61.1843 26.8036 60.72 26.0181ZM53.9395 17.7777L58.6284 26.4542H42.9985V17.2403H53.0386C53.2233 17.2402 53.4045 17.2902 53.5631 17.3848C53.7217 17.4794 53.8518 17.6152 53.9395 17.7777ZM6.69957 2.38428L36.8558 16.4397V18.7053L5.8355 4.24448L6.69957 2.38428ZM34.8083 20.0096L36.8558 20.9637V33.6206H34.8083V20.0096ZM10.2377 47.9534C9.42779 47.9534 8.63605 47.7133 7.96262 47.2633C7.28918 46.8133 6.7643 46.1737 6.45436 45.4255C6.14441 44.6772 6.06331 43.8538 6.22132 43.0594C6.37933 42.2651 6.76935 41.5354 7.34206 40.9627C7.91477 40.39 8.64444 39.9999 9.43882 39.8419C10.2332 39.6839 11.0566 39.765 11.8049 40.075C12.5531 40.3849 13.1927 40.9098 13.6427 41.5832C14.0926 42.2567 14.3328 43.0484 14.3328 43.8583C14.3328 44.9444 13.9014 45.986 13.1334 46.754C12.3654 47.522 11.3238 47.9534 10.2377 47.9534ZM10.2377 37.7157C8.7875 37.7184 7.3849 38.2336 6.27774 39.1703C5.17059 40.107 4.43014 41.4048 4.18723 42.8346H2.04755V35.6682H36.8558V42.8346H16.2882C16.0453 41.4048 15.3049 40.107 14.1977 39.1703C13.0906 38.2336 11.688 37.7184 10.2377 37.7157ZM48.1173 47.9534C47.3074 47.9534 46.5156 47.7133 45.8422 47.2633C45.1688 46.8133 44.6439 46.1737 44.3339 45.4255C44.024 44.6772 43.9429 43.8538 44.1009 43.0594C44.2589 42.2651 44.6489 41.5354 45.2217 40.9627C45.7944 40.39 46.524 39.9999 47.3184 39.8419C48.1128 39.6839 48.9362 39.765 49.6844 40.075C50.4327 40.3849 51.0723 40.9098 51.5223 41.5832C51.9722 42.2567 52.2124 43.0484 52.2124 43.8583C52.2124 44.9444 51.781 45.986 51.013 46.754C50.245 47.522 49.2034 47.9534 48.1173 47.9534ZM58.355 42.8346H54.1678C53.9272 41.4039 53.1874 40.1047 52.0797 39.1677C50.972 38.2308 49.5681 37.7167 48.1173 37.7167C46.6665 37.7167 45.2626 38.2308 44.155 39.1677C43.0473 40.1047 42.3074 41.4039 42.0668 42.8346H38.9034V17.2403H40.9509V27.478C40.9509 27.7495 41.0588 28.0099 41.2508 28.2019C41.4428 28.3939 41.7032 28.5018 41.9747 28.5018H59.3635C59.3635 28.5386 59.3788 28.5744 59.3788 28.6123V30.5493H55.2837C54.7407 30.5493 54.2199 30.765 53.8359 31.149C53.4519 31.533 53.2362 32.0538 53.2362 32.5968V34.6444C53.2362 35.1874 53.4519 35.7082 53.8359 36.0922C54.2199 36.4762 54.7407 36.6919 55.2837 36.6919H59.3788V38.7395H56.3075V40.787H59.3788V41.8108C59.3788 42.0823 59.271 42.3427 59.079 42.5347C58.887 42.7267 58.6266 42.8346 58.355 42.8346ZM59.3788 32.5968V34.6444H55.2837V32.5968H59.3788Z" fill="white"/>
<path d="M9.02558 31.5731H21.6876C21.8961 32.1715 22.2856 32.6902 22.8022 33.0573C23.3188 33.4244 23.9368 33.6216 24.5705 33.6216C25.2043 33.6216 25.8223 33.4244 26.3389 33.0573C26.8554 32.6902 27.245 32.1715 27.4535 31.5731H29.6894C29.9609 31.5731 30.2213 31.4652 30.4133 31.2732C30.6053 31.0812 30.7132 30.8208 30.7132 30.5493V26.4542C30.7134 26.1834 30.6063 25.9235 30.4153 25.7314L28.3769 23.6839C28.2817 23.5884 28.1686 23.5126 28.044 23.461C27.9195 23.4093 27.7859 23.3828 27.6511 23.3829H25.9731L19.0944 17.487C18.9088 17.3278 18.6724 17.2403 18.4279 17.2403H9.45556C8.88485 17.2383 8.32499 17.3962 7.83949 17.6963C7.354 17.9963 6.96228 18.4263 6.70878 18.9377L4.48617 23.3829H2.04755C1.5045 23.3829 0.983701 23.5986 0.599712 23.9826C0.215723 24.3666 0 24.8874 0 25.4304V30.5493C0 30.8208 0.107861 31.0812 0.299856 31.2732C0.491851 31.4652 0.752251 31.5731 1.02377 31.5731H3.25969C3.46818 32.1715 3.85773 32.6902 4.37432 33.0573C4.89091 33.4244 5.50892 33.6216 6.14264 33.6216C6.77635 33.6216 7.39437 33.4244 7.91095 33.0573C8.42754 32.6902 8.81709 32.1715 9.02558 31.5731ZM24.5705 31.5731C24.3681 31.5731 24.1701 31.513 24.0018 31.4005C23.8334 31.288 23.7022 31.1281 23.6247 30.9411C23.5472 30.754 23.5269 30.5482 23.5664 30.3496C23.6059 30.151 23.7035 29.9686 23.8466 29.8254C23.9898 29.6822 24.1722 29.5847 24.3708 29.5452C24.5694 29.5057 24.7753 29.526 24.9623 29.6035C25.1494 29.6809 25.3093 29.8122 25.4218 29.9805C25.5343 30.1489 25.5943 30.3468 25.5943 30.5493C25.5943 30.8208 25.4865 31.0812 25.2945 31.2732C25.1025 31.4652 24.8421 31.5731 24.5705 31.5731ZM22.8301 23.3829H15.3566V19.2878H18.0491L22.8301 23.3829ZM8.54031 19.8539C8.62471 19.6835 8.7552 19.5401 8.91697 19.44C9.07875 19.3399 9.26534 19.2872 9.45556 19.2878H13.309V23.3829H6.77533L8.54031 19.8539ZM2.04755 25.4304H27.2262L28.6656 26.877V29.5255H27.4535C27.245 28.9271 26.8554 28.4084 26.3389 28.0413C25.8223 27.6742 25.2043 27.477 24.5705 27.477C23.9368 27.477 23.3188 27.6742 22.8022 28.0413C22.2856 28.4084 21.8961 28.9271 21.6876 29.5255H9.02558C8.81709 28.9271 8.42754 28.4084 7.91095 28.0413C7.39437 27.6742 6.77635 27.477 6.14264 27.477C5.50892 27.477 4.89091 27.6742 4.37432 28.0413C3.85773 28.4084 3.46818 28.9271 3.25969 29.5255H2.04755V25.4304ZM6.14264 31.5731C5.94015 31.5731 5.74222 31.513 5.57386 31.4005C5.4055 31.288 5.27428 31.1281 5.19679 30.9411C5.11931 30.754 5.09903 30.5482 5.13854 30.3496C5.17804 30.151 5.27554 29.9686 5.41872 29.8254C5.5619 29.6822 5.74432 29.5847 5.94291 29.5452C6.1415 29.5057 6.34735 29.526 6.53442 29.6035C6.72149 29.6809 6.88138 29.8122 6.99387 29.9805C7.10637 30.1489 7.16641 30.3468 7.16641 30.5493C7.16641 30.8208 7.05855 31.0812 6.86655 31.2732C6.67456 31.4652 6.41416 31.5731 6.14264 31.5731Z" fill="white"/>
</svg>
