<svg width="29" height="20" viewBox="0 0 29 20" fill="none" xmlns="http://www.w3.org/2000/svg">
<path d="M26.1905 9.04762H25.2381C24.8592 9.04762 24.4958 9.19813 24.2279 9.46604C23.96 9.73394 23.8095 10.0973 23.8095 10.4762V10.9524H22.8571V8.57143C22.8571 8.19255 22.7066 7.82918 22.4387 7.56127C22.1708 7.29337 21.8074 7.14286 21.4286 7.14286H20C19.8737 7.14286 19.7526 7.09269 19.6633 7.00338C19.574 6.91408 19.5238 6.79296 19.5238 6.66667V5.71428C19.5238 5.3354 19.3733 4.97204 19.1054 4.70413C18.8375 4.43622 18.4741 4.28571 18.0952 4.28571H16.1905V2.85714H18.5714C18.9503 2.85714 19.3137 2.70663 19.5816 2.43872C19.8495 2.17081 20 1.80745 20 1.42857C20 1.04969 19.8495 0.686328 19.5816 0.418419C19.3137 0.15051 18.9503 0 18.5714 0H9.04762C8.66873 0 8.30537 0.15051 8.03746 0.418419C7.76955 0.686328 7.61904 1.04969 7.61904 1.42857C7.61904 1.80745 7.76955 2.17081 8.03746 2.43872C8.30537 2.70663 8.66873 2.85714 9.04762 2.85714H11.4286V4.28571H9.04762C8.66873 4.28571 8.30537 4.43622 8.03746 4.70413C7.76955 4.97204 7.61904 5.3354 7.61904 5.71428C7.61904 5.84058 7.56887 5.9617 7.47957 6.051C7.39027 6.14031 7.26915 6.19047 7.14285 6.19047H5.71428C5.3354 6.19047 4.97204 6.34098 4.70413 6.60889C4.43622 6.8768 4.28571 7.24017 4.28571 7.61905V9.52381H2.85714V7.61905C2.85714 7.24017 2.70663 6.8768 2.43872 6.60889C2.17081 6.34098 1.80745 6.19047 1.42857 6.19047C1.04969 6.19047 0.686328 6.34098 0.418419 6.60889C0.15051 6.8768 0 7.24017 0 7.61905L0 15.2381C0 15.617 0.15051 15.9803 0.418419 16.2482C0.686328 16.5162 1.04969 16.6667 1.42857 16.6667C1.80745 16.6667 2.17081 16.5162 2.43872 16.2482C2.70663 15.9803 2.85714 15.617 2.85714 15.2381V13.3333H4.28571V15.7143C4.28571 16.0932 4.43622 16.4565 4.70413 16.7244C4.97204 16.9923 5.3354 17.1429 5.71428 17.1429H7.70095C7.82723 17.1429 7.94833 17.1931 8.03762 17.2824L10.3367 19.5814C10.4689 19.7146 10.6263 19.8201 10.7997 19.892C10.9731 19.9638 11.159 20.0005 11.3467 20H21.4286C21.8074 20 22.1708 19.8495 22.4387 19.5816C22.7066 19.3137 22.8571 18.9503 22.8571 18.5714V16.6667H23.8095V17.1429C23.8095 17.5217 23.96 17.8851 24.2279 18.153C24.4958 18.4209 24.8592 18.5714 25.2381 18.5714H26.1905C26.8217 18.5707 27.4269 18.3196 27.8732 17.8732C28.3196 17.4269 28.5707 16.8217 28.5714 16.1905V11.4286C28.5707 10.7973 28.3196 10.1922 27.8732 9.74582C27.4269 9.29947 26.8217 9.04837 26.1905 9.04762ZM8.57142 1.42857C8.57142 1.30228 8.62159 1.18116 8.7109 1.09185C8.8002 1.00255 8.92132 0.952381 9.04762 0.952381H18.5714C18.6977 0.952381 18.8188 1.00255 18.9081 1.09185C18.9974 1.18116 19.0476 1.30228 19.0476 1.42857C19.0476 1.55486 18.9974 1.67599 18.9081 1.76529C18.8188 1.85459 18.6977 1.90476 18.5714 1.90476H9.04762C8.92132 1.90476 8.8002 1.85459 8.7109 1.76529C8.62159 1.67599 8.57142 1.55486 8.57142 1.42857ZM12.3809 2.85714H15.2381V4.28571H12.3809V2.85714ZM1.90476 15.2381C1.90476 15.3644 1.85459 15.4855 1.76529 15.5748C1.67599 15.6641 1.55486 15.7143 1.42857 15.7143C1.30228 15.7143 1.18116 15.6641 1.09185 15.5748C1.00255 15.4855 0.952381 15.3644 0.952381 15.2381V7.61905C0.952381 7.49275 1.00255 7.37163 1.09185 7.28233C1.18116 7.19303 1.30228 7.14286 1.42857 7.14286C1.55486 7.14286 1.67599 7.19303 1.76529 7.28233C1.85459 7.37163 1.90476 7.49275 1.90476 7.61905V15.2381ZM2.85714 12.3809V10.4762H4.28571V12.3809H2.85714ZM21.9048 18.5714C21.9048 18.6977 21.8546 18.8188 21.7653 18.9081C21.676 18.9974 21.5549 19.0476 21.4286 19.0476H11.3467C11.2204 19.0476 11.0993 18.9974 11.01 18.9081L8.71095 16.609C8.57861 16.476 8.42121 16.3705 8.24785 16.2987C8.07449 16.2268 7.88861 16.19 7.70095 16.1905H5.71428C5.58799 16.1905 5.46687 16.1403 5.37757 16.051C5.28826 15.9617 5.23809 15.8406 5.23809 15.7143V7.61905C5.23809 7.49275 5.28826 7.37163 5.37757 7.28233C5.46687 7.19303 5.58799 7.14286 5.71428 7.14286H7.14285C7.52173 7.14286 7.8851 6.99235 8.15301 6.72444C8.42092 6.45653 8.57142 6.09316 8.57142 5.71428C8.57142 5.58799 8.62159 5.46687 8.7109 5.37757C8.8002 5.28826 8.92132 5.23809 9.04762 5.23809H18.0952C18.2215 5.23809 18.3426 5.28826 18.4319 5.37757C18.5213 5.46687 18.5714 5.58799 18.5714 5.71428V6.66667C18.5714 7.04555 18.7219 7.40891 18.9898 7.67682C19.2577 7.94473 19.6211 8.09524 20 8.09524H21.4286C21.5549 8.09524 21.676 8.14541 21.7653 8.23471C21.8546 8.32401 21.9048 8.44513 21.9048 8.57143V18.5714ZM22.8571 15.7143V11.9048H23.8095V15.7143H22.8571ZM27.619 16.1905C27.619 16.5694 27.4685 16.9327 27.2006 17.2006C26.9327 17.4685 26.5693 17.619 26.1905 17.619H25.2381C25.1118 17.619 24.9907 17.5689 24.9014 17.4796C24.8121 17.3903 24.7619 17.2691 24.7619 17.1429V10.4762C24.7619 10.3499 24.8121 10.2288 24.9014 10.1395C24.9907 10.0502 25.1118 10 25.2381 10H26.1905C26.5693 10 26.9327 10.1505 27.2006 10.4184C27.4685 10.6863 27.619 11.0497 27.619 11.4286V16.1905Z" fill="white"/>
<path d="M15.1167 13.3244C15.1167 12.8844 15.0167 12.5444 14.8167 12.3044C14.6167 12.0644 14.3327 11.9444 13.9647 11.9444V11.1164C14.6687 11.1164 15.2167 11.3124 15.6087 11.7044C16.0087 12.0964 16.2087 12.6444 16.2087 13.3484L15.1167 13.3244ZM13.9647 16.1804C13.2607 16.1804 12.7087 15.9804 12.3087 15.5804C11.9167 15.1724 11.7207 14.6044 11.7207 13.8764L12.8127 13.8524C12.8127 14.1404 12.8567 14.3884 12.9447 14.5964C13.0407 14.8044 13.1727 14.9644 13.3407 15.0764C13.5167 15.1804 13.7247 15.2324 13.9647 15.2324V16.1804ZM11.7207 13.8764V13.3484L12.8127 13.3244V13.8524L11.7207 13.8764ZM13.9647 16.1804V15.2324C14.2047 15.2324 14.4087 15.1804 14.5767 15.0764C14.7527 14.9644 14.8847 14.8044 14.9727 14.5964C15.0687 14.3884 15.1167 14.1404 15.1167 13.8524L16.2087 13.8764C16.2087 14.6044 16.0087 15.1724 15.6087 15.5804C15.2167 15.9804 14.6687 16.1804 13.9647 16.1804ZM11.7207 13.3484C11.7207 12.6444 11.9167 12.0964 12.3087 11.7044C12.7087 11.3124 13.2607 11.1164 13.9647 11.1164V11.9444C13.6047 11.9444 13.3207 12.0644 13.1127 12.3044C12.9127 12.5444 12.8127 12.8844 12.8127 13.3244L11.7207 13.3484ZM15.1167 13.8524V13.3244L16.2087 13.3484V13.8764L15.1167 13.8524ZM13.9647 11.9444C13.3167 11.9444 12.7967 11.7524 12.4047 11.3684C12.0207 10.9844 11.8287 10.4764 11.8287 9.84435L12.9207 9.88035C12.9207 10.2804 13.0087 10.5884 13.1847 10.8044C13.3687 11.0124 13.6287 11.1164 13.9647 11.1164V11.9444ZM11.8287 9.84435V9.50835L12.9207 9.53235V9.88035L11.8287 9.84435ZM13.9647 11.9444V11.1164C14.3087 11.1164 14.5687 11.0124 14.7447 10.8044C14.9207 10.5884 15.0087 10.2804 15.0087 9.88035L16.1007 9.84435C16.1007 10.4764 15.9087 10.9844 15.5247 11.3684C15.1407 11.7524 14.6207 11.9444 13.9647 11.9444ZM11.8287 9.50835C11.8287 8.85235 12.0207 8.33235 12.4047 7.94835C12.7967 7.55635 13.3167 7.36035 13.9647 7.36035V8.30835C13.7407 8.30835 13.5487 8.35635 13.3887 8.45235C13.2367 8.54035 13.1207 8.67635 13.0407 8.86035C12.9607 9.04435 12.9207 9.26835 12.9207 9.53235L11.8287 9.50835ZM15.0087 9.88035V9.53235L16.1007 9.50835V9.84435L15.0087 9.88035ZM15.0087 9.53235C15.0087 9.26835 14.9687 9.04435 14.8887 8.86035C14.8087 8.67635 14.6927 8.54035 14.5407 8.45235C14.3887 8.35635 14.1967 8.30835 13.9647 8.30835V7.36035C14.6207 7.36035 15.1407 7.55635 15.5247 7.94835C15.9087 8.33235 16.1007 8.85235 16.1007 9.50835L15.0087 9.53235Z" fill="white"/>
</svg>
