<svg width="126" height="8" viewBox="0 0 126 8" fill="none" xmlns="http://www.w3.org/2000/svg">
<g opacity="0.6">
<path d="M8.33838 7.60401C8.33838 7.75741 8.24318 7.83411 8.05278 7.83411H6.70879C6.56692 7.83411 6.41012 7.78595 6.23839 7.68963C6.07039 7.58974 5.94159 7.47023 5.85199 7.3311L4.89999 5.90769C4.50799 5.32263 4.03386 5.0301 3.47759 5.0301H2.1112V7.3311C2.1112 7.47023 2.05893 7.58974 1.9544 7.68963C1.8536 7.78595 1.7304 7.83411 1.5848 7.83411H0.531999C0.386399 7.83411 0.261333 7.78595 0.1568 7.68963C0.0522666 7.58974 0 7.47023 0 7.3311V0.668896C0 0.529766 0.0503999 0.410256 0.1512 0.310368C0.251999 0.210479 0.375199 0.160535 0.520799 0.160535H5.14079C5.99572 0.160535 6.69572 0.379933 7.24078 0.818729C7.78958 1.25753 8.06398 1.84972 8.06398 2.59532C8.06398 3.63345 7.36025 4.2845 5.95279 4.5485C6.17679 4.62698 6.38399 4.76254 6.57439 4.95518C6.76479 5.14426 6.98318 5.42074 7.22958 5.78462L8.24878 7.3311C8.30852 7.43099 8.33838 7.52196 8.33838 7.60401ZM2.1112 3.51572H4.49679C4.88132 3.51572 5.21919 3.44259 5.51039 3.29632C5.80532 3.15006 5.95279 2.91639 5.95279 2.59532C5.95279 2.27425 5.80532 2.04058 5.51039 1.89431C5.21919 1.74805 4.88132 1.67492 4.49679 1.67492H2.1112V3.51572Z" fill="white"/>
<path d="M15.008 7.3311V0.668896C15.008 0.529766 15.0584 0.410256 15.1592 0.310368C15.26 0.210479 15.3832 0.160535 15.5288 0.160535H17.1752C17.3058 0.160535 17.444 0.210479 17.5896 0.310368C17.7352 0.410256 17.8546 0.529766 17.948 0.668896L21.3304 5.64013V0.658194C21.3304 0.519064 21.3808 0.401338 21.4816 0.305017C21.5861 0.208696 21.7112 0.160535 21.8568 0.160535H22.82C22.9655 0.160535 23.0887 0.208696 23.1895 0.305017C23.2941 0.401338 23.3463 0.522631 23.3463 0.668896V7.3311C23.3463 7.47023 23.2941 7.58974 23.1895 7.68963C23.0887 7.78595 22.9655 7.83411 22.82 7.83411H20.9608C20.8152 7.83411 20.6658 7.78595 20.5128 7.68963C20.3597 7.58974 20.2384 7.47023 20.1488 7.3311L17.052 2.7398V7.3311C17.052 7.47023 16.9997 7.58974 16.8952 7.68963C16.7944 7.78595 16.6712 7.83411 16.5256 7.83411H15.54C15.3944 7.83411 15.2693 7.78595 15.1648 7.68963C15.0602 7.58974 15.008 7.47023 15.008 7.3311Z" fill="white"/>
<path d="M30.6879 7.34181V0.679599C30.6879 0.533333 30.7402 0.410256 30.8447 0.310368C30.9493 0.210479 31.0743 0.160535 31.2199 0.160535H34.3503C35.9706 0.160535 37.1485 0.470903 37.8839 1.09164C38.6231 1.70881 38.9927 2.67915 38.9927 4.00268C38.9927 5.32263 38.6231 6.29119 37.8839 6.90836C37.1485 7.52553 35.9706 7.83411 34.3503 7.83411H31.2199C31.0743 7.83411 30.9493 7.78774 30.8447 7.69498C30.7402 7.59866 30.6879 7.48094 30.6879 7.34181ZM32.7991 6.31973H34.2887C35.293 6.31973 35.9762 6.14493 36.3383 5.79532C36.7005 5.44571 36.8815 4.84816 36.8815 4.00268C36.8815 3.15362 36.7005 2.55429 36.3383 2.20468C35.9762 1.85151 35.293 1.67492 34.2887 1.67492H32.7991V6.31973Z" fill="white"/>
<path d="M54.1855 7.59866C54.1855 7.75563 54.0884 7.83411 53.8943 7.83411H52.6119C52.4663 7.83411 52.3095 7.78595 52.1415 7.68963C51.9735 7.58974 51.8428 7.47023 51.7495 7.3311L50.7639 5.83813C50.5287 5.47425 50.2916 5.20134 50.0527 5.0194C49.8138 4.83389 49.5263 4.74114 49.1903 4.74114H47.9863V7.34181C47.9863 7.48094 47.934 7.59866 47.8295 7.69498C47.7287 7.78774 47.6055 7.83411 47.4599 7.83411H46.4071C46.2615 7.83411 46.1364 7.78417 46.0319 7.68428C45.9274 7.58083 45.8751 7.45953 45.8751 7.3204V0.668896C45.8751 0.529766 45.9274 0.408473 46.0319 0.305017C46.1364 0.201561 46.2615 0.149833 46.4071 0.149833H47.4599C47.6055 0.149833 47.7287 0.201561 47.8295 0.305017C47.934 0.408473 47.9863 0.529766 47.9863 0.668896V3.23211H49.1903C49.5188 3.23211 49.8063 3.14649 50.0527 2.97525C50.3028 2.80401 50.5399 2.52754 50.7639 2.14582L51.6319 0.668896C51.8298 0.326421 52.0986 0.1534 52.4383 0.149833H53.7319C53.9111 0.149833 54.0007 0.224749 54.0007 0.374582C54.0007 0.456633 53.9689 0.554738 53.9055 0.668896L52.6903 2.77191C52.5148 3.07871 52.317 3.332 52.0967 3.53177C51.8802 3.73155 51.5964 3.87246 51.2455 3.95452C51.4919 4.00446 51.7439 4.15251 52.0015 4.39866C52.2628 4.64482 52.4924 4.91237 52.6903 5.20134L54.0903 7.3311C54.1538 7.43456 54.1855 7.52375 54.1855 7.59866Z" fill="white"/>
<path d="M61.1351 6.92977C60.4444 6.29833 60.0991 5.32263 60.0991 4.00268C60.0991 2.67915 60.4444 1.70167 61.1351 1.07023C61.8295 0.435229 62.8692 0.117726 64.2543 0.117726H65.5031C66.3505 0.117726 67.0991 0.328205 67.7486 0.749164C68.402 1.17012 68.7287 1.74627 68.7287 2.47759C68.7287 2.68807 68.6633 2.83969 68.5327 2.93244C68.402 3.02163 68.275 3.06622 68.1518 3.06622H67.4855C67.142 3.06622 66.8751 2.87001 66.6847 2.47759C66.4084 1.91394 65.9492 1.63211 65.3071 1.63211H64.3103C63.4927 1.63211 62.9383 1.79978 62.6471 2.13512C62.3559 2.47046 62.2103 3.09119 62.2103 3.99732C62.2103 4.90346 62.3559 5.52598 62.6471 5.86488C62.9383 6.20022 63.4927 6.36789 64.3103 6.36789H65.4247C66.0668 6.36789 66.5241 6.08607 66.7967 5.52241C66.9871 5.12642 67.2559 4.92843 67.6031 4.92843H68.2695C68.4449 4.92843 68.5831 4.99086 68.6839 5.11572C68.7884 5.24058 68.8407 5.37614 68.8407 5.52241C68.8407 6.25374 68.5158 6.82988 67.8662 7.25084C67.2167 7.66823 66.4681 7.87692 65.6207 7.87692H64.2543C62.8692 7.87692 61.8295 7.5612 61.1351 6.92977Z" fill="white"/>
<path d="M76.7702 6.10033C77.2742 6.10033 77.5262 6.34292 77.5262 6.82809V7.16522C77.5262 7.38997 77.4609 7.56656 77.3302 7.69498C77.2033 7.82341 77.0166 7.88763 76.7702 7.88763H76.0814C75.835 7.88763 75.6465 7.82341 75.5158 7.69498C75.3889 7.56656 75.3254 7.38997 75.3254 7.16522V6.82809C75.3254 6.59264 75.3908 6.41249 75.5214 6.28763C75.6521 6.16277 75.8388 6.10033 76.0814 6.10033H76.7702Z" fill="white"/>
<path d="M85.103 6.92977C84.4123 6.29833 84.067 5.32263 84.067 4.00268C84.067 2.67915 84.4123 1.70167 85.103 1.07023C85.7974 0.435229 86.8371 0.117726 88.2222 0.117726H89.471C90.3185 0.117726 91.067 0.328205 91.7166 0.749164C92.3699 1.17012 92.6966 1.74627 92.6966 2.47759C92.6966 2.68807 92.6313 2.83969 92.5006 2.93244C92.3699 3.02163 92.243 3.06622 92.1198 3.06622H91.4534C91.1099 3.06622 90.843 2.87001 90.6526 2.47759C90.3763 1.91394 89.9171 1.63211 89.275 1.63211H88.2782C87.4606 1.63211 86.9062 1.79978 86.615 2.13512C86.3238 2.47046 86.1782 3.09119 86.1782 3.99732C86.1782 4.90346 86.3238 5.52598 86.615 5.86488C86.9062 6.20022 87.4606 6.36789 88.2782 6.36789H89.3926C90.0347 6.36789 90.4921 6.08607 90.7646 5.52241C90.955 5.12642 91.2238 4.92843 91.571 4.92843H92.2374C92.4129 4.92843 92.551 4.99086 92.6518 5.11572C92.7563 5.24058 92.8086 5.37614 92.8086 5.52241C92.8086 6.25374 92.4838 6.82988 91.8342 7.25084C91.1846 7.66823 90.4361 7.87692 89.5886 7.87692H88.2222C86.8371 7.87692 85.7974 7.5612 85.103 6.92977Z" fill="white"/>
<path d="M107.044 7.04214C106.282 7.68071 105.162 8 103.684 8C102.209 8 101.089 7.68071 100.324 7.04214C99.5585 6.4 99.1758 5.38506 99.1758 3.99732C99.1758 2.60959 99.5585 1.59643 100.324 0.95786C101.089 0.319286 102.209 0 103.684 0C105.162 0 106.282 0.319286 107.044 0.95786C107.809 1.59643 108.192 2.60959 108.192 3.99732C108.192 5.38506 107.809 6.4 107.044 7.04214ZM105.515 2.08696C105.138 1.65886 104.528 1.44482 103.684 1.44482C102.844 1.44482 102.233 1.65886 101.853 2.08696C101.476 2.51505 101.287 3.15362 101.287 4.00268C101.287 4.84816 101.476 5.48495 101.853 5.91304C102.233 6.33757 102.844 6.54983 103.684 6.54983C104.528 6.54983 105.138 6.33757 105.515 5.91304C105.892 5.48495 106.081 4.84816 106.081 4.00268C106.081 3.15362 105.892 2.51505 105.515 2.08696Z" fill="white"/>
<path d="M115.08 7.3204V0.679599C115.08 0.533333 115.13 0.410256 115.231 0.310368C115.332 0.210479 115.455 0.160535 115.601 0.160535H117.88C118.025 0.160535 118.163 0.210479 118.294 0.310368C118.425 0.410256 118.513 0.529766 118.557 0.668896L120.209 5.2388L121.861 0.668896C121.906 0.529766 121.994 0.410256 122.125 0.310368C122.255 0.210479 122.393 0.160535 122.539 0.160535H124.818C124.964 0.160535 125.085 0.210479 125.182 0.310368C125.283 0.410256 125.333 0.533333 125.333 0.679599V7.3204C125.333 7.46667 125.281 7.58974 125.177 7.68963C125.076 7.78595 124.953 7.83411 124.807 7.83411H123.799C123.653 7.83411 123.528 7.78595 123.424 7.68963C123.323 7.58974 123.273 7.46667 123.273 7.3204V2.09231L121.296 7.35251C121.243 7.4845 121.152 7.59866 121.021 7.69498C120.891 7.78774 120.753 7.83411 120.607 7.83411H119.806C119.661 7.83411 119.522 7.78774 119.392 7.69498C119.265 7.59866 119.173 7.4845 119.117 7.35251L117.146 2.09231V7.3204C117.146 7.46667 117.094 7.58974 116.989 7.68963C116.889 7.78595 116.765 7.83411 116.62 7.83411H115.612C115.466 7.83411 115.341 7.78595 115.237 7.68963C115.132 7.58974 115.08 7.46667 115.08 7.3204Z" fill="white"/>
</g>
</svg>
