<svg width="70" height="70" viewBox="0 0 70 70" fill="none" xmlns="http://www.w3.org/2000/svg">
<g clip-path="url(#clip0_151_30569)">
<path d="M53.7515 59.9968C53.7515 60.6872 54.3111 61.2467 55.0014 61.2467H63.7507C64.441 61.2467 65.0006 60.6872 65.0006 59.9968V56.2471H53.7515V59.9968Z" fill="#FF9D0B"/>
<path d="M16.2544 50.4221C17.7165 51.2652 18.9921 52.3962 20.0041 53.7468H66.2505C66.9409 53.7468 67.5004 53.1872 67.5004 52.4969V49.9971H16.2544V50.4221Z" fill="#FF9D0B"/>
<path d="M14.4507 52.2898C14.0234 52.0781 13.7538 51.6418 13.7557 51.1649V18.8275C13.7539 18.3506 14.0234 17.9143 14.4507 17.7026C17.7493 16.0574 19.8784 12.7341 19.994 9.0499C20.1097 5.36557 18.1933 1.91531 15.0043 0.0665214V6.25103C15.006 7.62143 14.445 8.93252 13.4527 9.87764C12.4603 10.8228 11.1234 11.3191 9.75462 11.2506C7.04364 11.0521 4.9593 8.77137 5.00503 6.05348V0.0664062C1.80565 1.91381 -0.116284 5.37317 0.00547074 9.06568C0.169846 12.728 2.29589 16.0172 5.5675 17.6712C5.98943 17.8839 6.2554 18.3162 6.25494 18.7887V51.2087C6.25471 51.6799 5.98943 52.1111 5.56876 52.3236C2.29624 53.9775 0.169731 57.2674 0.00547074 60.9304C-0.116399 64.6229 1.80553 68.0824 5.00503 69.9297V63.9426C4.95503 61.2298 7.03155 58.9498 9.73711 58.7468C11.1088 58.6733 12.4503 59.1674 13.4466 60.1131C14.4428 61.0588 15.0061 62.3728 15.0041 63.7464V69.9335C18.1956 68.0853 20.1138 64.6333 19.9979 60.9471C19.8819 57.2609 17.7506 53.9364 14.4493 52.2924L14.4507 52.2898Z" fill="#FF9D0B"/>
<path d="M16.2544 19.5744V24.4077C21.754 23.9728 28.0447 23.7491 35.0029 23.7491C43.4286 23.659 51.8515 24.0982 60.2222 25.064L55.8601 13.6973C55.5326 12.849 54.7691 12.2463 53.8678 12.125C47.6042 11.4381 41.3034 11.1459 35.003 11.25C30.1747 11.25 25.8788 11.365 22.1628 11.5837C21.3952 14.9554 19.253 17.8525 16.2544 19.5744ZM33.3856 14.1162C33.8735 14.6042 33.8735 15.3954 33.3856 15.8835L28.386 20.8831C27.8955 21.3567 27.116 21.3499 26.6339 20.8678C26.1517 20.3857 26.145 19.6062 26.6187 19.1157L31.6182 14.1162C31.8526 13.8814 32.1708 13.7496 32.5025 13.7496C32.8343 13.7496 33.1524 13.8815 33.3868 14.1162H33.3856ZM24.1187 15.3661L25.3686 14.1162C25.8591 13.6425 26.6386 13.6493 27.1208 14.1314C27.6029 14.6135 27.6096 15.393 27.136 15.8835L25.8861 17.1334C25.3956 17.6071 24.6161 17.6003 24.1339 17.1182C23.6518 16.636 23.645 15.8564 24.1187 15.3661Z" fill="#FF9D0B"/>
<path d="M65.444 25.8823C65.5351 25.8313 65.6214 25.7718 65.7015 25.7048C66.2408 25.1689 66.4029 24.3604 66.1123 23.658C65.8217 22.9556 65.1355 22.4982 64.3753 22.5H61.9155L63.0542 25.4673C63.9217 25.6048 64.7216 25.7498 65.444 25.8823Z" fill="#FF9D0B"/>
<path d="M69.1089 29.3113C66.018 28.3914 56.5112 26.249 35.0029 26.249C28.0259 26.249 21.7339 26.4753 16.2544 26.9164V37.2619C16.8255 36.3197 17.5264 35.4625 18.3368 34.7159C19.0305 34.0917 19.931 33.747 20.864 33.7484H49.1418C50.0751 33.7475 50.9756 34.0926 51.6691 34.717C53.7717 36.8816 55.2598 39.5672 55.98 42.4977H70.0002V30.5099C70.0036 29.9564 69.6401 29.4674 69.1089 29.3113ZM37.5027 31.2487H32.5031C31.8128 31.2487 31.2532 30.6891 31.2532 29.9988C31.2532 29.3084 31.8128 28.7489 32.5031 28.7489H37.5027C38.193 28.7489 38.7526 29.3084 38.7526 29.9988C38.7526 30.6891 38.193 31.2487 37.5027 31.2487ZM63.7506 39.998H61.2509C59.18 39.998 57.5011 38.3192 57.5011 36.2483V34.9983C57.5011 33.6177 58.6203 32.4985 60.0009 32.4985H63.7507C65.8216 32.4985 67.5004 34.1773 67.5004 36.2483C67.5004 38.3192 65.8216 39.998 63.7506 39.998Z" fill="#FF9D0B"/>
<path d="M63.7502 34.999H60.0005V36.2489C60.0005 36.9393 60.5601 37.4989 61.2504 37.4989H63.7502C64.4406 37.4989 65.0002 36.9393 65.0002 36.2489C65.0002 35.5586 64.4406 34.999 63.7502 34.999Z" fill="#FF9D0B"/>
<path d="M16.2544 44.998V47.4979H68.7502C69.4406 47.4979 70.0002 46.9383 70.0002 46.248V44.998H16.2544Z" fill="#FF9D0B"/>
<path d="M49.1419 36.249H20.8641C20.5484 36.2486 20.2438 36.3653 20.0092 36.5765C18.4055 38.2372 17.2436 40.2732 16.6294 42.4985H53.3765C52.7639 40.274 51.6036 38.2384 50.0018 36.5777C49.7661 36.3649 49.4595 36.2477 49.1419 36.249Z" fill="#FF9D0B"/>
</g>
<defs>
<clipPath id="clip0_151_30569">
<rect width="70" height="70" fill="white"/>
</clipPath>
</defs>
</svg>
