<svg width="75" height="39" viewBox="0 0 75 39" fill="none" xmlns="http://www.w3.org/2000/svg">
<path d="M2.256 36H1.184V25.84L5.44 25.792C6.112 25.7707 6.61333 25.9093 6.944 26.208C7.27467 26.5067 7.44 26.9813 7.44 27.632V29.872C7.44 30.48 7.29067 30.9333 6.992 31.232C6.69333 31.5307 6.23467 31.696 5.616 31.728L5.632 31.488C5.86667 31.5413 6.048 31.6533 6.176 31.824C6.304 31.9947 6.42667 32.2507 6.544 32.592L7.728 36H6.656L5.248 31.92C5.216 31.856 5.184 31.8133 5.152 31.792C5.13067 31.76 5.072 31.744 4.976 31.744H1.952L2.24 31.52L2.256 36ZM2.24 26.48V31.072L2.048 30.848H6.128C6.26667 30.848 6.336 30.7787 6.336 30.64V26.912C6.336 26.7733 6.26667 26.704 6.128 26.704H2.048L2.24 26.48ZM14.215 36.08H10.999C10.3697 36.08 9.90567 35.9627 9.607 35.728C9.319 35.4933 9.175 35.0667 9.175 34.448V29.664C9.175 29.0453 9.303 28.624 9.559 28.4C9.815 28.176 10.2523 28.064 10.871 28.064H12.631C13.2603 28.064 13.7083 28.176 13.975 28.4C14.2523 28.624 14.391 29.0453 14.391 29.664V32.88H10.087V32.096H13.351V29.04C13.351 28.9547 13.3083 28.912 13.223 28.912H10.359C10.2737 28.912 10.231 28.9547 10.231 29.04V35.088C10.231 35.184 10.2737 35.232 10.359 35.232H14.215V36.08ZM18.2781 28.064H19.5421C20.1395 28.064 20.5715 28.176 20.8381 28.4C21.1048 28.6133 21.2381 29.0187 21.2381 29.616V36H20.2141V29.04C20.2141 28.9547 20.1661 28.912 20.0701 28.912H17.1741C17.0781 28.912 17.0301 28.9547 17.0301 29.04L17.0461 36H16.0061V28.16H16.8861L17.0301 28.912L16.8701 29.456C16.8701 28.9547 16.9821 28.5973 17.2061 28.384C17.4301 28.1707 17.7875 28.064 18.2781 28.064ZM26.3193 28.16V28.976H24.2713L24.4313 28.816V35.008C24.4313 35.0933 24.4739 35.136 24.5593 35.136H26.3193V36H25.2313C24.5913 36 24.1273 35.8827 23.8393 35.648C23.5513 35.4027 23.4073 34.976 23.4073 34.368V28.816L23.5673 28.976H22.4153V28.16H23.5673L23.4073 28.32V26.16H24.4313V28.32L24.2713 28.16H26.3193ZM29.7998 36.096H28.5678C27.9811 36.096 27.5491 35.984 27.2718 35.76C27.0051 35.536 26.8717 35.1307 26.8717 34.544V33.104C26.8717 32.496 27.0104 32.08 27.2878 31.856C27.5651 31.632 28.0131 31.52 28.6318 31.52H31.1758V32.304H28.0398C27.9544 32.304 27.9118 32.352 27.9118 32.448V35.12C27.9118 35.2053 27.9544 35.248 28.0398 35.248H31.0318V29.152C31.0318 29.056 30.9891 29.008 30.9038 29.008H27.2878V28.16H30.3118C30.9411 28.1493 31.3944 28.2613 31.6718 28.496C31.9491 28.72 32.0878 29.1467 32.0878 29.776V36H31.1758L31.0318 35.248L31.1438 34.704C31.1438 35.1947 31.0424 35.552 30.8398 35.776C30.6371 35.9893 30.2904 36.096 29.7998 36.096ZM34.9866 36H33.9626V25.2H34.9866V36ZM41.2355 30.416H44.0035C44.6755 30.416 45.1875 30.5547 45.5395 30.832C45.8915 31.1093 46.0675 31.5573 46.0675 32.176V34.208C46.0675 34.8587 45.9022 35.3333 45.5715 35.632C45.2408 35.9307 44.7395 36.0693 44.0675 36.048L40.0355 36V35.072H44.7555C44.8942 35.072 44.9635 35.008 44.9635 34.88V31.584C44.9635 31.4453 44.8942 31.376 44.7555 31.376H41.9235C41.2515 31.376 40.7502 31.248 40.4195 30.992C40.0888 30.736 39.9235 30.2827 39.9235 29.632V27.664C39.9235 27.0453 40.0995 26.576 40.4515 26.256C40.8035 25.9253 41.3155 25.7707 41.9875 25.792L45.7955 25.84V26.768H41.2355C41.0968 26.768 41.0275 26.832 41.0275 26.96V30.208C41.0275 30.3467 41.0968 30.416 41.2355 30.416ZM51.0068 28.16V28.976H48.9588L49.1188 28.816V35.008C49.1188 35.0933 49.1614 35.136 49.2468 35.136H51.0068V36H49.9188C49.2788 36 48.8148 35.8827 48.5268 35.648C48.2388 35.4027 48.0948 34.976 48.0948 34.368V28.816L48.2548 28.976H47.1028V28.16H48.2548L48.0948 28.32V26.16H49.1188V28.32L48.9588 28.16H51.0068ZM54.4873 36.096H53.2553C52.6686 36.096 52.2366 35.984 51.9593 35.76C51.6926 35.536 51.5592 35.1307 51.5592 34.544V33.104C51.5592 32.496 51.6979 32.08 51.9753 31.856C52.2526 31.632 52.7006 31.52 53.3193 31.52H55.8633V32.304H52.7273C52.6419 32.304 52.5993 32.352 52.5993 32.448V35.12C52.5993 35.2053 52.6419 35.248 52.7273 35.248H55.7193V29.152C55.7193 29.056 55.6766 29.008 55.5913 29.008H51.9753V28.16H54.9993C55.6286 28.1493 56.0819 28.2613 56.3593 28.496C56.6366 28.72 56.7753 29.1467 56.7753 29.776V36H55.8633L55.7193 35.248L55.8313 34.704C55.8313 35.1947 55.7299 35.552 55.5273 35.776C55.3246 35.9893 54.9779 36.096 54.4873 36.096ZM61.8661 28.16V28.976H59.8181L59.9781 28.816V35.008C59.9781 35.0933 60.0208 35.136 60.1061 35.136H61.8661V36H60.7781C60.1381 36 59.6741 35.8827 59.3861 35.648C59.0981 35.4027 58.9541 34.976 58.9541 34.368V28.816L59.1141 28.976H57.9621V28.16H59.1141L58.9541 28.32V26.16H59.9781V28.32L59.8181 28.16H61.8661ZM65.6826 36.096H64.4026C63.816 36.096 63.384 35.984 63.1066 35.76C62.84 35.536 62.7066 35.1307 62.7066 34.544V28.16H63.7466V35.12C63.7466 35.2053 63.7893 35.248 63.8746 35.248H66.9306L66.9146 28.16H67.9546V36H67.0746L66.9306 35.248L67.0266 34.704C67.0266 35.1947 66.9253 35.552 66.7226 35.776C66.52 35.9893 66.1733 36.096 65.6826 36.096ZM72.715 36.064H69.531V35.232H73.243C73.3283 35.232 73.371 35.184 73.371 35.088V32.544C73.371 32.4587 73.3283 32.416 73.243 32.416H71.179C70.5603 32.416 70.1123 32.304 69.835 32.08C69.5577 31.8453 69.419 31.4293 69.419 30.832V29.68C69.419 29.0613 69.5577 28.64 69.835 28.416C70.123 28.1813 70.5763 28.064 71.195 28.064H74.059V28.928H70.603C70.507 28.928 70.459 28.9707 70.459 29.056V31.456C70.459 31.552 70.507 31.6 70.603 31.6H72.651C73.2803 31.6 73.7283 31.712 73.995 31.936C74.2723 32.1493 74.411 32.5653 74.411 33.184V34.512C74.411 35.0987 74.2777 35.504 74.011 35.728C73.7443 35.952 73.3123 36.064 72.715 36.064Z" fill="white"/>
<path d="M31.0498 14.1998V3.47496H32.8198L37.6197 3.45996C39.5597 3.45996 41.0647 3.91496 42.1347 4.82494C43.2046 5.73493 43.7396 7.06991 43.7396 8.82989C43.7396 10.5899 43.2046 11.9249 42.1347 12.8348C41.0647 13.7448 39.5597 14.1998 37.6197 14.1998H31.0498ZM37.4547 5.40994H33.4498V12.2498H37.4547C38.7147 12.2498 39.6697 11.9749 40.3197 11.4249C40.9697 10.8749 41.2947 10.0099 41.2947 8.82989C41.2947 7.63991 40.9697 6.77492 40.3197 6.23493C39.6697 5.68493 38.7147 5.40994 37.4547 5.40994Z" fill="white"/>
<path fill-rule="evenodd" clip-rule="evenodd" d="M29 1.49998H45.1998C45.4759 1.49998 45.6998 1.72383 45.6998 1.99997V15.7998C45.6998 16.0759 45.4759 16.2998 45.1998 16.2998H39.3322L40.8938 17.7998H45.1998C46.3043 17.7998 47.1997 16.9044 47.1997 15.7998V1.99997C47.1997 0.895419 46.3043 0 45.1998 0H29C27.8954 0 27 0.895418 27 1.99997V15.7998C27 16.9044 27.8954 17.7998 29 17.7998H33.3663L35.0307 16.2998H29C28.7238 16.2998 28.5 16.0759 28.5 15.7998V1.99997C28.5 1.72384 28.7238 1.49998 29 1.49998Z" fill="white"/>
<path d="M37.0762 15.5996L39.8042 18.8996H34.3483L37.0762 15.5996Z" fill="white"/>
</svg>
