<svg width="136" height="45" viewBox="0 0 136 45" fill="none" xmlns="http://www.w3.org/2000/svg">
<path d="M9.1123 31.9502V7.81891H13.0948L23.8948 7.78516C28.2598 7.78516 31.6461 8.80891 34.0536 10.8564C36.4611 12.9039 37.6648 15.9077 37.6648 19.8677C37.6648 23.8277 36.4611 26.8314 34.0536 28.8789C31.6461 30.9264 28.2598 31.9502 23.8948 31.9502H9.1123ZM23.5236 12.1727H14.5123V27.5627H23.5236C26.3586 27.5627 28.5073 26.9439 29.9698 25.7064C31.4323 24.4689 32.1636 22.5227 32.1636 19.8677C32.1636 17.1902 31.4323 15.2439 29.9698 14.0289C28.5073 12.7914 26.3586 12.1727 23.5236 12.1727Z" fill="white"/>
<path fill-rule="evenodd" clip-rule="evenodd" d="M4.5 3.375H40.95C41.5713 3.375 42.075 3.87868 42.075 4.5V35.55C42.075 36.1713 41.5713 36.675 40.95 36.675H27.7478L31.2615 40.05H40.95C43.4353 40.05 45.45 38.0353 45.45 35.55V4.5C45.45 2.01472 43.4353 0 40.95 0H4.5C2.01472 0 0 2.01472 0 4.5V35.55C0 38.0353 2.01472 40.05 4.5 40.05H14.3245L18.0693 36.675H4.5C3.87868 36.675 3.375 36.1713 3.375 35.55V4.5C3.375 3.87868 3.87868 3.375 4.5 3.375Z" fill="#FF9D0B"/>
<path d="M22.6715 35.1016L28.8094 42.5266H16.5335L22.6715 35.1016Z" fill="white"/>
<path d="M50.4004 30.0773V10.2773H66.9881C69.0373 10.2773 70.625 10.7943 71.7512 11.8281C72.8958 12.862 73.4681 14.4312 73.4681 16.5358C73.4681 18.3266 73.0527 19.7297 72.2219 20.745C71.3912 21.7604 70.2096 22.3973 68.6773 22.6558L73.2465 30.0773H68.2065L63.9696 22.7943H54.8312V30.0773H50.4004ZM66.4619 13.8773H54.8312V19.1666L66.4619 19.1943C67.2742 19.1943 67.8927 18.9912 68.3173 18.585C68.7604 18.1789 68.9819 17.4958 68.9819 16.5358C68.9819 15.5573 68.7604 14.8743 68.3173 14.4866C67.8927 14.0804 67.2742 13.8773 66.4619 13.8773Z" fill="white"/>
<path d="M78.1792 30.0773V10.2773H82.61V30.0773H78.1792Z" fill="white"/>
<path d="M94.8446 30.0773L85.9277 10.2773H90.7461L98.0846 26.6158H98.4446L105.783 10.2773H110.602L101.685 30.0773H94.8446Z" fill="white"/>
<path d="M113.914 30.0773V10.2773H135.625V13.8773H118.345V18.2527H134.019V21.8527H118.345V26.4773H135.625V30.0773H113.914Z" fill="white"/>
</svg>
