<svg width="133" height="36" viewBox="0 0 133 36" fill="none" xmlns="http://www.w3.org/2000/svg">
<path d="M20.165 0H6.30423C5.67504 0 5.16494 0.5101 5.16494 1.13929C5.16494 1.76849 5.67504 2.27859 6.30423 2.27859H12.2264C10.9769 3.06108 9.85034 4.02207 8.88296 5.12613H1.13929C0.5101 5.1262 0 5.63637 0 6.26557C0 6.89476 0.5101 7.40486 1.13929 7.40486H7.2348C5.92037 9.634 5.16487 12.2303 5.16487 15C5.16487 18.2229 6.18679 21.2115 7.9232 23.6592H4.69062C4.06143 23.6592 3.55133 24.1693 3.55133 24.7985C3.55133 25.4277 4.06143 25.9378 4.69062 25.9378H9.91174C10.6221 26.6042 11.3972 27.2021 12.2264 27.7214H1.25681C0.627614 27.7214 0.117515 28.2315 0.117515 28.8607C0.117515 29.4899 0.627614 30 1.25681 30H20.165C28.4361 30 35.165 23.271 35.165 15C35.165 6.72896 28.436 0 20.165 0ZM25.6992 22.4767C25.6783 22.4945 25.6575 22.5123 25.6349 22.5286C25.6094 22.5471 25.5834 22.5643 25.5571 22.5804C24.0349 23.6663 22.1732 24.3059 20.165 24.3059C18.1567 24.3059 16.2952 23.6663 14.7728 22.5804C14.7465 22.5643 14.7205 22.5471 14.6951 22.5286C14.6726 22.5122 14.6517 22.4943 14.6307 22.4767C12.344 20.7796 10.8591 18.0601 10.8591 15C10.8591 9.86875 15.0337 5.69413 20.165 5.69413C25.2963 5.69413 29.4709 9.86875 29.4709 15C29.4709 18.0602 27.986 20.7796 25.6992 22.4767Z" fill="#FF9D0B"/>
<path d="M20.165 13.2793C19.2165 13.2793 18.4448 14.0509 18.4448 14.9994C18.4448 15.9479 19.2165 16.7196 20.165 16.7196C21.1135 16.7196 21.8851 15.9479 21.8851 14.9994C21.8851 14.0509 21.1135 13.2793 20.165 13.2793Z" fill="white"/>
<path d="M21.3042 8.06641V11.1683C22.1876 11.4313 22.9438 11.9917 23.4562 12.7334L26.4065 11.7747C25.4031 9.84121 23.5275 8.43035 21.3042 8.06641Z" fill="white"/>
<path d="M27.1125 13.9414L24.1613 14.9003C24.1621 14.9339 24.1639 14.9672 24.1639 15.0008C24.1639 15.9141 23.8556 16.7562 23.3384 17.4302L25.1605 19.938C26.4159 18.6679 27.1923 16.9234 27.1923 15.0008C27.1923 14.6408 27.165 14.287 27.1125 13.9414Z" fill="white"/>
<path d="M13.9233 11.7747L16.8736 12.7334C17.3861 11.9918 18.1423 11.4314 19.0256 11.1683V8.06641C16.8024 8.43042 14.9268 9.84121 13.9233 11.7747Z" fill="white"/>
<path d="M21.4962 18.7695C21.0796 18.9171 20.6319 18.9982 20.1652 18.9982C19.6988 18.9982 19.2509 18.9171 18.8343 18.7695L17.0117 21.2779C17.9606 21.7564 19.0319 22.0265 20.1652 22.0265C21.2986 22.0265 22.3699 21.7565 23.3188 21.2779L21.4962 18.7695Z" fill="white"/>
<path d="M16.1662 15.0008C16.1662 14.9672 16.1679 14.9339 16.1687 14.9003L13.2175 13.9414C13.165 14.287 13.1377 14.6408 13.1377 15.0008C13.1377 16.9235 13.9141 18.668 15.1696 19.9381L16.9917 17.4302C16.4746 16.7563 16.1662 15.9141 16.1662 15.0008Z" fill="white"/>
<path d="M52.5 19.52V16.7H59.07V19.52H52.5ZM55.59 22.91V16.79H59.07V22.91H55.59ZM46.5 22.88V12.29H49.98V22.88H46.5ZM46.5 12.32C46.5 11.18 46.77 10.17 47.31 9.29C47.85 8.41 48.59 7.72 49.53 7.22C50.49 6.72 51.58 6.47 52.8 6.47V9.29C51.92 9.29 51.23 9.56 50.73 10.1C50.23 10.62 49.98 11.36 49.98 12.32H46.5ZM46.5 22.88H49.98C49.98 23.82 50.23 24.56 50.73 25.1C51.23 25.62 51.92 25.88 52.8 25.88V28.73C51.58 28.73 50.49 28.48 49.53 27.98C48.59 27.48 47.85 26.79 47.31 25.91C46.77 25.03 46.5 24.02 46.5 22.88ZM56.07 13.16C55.97 11.96 55.63 11.02 55.05 10.34C54.47 9.64 53.71 9.29 52.77 9.29V6.47C54.59 6.47 56.07 7.01 57.21 8.09C58.35 9.15 59.02 10.65 59.22 12.59L56.07 13.16ZM59.07 22.88C59.07 24.02 58.8 25.03 58.26 25.91C57.72 26.79 56.98 27.48 56.04 27.98C55.1 28.48 54.01 28.73 52.77 28.73V25.88C53.65 25.88 54.34 25.62 54.84 25.1C55.34 24.56 55.59 23.82 55.59 22.88H59.07ZM72.5189 22.88V12.29H75.9989V22.88H72.5189ZM63.4289 22.88V12.29H66.9089V22.88H63.4289ZM75.9989 12.35H72.5189C72.5189 11.39 72.2689 10.65 71.7689 10.13C71.2689 9.59 70.5789 9.32 69.6989 9.32V6.5C70.9389 6.5 72.0289 6.75 72.9689 7.25C73.9089 7.75 74.6489 8.44 75.1889 9.32C75.7289 10.2 75.9989 11.21 75.9989 12.35ZM63.4289 12.35C63.4289 11.21 63.6989 10.2 64.2389 9.32C64.7789 8.44 65.5189 7.75 66.4589 7.25C67.4189 6.75 68.5089 6.5 69.7289 6.5V9.32C68.8489 9.32 68.1589 9.59 67.6589 10.13C67.1589 10.65 66.9089 11.39 66.9089 12.35H63.4289ZM75.9989 22.85C75.9989 23.99 75.7289 25 75.1889 25.88C74.6489 26.76 73.9089 27.45 72.9689 27.95C72.0289 28.45 70.9389 28.7 69.6989 28.7V25.85C70.5789 25.85 71.2689 25.59 71.7689 25.07C72.2689 24.53 72.5189 23.79 72.5189 22.85H75.9989ZM63.4289 22.85H66.9089C66.9089 23.79 67.1589 24.53 67.6589 25.07C68.1589 25.59 68.8489 25.85 69.7289 25.85V28.7C68.5089 28.7 67.4189 28.45 66.4589 27.95C65.5189 27.45 64.7789 26.76 64.2389 25.88C63.6989 25 63.4289 23.99 63.4289 22.85Z" fill="#FF9D0B"/>
<path d="M86.8172 22.88V12.29H90.2972V22.88H86.8172ZM86.8172 12.32C86.8172 11.18 87.0872 10.17 87.6272 9.29C88.1672 8.41 88.9072 7.72 89.8472 7.22C90.8072 6.72 91.8972 6.47 93.1172 6.47V9.29C92.2372 9.29 91.5472 9.56 91.0472 10.1C90.5472 10.62 90.2972 11.36 90.2972 12.32H86.8172ZM86.8172 22.88H90.2972C90.2972 23.82 90.5472 24.56 91.0472 25.1C91.5472 25.62 92.2372 25.88 93.1172 25.88V28.73C91.8972 28.73 90.8072 28.48 89.8472 27.98C88.9072 27.48 88.1672 26.79 87.6272 25.91C87.0872 25.03 86.8172 24.02 86.8172 22.88ZM96.3872 13.16C96.2872 11.96 95.9472 11.02 95.3672 10.34C94.7872 9.64 94.0272 9.29 93.0872 9.29V6.47C94.9072 6.47 96.3872 7.01 97.5272 8.09C98.6672 9.15 99.3372 10.65 99.5372 12.59L96.3872 13.16ZM96.3872 22.01L99.5372 22.61C99.3372 24.53 98.6672 26.03 97.5272 27.11C96.3872 28.19 94.9072 28.73 93.0872 28.73V25.88C94.0272 25.88 94.7872 25.54 95.3672 24.86C95.9472 24.18 96.2872 23.23 96.3872 22.01ZM105.658 24.32V21.47H113.308V24.32H105.658ZM110.728 6.95L105.478 28.25H102.088L107.338 6.95H110.728ZM110.788 6.95L116.008 28.25H112.618L107.398 6.95H110.788ZM127.667 28.25L123.887 18.05H127.337L131.117 28.25H127.667ZM122.057 19.67V16.82H124.607V19.67H122.057ZM122.057 9.77V6.95H124.607V9.77H122.057ZM127.397 13.85V12.77H130.877V13.85H127.397ZM130.877 12.8H127.397C127.397 11.84 127.147 11.1 126.647 10.58C126.147 10.04 125.457 9.77 124.577 9.77V6.95C125.817 6.95 126.907 7.2 127.847 7.7C128.787 8.2 129.527 8.89 130.067 9.77C130.607 10.65 130.877 11.66 130.877 12.8ZM130.877 13.82C130.877 14.96 130.607 15.97 130.067 16.85C129.527 17.73 128.787 18.42 127.847 18.92C126.907 19.42 125.817 19.67 124.577 19.67V16.82C125.457 16.82 126.147 16.56 126.647 16.04C127.147 15.5 127.397 14.76 127.397 13.82H130.877ZM119.327 28.25V6.95H122.807V28.25H119.327Z" fill="white"/>
</svg>
