<svg width="117" height="113" viewBox="0 0 117 113" fill="none" xmlns="http://www.w3.org/2000/svg">
<path d="M63.3299 0H35.6085C34.3501 0 33.3299 1.0202 33.3299 2.27859C33.3299 3.53698 34.3501 4.55717 35.6085 4.55717H47.4528C44.9539 6.12216 42.7007 8.04415 40.7659 10.2523H25.2786C24.0202 10.2524 23 11.2727 23 12.5311C23 13.7895 24.0202 14.8097 25.2786 14.8097H37.4696C34.8407 19.268 33.3297 24.4606 33.3297 30.0001C33.3297 36.4457 35.3736 42.423 38.8464 47.3185H32.3812C31.1229 47.3185 30.1027 48.3387 30.1027 49.597C30.1027 50.8554 31.1229 51.8756 32.3812 51.8756H42.8235C44.2442 53.2083 45.7944 54.4042 47.4528 55.4428H25.5136C24.2552 55.4428 23.235 56.463 23.235 57.7214C23.235 58.9798 24.2552 60 25.5136 60H63.3299C79.8722 60 93.33 46.5419 93.33 29.9999C93.33 13.4579 79.8721 0 63.3299 0ZM74.3984 44.9535C74.3565 44.9889 74.3149 45.0246 74.2697 45.0572C74.2189 45.0941 74.1668 45.1286 74.1142 45.1608C71.0697 47.3326 67.3465 48.6117 63.3299 48.6117C59.3134 48.6117 55.5903 47.3326 52.5457 45.1608C52.4929 45.1286 52.441 45.0941 52.3902 45.0572C52.3451 45.0243 52.3035 44.9886 52.2615 44.9535C47.6879 41.5592 44.7181 36.1202 44.7181 30.0001C44.7181 19.7375 53.0674 11.3883 63.3299 11.3883C73.5925 11.3883 81.9417 19.7375 81.9417 30.0001C81.9417 36.1203 78.9721 41.5592 74.3984 44.9535Z" fill="#FF9D0B"/>
<path d="M63.3299 26.5586C61.4329 26.5586 59.8896 28.1019 59.8896 29.9989C59.8896 31.8959 61.4329 33.4391 63.3299 33.4391C65.2269 33.4391 66.7702 31.8959 66.7702 29.9989C66.7702 28.1019 65.2269 26.5586 63.3299 26.5586Z" fill="white"/>
<path d="M65.6084 16.1328V22.3366C67.3752 22.8627 68.8875 23.9834 69.9124 25.4668L75.813 23.5495C73.8063 19.6824 70.055 16.8607 65.6084 16.1328Z" fill="white"/>
<path d="M77.225 27.8809L71.3226 29.7987C71.3243 29.8658 71.3279 29.9324 71.3279 29.9997C71.3279 31.8262 70.7111 33.5104 69.6768 34.8584L73.321 39.8741C75.8319 37.3339 77.3846 33.8449 77.3846 29.9997C77.3846 29.2796 77.33 28.5721 77.225 27.8809Z" fill="white"/>
<path d="M50.8467 23.5475L56.7471 25.4649C57.7723 23.9816 59.2845 22.8609 61.0513 22.3346V16.1309C56.6048 16.8589 52.8536 19.6805 50.8467 23.5475Z" fill="white"/>
<path d="M65.992 37.541C65.1587 37.8361 64.2632 37.9983 63.33 37.9983C62.397 37.9983 61.5013 37.8361 60.668 37.541L57.0229 42.5578C58.9208 43.5148 61.0634 44.0549 63.33 44.0549C65.5966 44.0549 67.7392 43.515 69.637 42.5578L65.992 37.541Z" fill="white"/>
<path d="M55.3324 29.9997C55.3324 29.9324 55.3357 29.8658 55.3374 29.7987L49.435 27.8809C49.3301 28.5721 49.2754 29.2796 49.2754 29.9997C49.2754 33.845 50.8283 37.3341 53.3392 39.8743L56.9834 34.8584C55.9492 33.5106 55.3324 31.8262 55.3324 29.9997Z" fill="white"/>
<path d="M10 98.36V94.6H18.76V98.36H10ZM14.12 102.88V94.72H18.76V102.88H14.12ZM2 102.84V88.72H6.64V102.84H2ZM2 88.76C2 87.24 2.36 85.8933 3.08 84.72C3.8 83.5467 4.78667 82.6267 6.04 81.96C7.32 81.2933 8.77333 80.96 10.4 80.96V84.72C9.22667 84.72 8.30667 85.08 7.64 85.8C6.97333 86.4933 6.64 87.48 6.64 88.76H2ZM2 102.84H6.64C6.64 104.093 6.97333 105.08 7.64 105.8C8.30667 106.493 9.22667 106.84 10.4 106.84V110.64C8.77333 110.64 7.32 110.307 6.04 109.64C4.78667 108.973 3.8 108.053 3.08 106.88C2.36 105.707 2 104.36 2 102.84ZM14.76 89.88C14.6267 88.28 14.1733 87.0267 13.4 86.12C12.6267 85.1867 11.6133 84.72 10.36 84.72V80.96C12.7867 80.96 14.76 81.68 16.28 83.12C17.8 84.5333 18.6933 86.5333 18.96 89.12L14.76 89.88ZM18.76 102.84C18.76 104.36 18.4 105.707 17.68 106.88C16.96 108.053 15.9733 108.973 14.72 109.64C13.4667 110.307 12.0133 110.64 10.36 110.64V106.84C11.5333 106.84 12.4533 106.493 13.12 105.8C13.7867 105.08 14.12 104.093 14.12 102.84H18.76ZM36.6919 102.84V88.72H41.3319V102.84H36.6919ZM24.5719 102.84V88.72H29.2119V102.84H24.5719ZM41.3319 88.8H36.6919C36.6919 87.52 36.3585 86.5333 35.6919 85.84C35.0252 85.12 34.1052 84.76 32.9319 84.76V81C34.5852 81 36.0385 81.3333 37.2919 82C38.5452 82.6667 39.5319 83.5867 40.2519 84.76C40.9719 85.9333 41.3319 87.28 41.3319 88.8ZM24.5719 88.8C24.5719 87.28 24.9319 85.9333 25.6519 84.76C26.3719 83.5867 27.3585 82.6667 28.6119 82C29.8919 81.3333 31.3452 81 32.9719 81V84.76C31.7985 84.76 30.8785 85.12 30.2119 85.84C29.5452 86.5333 29.2119 87.52 29.2119 88.8H24.5719ZM41.3319 102.8C41.3319 104.32 40.9719 105.667 40.2519 106.84C39.5319 108.013 38.5452 108.933 37.2919 109.6C36.0385 110.267 34.5852 110.6 32.9319 110.6V106.8C34.1052 106.8 35.0252 106.453 35.6919 105.76C36.3585 105.04 36.6919 104.053 36.6919 102.8H41.3319ZM24.5719 102.8H29.2119C29.2119 104.053 29.5452 105.04 30.2119 105.76C30.8785 106.453 31.7985 106.8 32.9719 106.8V110.6C31.3452 110.6 29.8919 110.267 28.6119 109.6C27.3585 108.933 26.3719 108.013 25.6519 106.84C24.9319 105.667 24.5719 104.32 24.5719 102.8Z" fill="#FF9D0B"/>
<path d="M55.7562 102.84V88.72H60.3962V102.84H55.7562ZM55.7562 88.76C55.7562 87.24 56.1162 85.8933 56.8362 84.72C57.5562 83.5467 58.5429 82.6267 59.7962 81.96C61.0762 81.2933 62.5296 80.96 64.1562 80.96V84.72C62.9829 84.72 62.0629 85.08 61.3962 85.8C60.7296 86.4933 60.3962 87.48 60.3962 88.76H55.7562ZM55.7562 102.84H60.3962C60.3962 104.093 60.7296 105.08 61.3962 105.8C62.0629 106.493 62.9829 106.84 64.1562 106.84V110.64C62.5296 110.64 61.0762 110.307 59.7962 109.64C58.5429 108.973 57.5562 108.053 56.8362 106.88C56.1162 105.707 55.7562 104.36 55.7562 102.84ZM68.5162 89.88C68.3829 88.28 67.9296 87.0267 67.1562 86.12C66.3829 85.1867 65.3696 84.72 64.1162 84.72V80.96C66.5429 80.96 68.5162 81.68 70.0362 83.12C71.5562 84.5333 72.4496 86.5333 72.7162 89.12L68.5162 89.88ZM68.5162 101.68L72.7162 102.48C72.4496 105.04 71.5562 107.04 70.0362 108.48C68.5162 109.92 66.5429 110.64 64.1162 110.64V106.84C65.3696 106.84 66.3829 106.387 67.1562 105.48C67.9296 104.573 68.3829 103.307 68.5162 101.68ZM80.8772 104.76V100.96H91.0772V104.76H80.8772ZM87.6372 81.6L80.6372 110H76.1172L83.1172 81.6H87.6372ZM87.7172 81.6L94.6772 110H90.1572L83.1972 81.6H87.7172ZM110.223 110L105.183 96.4H109.783L114.823 110H110.223ZM102.743 98.56V94.76H106.143V98.56H102.743ZM102.743 85.36V81.6H106.143V85.36H102.743ZM109.863 90.8V89.36H114.503V90.8H109.863ZM114.503 89.4H109.863C109.863 88.12 109.53 87.1333 108.863 86.44C108.196 85.72 107.276 85.36 106.103 85.36V81.6C107.756 81.6 109.21 81.9333 110.463 82.6C111.716 83.2667 112.703 84.1867 113.423 85.36C114.143 86.5333 114.503 87.88 114.503 89.4ZM114.503 90.76C114.503 92.28 114.143 93.6267 113.423 94.8C112.703 95.9733 111.716 96.8933 110.463 97.56C109.21 98.2267 107.756 98.56 106.103 98.56V94.76C107.276 94.76 108.196 94.4133 108.863 93.72C109.53 93 109.863 92.0133 109.863 90.76H114.503ZM99.1031 110V81.6H103.743V110H99.1031Z" fill="white"/>
</svg>
