<svg width="55" height="45" viewBox="0 0 55 45" fill="none" xmlns="http://www.w3.org/2000/svg">
<path opacity="0.7" d="M0 0H54.5192V40C54.5192 42.7614 52.2807 45 49.5192 45H0V0Z" fill="#282828"/>
<path d="M29.165 7H15.3042C14.675 7 14.1649 7.5101 14.1649 8.13929C14.1649 8.76849 14.675 9.27859 15.3042 9.27859H21.2264C19.9769 10.0611 18.8503 11.0221 17.883 12.1261H10.1393C9.5101 12.1262 9 12.6364 9 13.2656C9 13.8948 9.5101 14.4049 10.1393 14.4049H16.2348C14.9204 16.634 14.1649 19.2303 14.1649 22C14.1649 25.2229 15.1868 28.2115 16.9232 30.6592H13.6906C13.0614 30.6592 12.5513 31.1693 12.5513 31.7985C12.5513 32.4277 13.0614 32.9378 13.6906 32.9378H18.9117C19.6221 33.6042 20.3972 34.2021 21.2264 34.7214H10.2568C9.62761 34.7214 9.11751 35.2315 9.11751 35.8607C9.11751 36.4899 9.62761 37 10.2568 37H29.165C37.4361 37 44.165 30.271 44.165 22C44.165 13.729 37.436 7 29.165 7ZM34.6992 29.4767C34.6783 29.4945 34.6575 29.5123 34.6349 29.5286C34.6094 29.5471 34.5834 29.5643 34.5571 29.5804C33.0349 30.6663 31.1732 31.3059 29.165 31.3059C27.1567 31.3059 25.2952 30.6663 23.7728 29.5804C23.7465 29.5643 23.7205 29.5471 23.6951 29.5286C23.6726 29.5122 23.6517 29.4943 23.6307 29.4767C21.344 27.7796 19.8591 25.0601 19.8591 22C19.8591 16.8687 24.0337 12.6941 29.165 12.6941C34.2963 12.6941 38.4709 16.8687 38.4709 22C38.4709 25.0602 36.986 27.7796 34.6992 29.4767Z" fill="#FF9D0B"/>
<path d="M29.165 20.2803C28.2165 20.2803 27.4448 21.0519 27.4448 22.0004C27.4448 22.9489 28.2165 23.7205 29.165 23.7205C30.1135 23.7205 30.8851 22.9489 30.8851 22.0004C30.8851 21.0519 30.1135 20.2803 29.165 20.2803Z" fill="white"/>
<path d="M30.3042 15.0654V18.1673C31.1876 18.4304 31.9438 18.9907 32.4562 19.7324L35.4065 18.7738C34.4031 16.8402 32.5275 15.4294 30.3042 15.0654Z" fill="white"/>
<path d="M36.1125 20.9404L33.1613 21.8994C33.1621 21.9329 33.1639 21.9662 33.1639 21.9998C33.1639 22.9131 32.8556 23.7552 32.3384 24.4292L34.1605 26.937C35.4159 25.667 36.1923 23.9225 36.1923 21.9998C36.1923 21.6398 36.165 21.286 36.1125 20.9404Z" fill="white"/>
<path d="M22.9233 18.7738L25.8736 19.7324C26.3861 18.9908 27.1423 18.4304 28.0256 18.1673V15.0654C25.8024 15.4294 23.9268 16.8402 22.9233 18.7738Z" fill="white"/>
<path d="M30.4957 25.7705C30.0791 25.918 29.6314 25.9991 29.1648 25.9991C28.6983 25.9991 28.2504 25.918 27.8338 25.7705L26.0112 28.2789C26.9601 28.7574 28.0314 29.0275 29.1648 29.0275C30.2981 29.0275 31.3694 28.7575 32.3183 28.2789L30.4957 25.7705Z" fill="white"/>
<path d="M25.1662 21.9998C25.1662 21.9662 25.1679 21.9329 25.1687 21.8994L22.2175 20.9404C22.165 21.286 22.1377 21.6398 22.1377 21.9998C22.1377 23.9225 22.9141 25.667 24.1696 26.9372L25.9917 24.4292C25.4746 23.7553 25.1662 22.9131 25.1662 21.9998Z" fill="white"/>
</svg>
