<svg width="24" height="28" viewBox="0 0 24 28" fill="none" xmlns="http://www.w3.org/2000/svg">
<path d="M19.4866 18.8341C18.1654 18.8341 16.9751 19.4134 16.1489 20.335L8.71823 15.6618C8.91661 15.1461 9.02664 14.586 9.02664 14C9.02664 13.4138 8.91661 12.8537 8.71823 12.3382L16.1489 7.66479C16.9751 8.58636 18.1654 9.16592 19.4866 9.16592C21.9753 9.16592 24 7.11002 24 4.58286C24 2.05569 21.9753 0 19.4866 0C16.9978 0 14.9732 2.05591 14.9732 4.58307C14.9732 5.16904 15.0834 5.72916 15.2816 6.24484L7.85105 10.9181C7.0249 9.99649 5.83459 9.41693 4.51342 9.41693C2.02467 9.41693 0 11.4731 0 14C0 16.5272 2.02467 18.5831 4.51342 18.5831C5.83459 18.5831 7.0249 18.0037 7.85105 17.0819L15.2816 21.7552C15.0834 22.2708 14.9732 22.831 14.9732 23.4171C14.9732 25.9441 16.9978 28 19.4866 28C21.9753 28 24 25.9441 24 23.4171C24 20.89 21.9753 18.8341 19.4866 18.8341V18.8341ZM16.6189 4.58307C16.6189 2.97748 17.9054 1.67117 19.4866 1.67117C21.0678 1.67117 22.3542 2.97748 22.3542 4.58307C22.3542 6.18866 21.0678 7.49496 19.4866 7.49496C17.9054 7.49496 16.6189 6.18866 16.6189 4.58307ZM4.51342 16.9119C2.93202 16.9119 1.64557 15.6056 1.64557 14C1.64557 12.3944 2.93202 11.0881 4.51342 11.0881C6.09462 11.0881 7.38086 12.3944 7.38086 14C7.38086 15.6056 6.09462 16.9119 4.51342 16.9119ZM16.6189 23.4169C16.6189 21.8113 17.9054 20.505 19.4866 20.505C21.0678 20.505 22.3542 21.8113 22.3542 23.4169C22.3542 25.0225 21.0678 26.3288 19.4866 26.3288C17.9054 26.3288 16.6189 25.0225 16.6189 23.4169Z" fill="#ffffff"/>
</svg>
