<svg width="35" height="35" viewBox="0 0 35 35" fill="none" xmlns="http://www.w3.org/2000/svg">
<path fill-rule="evenodd" clip-rule="evenodd" d="M13.8825 9.51657L20.9964 2.40269C24.2 -0.800898 29.3937 -0.800898 32.5973 2.40269C35.8008 5.60628 35.8008 10.8001 32.5973 14.0037L25.4834 21.1176C25.4766 21.1244 25.469 21.1299 25.4615 21.1355C25.4539 21.1411 25.4463 21.1467 25.4394 21.1535C22.1494 24.3981 16.9204 24.1554 13.8825 21.1176C13.3787 20.6137 12.9827 20.0491 12.6374 19.4623L13.8825 18.2172C14.6819 17.4179 15.9834 17.4179 16.7827 18.2172C18.326 19.7606 20.971 19.8295 22.5832 18.2172C22.1719 18.6287 29.4243 11.3762 29.6971 11.1033C31.2966 9.50393 31.2966 6.90238 29.6971 5.30297C28.0975 3.70343 25.4961 3.70343 23.8966 5.30297L19.0683 10.1312C17.3994 9.48041 15.599 9.30541 13.8465 9.56066C13.8533 9.55384 13.8588 9.54633 13.8643 9.53883C13.8699 9.53115 13.8755 9.52349 13.8825 9.51657ZM11.1033 29.6972L15.9471 24.8533C17.6161 25.5041 19.4165 25.6791 21.169 25.4239C21.1623 25.4307 21.1568 25.4382 21.1513 25.4456C21.1457 25.4533 21.14 25.461 21.133 25.468L14.0036 32.5975C10.8002 35.801 5.60623 35.801 2.40264 32.5975C-0.800949 29.3939 -0.800812 24.2 2.40264 20.9965L9.53211 13.8671C9.53902 13.8602 9.54662 13.8546 9.55421 13.849C9.56178 13.8434 9.56934 13.8379 9.5762 13.831C12.8758 10.5769 18.101 10.8348 21.1331 13.8671C21.6369 14.3707 22.0328 14.9354 22.3782 15.5222L21.1331 16.7673C20.3337 17.5667 19.0322 17.5667 18.2329 16.7673C16.6895 15.2239 14.0446 15.1551 12.4324 16.7673L5.30299 23.8967C3.70345 25.4962 3.70345 28.0976 5.30299 29.6972C6.90239 31.2967 9.50394 31.2967 11.1033 29.6972Z" fill="black"/>
</svg>
