<svg width="65" height="65" viewBox="0 0 65 65" fill="none" xmlns="http://www.w3.org/2000/svg">
<path d="M62.9688 24.375H56.875C55.7517 24.375 54.8438 25.285 54.8438 26.4062V28.4375H52.8125V26.4062C52.8125 25.285 51.9045 24.375 50.7812 24.375H47.5597L42.0631 18.8784C41.8763 18.6895 41.6508 18.5412 41.4009 18.4377C41.1531 18.3361 40.8891 18.2812 40.625 18.2812H34.5312V14.2188H38.5938C39.717 14.2188 40.625 13.3087 40.625 12.1875C40.625 11.0663 39.717 10.1562 38.5938 10.1562H20.3125C19.1892 10.1562 18.2812 11.0663 18.2812 12.1875C18.2812 13.3087 19.1892 14.2188 20.3125 14.2188H24.375V18.2812H18.2812C18.2162 18.2812 18.1614 18.3117 18.0984 18.3178C17.9522 18.332 17.8161 18.3584 17.678 18.4031C17.5581 18.4417 17.4484 18.4844 17.3388 18.5433C17.225 18.6042 17.1214 18.6753 17.0178 18.7586C16.9102 18.848 16.8167 18.9414 16.7294 19.0491C16.6867 19.0998 16.6298 19.1303 16.5913 19.1872L13.132 24.375H8.125C7.00172 24.375 6.09375 25.285 6.09375 26.4062V32.5H4.0625V26.4062C4.0625 25.285 3.15453 24.375 2.03125 24.375C0.907969 24.375 0 25.285 0 26.4062V44.6875C0 45.8088 0.907969 46.7188 2.03125 46.7188C3.15453 46.7188 4.0625 45.8088 4.0625 44.6875V36.5625H6.09375V44.6875C6.09375 45.8088 7.00172 46.7188 8.125 46.7188H12.9634L16.4653 53.7205C16.5608 53.9114 16.6867 54.078 16.8289 54.2242C16.8573 54.2547 16.8939 54.275 16.9244 54.3014C17.0686 54.4334 17.2291 54.5391 17.4037 54.6244C17.4627 54.6528 17.5216 54.6792 17.5845 54.7016C17.8059 54.7848 18.0375 54.8417 18.2772 54.8438C18.2792 54.8438 18.2792 54.8438 18.2812 54.8438H42.6562C42.9528 54.8438 43.2311 54.7727 43.485 54.6589C43.552 54.6284 43.6028 54.5736 43.6658 54.537C43.8506 54.4273 44.0213 54.3055 44.1634 54.145C44.1858 54.1186 44.2203 54.1105 44.2427 54.082L51.7583 44.6875H54.8438V46.7188C54.8438 47.84 55.7517 48.75 56.875 48.75H62.9688C64.092 48.75 65 47.84 65 46.7188V26.4062C65 25.285 64.092 24.375 62.9688 24.375ZM60.9375 44.6875H58.9062V42.6562C58.9062 41.535 57.9983 40.625 56.875 40.625H50.7812C50.7427 40.625 50.7102 40.6453 50.6716 40.6473C50.5334 40.6555 50.4034 40.692 50.2694 40.7286C50.1434 40.7631 50.0195 40.7875 49.9038 40.8423C49.7981 40.8931 49.7087 40.9703 49.6112 41.0394C49.4934 41.1247 49.3777 41.2059 49.2802 41.3156C49.2537 41.3441 49.2192 41.3563 49.1948 41.3867L41.6792 50.7812H19.5366L16.0347 43.7795C15.988 43.6881 15.9108 43.6292 15.8539 43.5459C15.7706 43.4261 15.6955 43.3063 15.5898 43.2067C15.4903 43.1153 15.3745 43.0544 15.2608 42.9853C15.1531 42.9183 15.0536 42.8472 14.9338 42.8005C14.7916 42.7456 14.6433 42.7314 14.4909 42.7111C14.3995 42.6989 14.3162 42.6562 14.2188 42.6562H10.1562V28.4375H14.2188H14.2208C14.4625 28.4375 14.6981 28.3806 14.9236 28.2953C14.9683 28.2791 15.013 28.2648 15.0577 28.2445C15.2628 28.1511 15.4517 28.0272 15.6183 27.8667C15.6508 27.8363 15.6752 27.7997 15.7056 27.7672C15.7747 27.692 15.8498 27.6209 15.9067 27.5336L19.368 22.3438H26.4062C27.5295 22.3438 28.4375 21.4338 28.4375 20.3125V14.2188H30.4688V20.3125C30.4688 21.4338 31.3767 22.3438 32.5 22.3438H39.7841L45.2806 27.8403C45.4675 28.0292 45.693 28.1775 45.9428 28.2811C46.1906 28.3827 46.4547 28.4375 46.7188 28.4375H48.75V30.4688C48.75 31.59 49.658 32.5 50.7812 32.5H56.875C57.9983 32.5 58.9062 31.59 58.9062 30.4688V28.4375H60.9375V44.6875Z" fill="#3CB339"/>
<path d="M30.4688 26.4062C29.3455 26.4062 28.4375 27.3163 28.4375 28.4375V38.5938C28.4375 39.715 29.3455 40.625 30.4688 40.625C31.592 40.625 32.5 39.715 32.5 38.5938V28.4375C32.5 27.3163 31.592 26.4062 30.4688 26.4062Z" fill="#3CB339"/>
<path d="M29.0266 43.2453C28.6589 43.6313 28.4375 44.1594 28.4375 44.6875C28.4375 45.2156 28.6589 45.7437 29.0266 46.1297C29.4105 46.4953 29.9406 46.7187 30.4688 46.7187C30.9969 46.7187 31.525 46.4953 31.9109 46.1297C32.2766 45.7437 32.5 45.2156 32.5 44.6875C32.5 44.1594 32.2766 43.6313 31.9109 43.2453C31.1391 42.4937 29.7984 42.4937 29.0266 43.2453Z" fill="#3CB339"/>
</svg>
