<svg width="55" height="55" viewBox="0 0 55 55" fill="none" xmlns="http://www.w3.org/2000/svg">
<g clip-path="url(#clip0_166_36668)">
<path d="M25.8887 48.4473C26.7786 48.4473 27.5 47.7258 27.5 46.8359C27.5 45.946 26.7786 45.2246 25.8887 45.2246C24.9988 45.2246 24.2773 45.946 24.2773 46.8359C24.2773 47.7258 24.9988 48.4473 25.8887 48.4473Z" fill="#3CB339"/>
<path d="M8.16406 30.7227C9.05397 30.7227 9.77539 30.0012 9.77539 29.1113C9.77539 28.2214 9.05397 27.5 8.16406 27.5C7.27415 27.5 6.55273 28.2214 6.55273 29.1113C6.55273 30.0012 7.27415 30.7227 8.16406 30.7227Z" fill="#3CB339"/>
<path d="M13.3555 43.2559C14.2454 43.2559 14.9668 42.5344 14.9668 41.6445C14.9668 40.7546 14.2454 40.0332 13.3555 40.0332C12.4656 40.0332 11.7441 40.7546 11.7441 41.6445C11.7441 42.5344 12.4656 43.2559 13.3555 43.2559Z" fill="#3CB339"/>
<path d="M13.3555 18.082C14.2454 18.082 14.9668 17.3606 14.9668 16.4707C14.9668 15.5808 14.2454 14.8594 13.3555 14.8594C12.4656 14.8594 11.7441 15.5808 11.7441 16.4707C11.7441 17.3606 12.4656 18.082 13.3555 18.082Z" fill="#3CB339"/>
<path d="M38.4219 43.2559C39.3118 43.2559 40.0332 42.5344 40.0332 41.6445C40.0332 40.7546 39.3118 40.0332 38.4219 40.0332C37.532 40.0332 36.8105 40.7546 36.8105 41.6445C36.8105 42.5344 37.532 43.2559 38.4219 43.2559Z" fill="#3CB339"/>
<path d="M27.5 0C26.6101 0 25.8887 0.721445 25.8887 1.61133V3.22266C11.6372 3.22266 0 14.8607 0 29.1113C0 43.3628 11.6382 55 25.8887 55C40.1046 55 51.6699 43.3864 51.6699 29.1113H53.3887C54.2786 29.1113 55 28.3899 55 27.5C55 12.3797 42.6181 0 27.5 0ZM25.8887 51.7773C13.3906 51.7773 3.22266 41.6094 3.22266 29.1113C3.22266 16.6132 13.3906 6.44531 25.8887 6.44531V11.2793C25.8887 12.1692 26.6101 12.8906 27.5 12.8906C35.4964 12.8906 42.002 19.4443 42.002 27.5C42.002 28.3899 42.7234 29.1006 43.6133 29.1006H48.4473C48.4473 41.5987 38.3275 51.7773 25.8887 51.7773ZM45.1527 25.8887C44.3928 17.3975 37.6114 10.5145 29.1113 9.74091V3.27551C41.2163 4.07301 50.927 13.7837 51.7245 25.8887H45.1527Z" fill="#3CB339"/>
<path d="M25.8887 16.1133C18.7808 16.1133 12.998 21.9441 12.998 29.1113C12.998 36.2192 18.7808 42.002 25.8887 42.002C32.9966 42.002 38.7793 36.2192 38.7793 29.1113C38.7793 21.9441 32.9966 16.1133 25.8887 16.1133ZM25.8887 38.7793C20.5578 38.7793 16.2207 34.4422 16.2207 29.1113C16.2207 23.7212 20.5578 19.3359 25.8887 19.3359C31.2196 19.3359 35.5566 23.7212 35.5566 29.1113C35.5566 34.4422 31.2196 38.7793 25.8887 38.7793Z" fill="#3CB339"/>
<path d="M25.8887 22.666C22.3347 22.666 19.4434 25.5574 19.4434 29.1113C19.4434 32.6653 22.3347 35.5566 25.8887 35.5566C29.4426 35.5566 32.334 32.6653 32.334 29.1113C32.334 25.5574 29.4426 22.666 25.8887 22.666ZM25.8887 32.334C24.1117 32.334 22.666 30.8883 22.666 29.1113C22.666 27.3344 24.1117 25.8887 25.8887 25.8887C27.6656 25.8887 29.1113 27.3344 29.1113 29.1113C29.1113 30.8883 27.6656 32.334 25.8887 32.334Z" fill="#3CB339"/>
</g>
<defs>
<clipPath id="clip0_166_36668">
<rect width="55" height="55" fill="white"/>
</clipPath>
</defs>
</svg>
