<svg width="29" height="38" viewBox="0 0 29 38" fill="none" xmlns="http://www.w3.org/2000/svg">
<path d="M11.536 35.528C11.4293 35.9653 11.3173 36.2907 11.2 36.504C11.0827 36.7173 10.928 36.856 10.736 36.92C10.544 36.984 10.2667 37.016 9.904 37.016L8.784 37L6.176 26.84H7.232L9.584 36.072H10.336C10.3787 36.072 10.4053 36.0613 10.416 36.04C10.4373 36.0187 10.4533 35.9867 10.464 35.944L12.96 26.84H13.968L11.536 35.528ZM19.4534 37.048H17.3574C16.6854 37.048 16.1734 36.888 15.8214 36.568C15.4694 36.248 15.2934 35.784 15.2934 35.176V33.192C15.2934 32.5627 15.4587 32.1307 15.7894 31.896C16.1307 31.6507 16.648 31.5333 17.3414 31.544L17.4694 31.944C16.7974 31.944 16.28 31.8213 15.9174 31.576C15.5547 31.3307 15.3734 30.9093 15.3734 30.312V28.632C15.3734 27.9813 15.5387 27.512 15.8694 27.224C16.2 26.936 16.7014 26.792 17.3734 26.792H19.4374C20.1094 26.792 20.6107 26.936 20.9414 27.224C21.272 27.512 21.4374 27.9813 21.4374 28.632V30.312C21.4374 30.9093 21.256 31.3307 20.8934 31.576C20.5307 31.8213 20.0134 31.944 19.3414 31.944L19.4694 31.544C20.1627 31.5333 20.6747 31.6507 21.0054 31.896C21.3467 32.1307 21.5174 32.5627 21.5174 33.192V35.176C21.5174 35.784 21.3414 36.248 20.9894 36.568C20.648 36.888 20.136 37.048 19.4534 37.048ZM16.3974 35.88C16.3974 36.008 16.4667 36.072 16.6054 36.072H20.2214C20.3494 36.072 20.4134 36.008 20.4134 35.88V32.392C20.4134 32.264 20.3494 32.2 20.2214 32.2H16.6054C16.4667 32.2 16.3974 32.264 16.3974 32.392V35.88ZM16.4774 31.096C16.4774 31.224 16.5467 31.288 16.6854 31.288H20.1414C20.2694 31.288 20.3334 31.224 20.3334 31.096V27.944C20.3334 27.8053 20.2694 27.736 20.1414 27.736H16.6854C16.5467 27.736 16.4774 27.8053 16.4774 27.944V31.096Z" fill="white"/>
<path d="M26.1905 9.04762H25.2381C24.8592 9.04762 24.4958 9.19813 24.2279 9.46604C23.96 9.73394 23.8095 10.0973 23.8095 10.4762V10.9524H22.8571V8.57143C22.8571 8.19255 22.7066 7.82918 22.4387 7.56127C22.1708 7.29337 21.8074 7.14286 21.4286 7.14286H20C19.8737 7.14286 19.7526 7.09269 19.6633 7.00338C19.574 6.91408 19.5238 6.79296 19.5238 6.66667V5.71428C19.5238 5.3354 19.3733 4.97204 19.1054 4.70413C18.8375 4.43622 18.4741 4.28571 18.0952 4.28571H16.1905V2.85714H18.5714C18.9503 2.85714 19.3137 2.70663 19.5816 2.43872C19.8495 2.17081 20 1.80745 20 1.42857C20 1.04969 19.8495 0.686328 19.5816 0.418419C19.3137 0.15051 18.9503 0 18.5714 0H9.04762C8.66873 0 8.30537 0.15051 8.03746 0.418419C7.76955 0.686328 7.61904 1.04969 7.61904 1.42857C7.61904 1.80745 7.76955 2.17081 8.03746 2.43872C8.30537 2.70663 8.66873 2.85714 9.04762 2.85714H11.4286V4.28571H9.04762C8.66873 4.28571 8.30537 4.43622 8.03746 4.70413C7.76955 4.97204 7.61904 5.3354 7.61904 5.71428C7.61904 5.84058 7.56887 5.9617 7.47957 6.051C7.39027 6.14031 7.26915 6.19047 7.14285 6.19047H5.71428C5.3354 6.19047 4.97204 6.34098 4.70413 6.60889C4.43622 6.8768 4.28571 7.24017 4.28571 7.61905V9.52381H2.85714V7.61905C2.85714 7.24017 2.70663 6.8768 2.43872 6.60889C2.17081 6.34098 1.80745 6.19047 1.42857 6.19047C1.04969 6.19047 0.686328 6.34098 0.418419 6.60889C0.15051 6.8768 0 7.24017 0 7.61905L0 15.2381C0 15.617 0.15051 15.9803 0.418419 16.2482C0.686328 16.5162 1.04969 16.6667 1.42857 16.6667C1.80745 16.6667 2.17081 16.5162 2.43872 16.2482C2.70663 15.9803 2.85714 15.617 2.85714 15.2381V13.3333H4.28571V15.7143C4.28571 16.0932 4.43622 16.4565 4.70413 16.7244C4.97204 16.9923 5.3354 17.1429 5.71428 17.1429H7.70095C7.82723 17.1429 7.94833 17.1931 8.03762 17.2824L10.3367 19.5814C10.4689 19.7146 10.6263 19.8201 10.7997 19.892C10.9731 19.9638 11.159 20.0005 11.3467 20H21.4286C21.8074 20 22.1708 19.8495 22.4387 19.5816C22.7066 19.3137 22.8571 18.9503 22.8571 18.5714V16.6667H23.8095V17.1429C23.8095 17.5217 23.96 17.8851 24.2279 18.153C24.4958 18.4209 24.8592 18.5714 25.2381 18.5714H26.1905C26.8217 18.5707 27.4269 18.3196 27.8732 17.8732C28.3196 17.4269 28.5707 16.8217 28.5714 16.1905V11.4286C28.5707 10.7973 28.3196 10.1922 27.8732 9.74582C27.4269 9.29947 26.8217 9.04837 26.1905 9.04762ZM8.57142 1.42857C8.57142 1.30228 8.62159 1.18116 8.7109 1.09185C8.8002 1.00255 8.92132 0.952381 9.04762 0.952381H18.5714C18.6977 0.952381 18.8188 1.00255 18.9081 1.09185C18.9974 1.18116 19.0476 1.30228 19.0476 1.42857C19.0476 1.55486 18.9974 1.67599 18.9081 1.76529C18.8188 1.85459 18.6977 1.90476 18.5714 1.90476H9.04762C8.92132 1.90476 8.8002 1.85459 8.7109 1.76529C8.62159 1.67599 8.57142 1.55486 8.57142 1.42857ZM12.3809 2.85714H15.2381V4.28571H12.3809V2.85714ZM1.90476 15.2381C1.90476 15.3644 1.85459 15.4855 1.76529 15.5748C1.67599 15.6641 1.55486 15.7143 1.42857 15.7143C1.30228 15.7143 1.18116 15.6641 1.09185 15.5748C1.00255 15.4855 0.952381 15.3644 0.952381 15.2381V7.61905C0.952381 7.49275 1.00255 7.37163 1.09185 7.28233C1.18116 7.19303 1.30228 7.14286 1.42857 7.14286C1.55486 7.14286 1.67599 7.19303 1.76529 7.28233C1.85459 7.37163 1.90476 7.49275 1.90476 7.61905V15.2381ZM2.85714 12.3809V10.4762H4.28571V12.3809H2.85714ZM21.9048 18.5714C21.9048 18.6977 21.8546 18.8188 21.7653 18.9081C21.676 18.9974 21.5549 19.0476 21.4286 19.0476H11.3467C11.2204 19.0476 11.0993 18.9974 11.01 18.9081L8.71095 16.609C8.57861 16.476 8.42121 16.3705 8.24785 16.2987C8.07449 16.2268 7.88861 16.19 7.70095 16.1905H5.71428C5.58799 16.1905 5.46687 16.1403 5.37757 16.051C5.28826 15.9617 5.23809 15.8406 5.23809 15.7143V7.61905C5.23809 7.49275 5.28826 7.37163 5.37757 7.28233C5.46687 7.19303 5.58799 7.14286 5.71428 7.14286H7.14285C7.52173 7.14286 7.8851 6.99235 8.15301 6.72444C8.42092 6.45653 8.57142 6.09316 8.57142 5.71428C8.57142 5.58799 8.62159 5.46687 8.7109 5.37757C8.8002 5.28826 8.92132 5.23809 9.04762 5.23809H18.0952C18.2215 5.23809 18.3426 5.28826 18.4319 5.37757C18.5213 5.46687 18.5714 5.58799 18.5714 5.71428V6.66667C18.5714 7.04555 18.7219 7.40891 18.9898 7.67682C19.2577 7.94473 19.6211 8.09524 20 8.09524H21.4286C21.5549 8.09524 21.676 8.14541 21.7653 8.23471C21.8546 8.32401 21.9048 8.44513 21.9048 8.57143V18.5714ZM22.8571 15.7143V11.9048H23.8095V15.7143H22.8571ZM27.619 16.1905C27.619 16.5694 27.4685 16.9327 27.2006 17.2006C26.9327 17.4685 26.5693 17.619 26.1905 17.619H25.2381C25.1118 17.619 24.9907 17.5689 24.9014 17.4796C24.8121 17.3903 24.7619 17.2691 24.7619 17.1429V10.4762C24.7619 10.3499 24.8121 10.2288 24.9014 10.1395C24.9907 10.0502 25.1118 10 25.2381 10H26.1905C26.5693 10 26.9327 10.1505 27.2006 10.4184C27.4685 10.6863 27.619 11.0497 27.619 11.4286V16.1905Z" fill="white"/>
<path d="M15.1167 13.3234C15.1167 12.8834 15.0167 12.5434 14.8167 12.3034C14.6167 12.0634 14.3327 11.9434 13.9647 11.9434V11.1154C14.6687 11.1154 15.2167 11.3114 15.6087 11.7034C16.0087 12.0954 16.2087 12.6434 16.2087 13.3474L15.1167 13.3234ZM13.9647 16.1794C13.2607 16.1794 12.7087 15.9794 12.3087 15.5794C11.9167 15.1714 11.7207 14.6034 11.7207 13.8754L12.8127 13.8514C12.8127 14.1394 12.8567 14.3874 12.9447 14.5954C13.0407 14.8034 13.1727 14.9634 13.3407 15.0754C13.5167 15.1794 13.7247 15.2314 13.9647 15.2314V16.1794ZM11.7207 13.8754V13.3474L12.8127 13.3234V13.8514L11.7207 13.8754ZM13.9647 16.1794V15.2314C14.2047 15.2314 14.4087 15.1794 14.5767 15.0754C14.7527 14.9634 14.8847 14.8034 14.9727 14.5954C15.0687 14.3874 15.1167 14.1394 15.1167 13.8514L16.2087 13.8754C16.2087 14.6034 16.0087 15.1714 15.6087 15.5794C15.2167 15.9794 14.6687 16.1794 13.9647 16.1794ZM11.7207 13.3474C11.7207 12.6434 11.9167 12.0954 12.3087 11.7034C12.7087 11.3114 13.2607 11.1154 13.9647 11.1154V11.9434C13.6047 11.9434 13.3207 12.0634 13.1127 12.3034C12.9127 12.5434 12.8127 12.8834 12.8127 13.3234L11.7207 13.3474ZM15.1167 13.8514V13.3234L16.2087 13.3474V13.8754L15.1167 13.8514ZM13.9647 11.9434C13.3167 11.9434 12.7967 11.7514 12.4047 11.3674C12.0207 10.9834 11.8287 10.4754 11.8287 9.84338L12.9207 9.87937C12.9207 10.2794 13.0087 10.5874 13.1847 10.8034C13.3687 11.0114 13.6287 11.1154 13.9647 11.1154V11.9434ZM11.8287 9.84338V9.50738L12.9207 9.53138V9.87937L11.8287 9.84338ZM13.9647 11.9434V11.1154C14.3087 11.1154 14.5687 11.0114 14.7447 10.8034C14.9207 10.5874 15.0087 10.2794 15.0087 9.87937L16.1007 9.84338C16.1007 10.4754 15.9087 10.9834 15.5247 11.3674C15.1407 11.7514 14.6207 11.9434 13.9647 11.9434ZM11.8287 9.50738C11.8287 8.85138 12.0207 8.33138 12.4047 7.94738C12.7967 7.55538 13.3167 7.35938 13.9647 7.35938V8.30738C13.7407 8.30738 13.5487 8.35538 13.3887 8.45138C13.2367 8.53938 13.1207 8.67538 13.0407 8.85938C12.9607 9.04338 12.9207 9.26738 12.9207 9.53138L11.8287 9.50738ZM15.0087 9.87937V9.53138L16.1007 9.50738V9.84338L15.0087 9.87937ZM15.0087 9.53138C15.0087 9.26738 14.9687 9.04338 14.8887 8.85938C14.8087 8.67538 14.6927 8.53938 14.5407 8.45138C14.3887 8.35538 14.1967 8.30738 13.9647 8.30738V7.35938C14.6207 7.35938 15.1407 7.55538 15.5247 7.94738C15.9087 8.33138 16.1007 8.85138 16.1007 9.50738L15.0087 9.53138Z" fill="white"/>
</svg>
