<svg width="18" height="14" viewBox="0 0 18 14" fill="none" xmlns="http://www.w3.org/2000/svg">
<path d="M17.1956 2.18116C16.8406 1.80918 16.3502 1.58937 15.7923 1.58937H12.9855V1.55556C12.9855 1.13285 12.8164 0.727053 12.529 0.456522C12.2415 0.169082 11.8527 0 11.43 0H6.35749C5.91787 0 5.52898 0.169082 5.24155 0.456522C4.95411 0.743961 4.78502 1.13285 4.78502 1.55556V1.58937H1.99517C1.4372 1.58937 0.94686 1.80918 0.591787 2.18116C0.236715 2.53623 0 3.04348 0 3.58454V12.0048C0 12.5628 0.219807 13.0531 0.591787 13.4082C0.94686 13.7633 1.45411 14 1.99517 14H15.7923C16.3502 14 16.8406 13.7802 17.1956 13.4082C17.5507 13.0531 17.7874 12.5459 17.7874 12.0048V3.58454C17.7874 3.02657 17.5676 2.53623 17.1956 2.18116ZM16.9082 12.0048H16.8913C16.8913 12.3092 16.7729 12.5797 16.57 12.7826C16.3671 12.9855 16.0966 13.1039 15.7923 13.1039H1.99517C1.69082 13.1039 1.42029 12.9855 1.21739 12.7826C1.01449 12.5797 0.896135 12.3092 0.896135 12.0048V3.58454C0.896135 3.28019 1.01449 3.00966 1.21739 2.80676C1.42029 2.60386 1.69082 2.48551 1.99517 2.48551H5.25845C5.51208 2.48551 5.71498 2.28261 5.71498 2.02899V1.53865C5.71498 1.35266 5.78261 1.18357 5.90097 1.06522C6.01932 0.94686 6.18841 0.879227 6.3744 0.879227H11.43C11.6159 0.879227 11.785 0.94686 11.9034 1.06522C12.0217 1.18357 12.0894 1.35266 12.0894 1.53865V2.02899C12.0894 2.28261 12.2923 2.48551 12.5459 2.48551H15.8092C16.1135 2.48551 16.3841 2.60386 16.587 2.80676C16.7899 3.00966 16.9082 3.28019 16.9082 3.58454V12.0048Z" fill="#0E0E0E"/>
<path d="M8.89379 3.63477C7.74404 3.63477 6.69573 4.1082 5.95177 4.85216C5.1909 5.61303 4.73438 6.64443 4.73438 7.79419C4.73438 8.94394 5.20781 9.99225 5.95177 10.7362C6.71264 11.4971 7.74404 11.9536 8.89379 11.9536C10.0436 11.9536 11.0919 11.4802 11.8358 10.7362C12.5967 9.97535 13.0532 8.94394 13.0532 7.79419C13.0532 6.64443 12.5798 5.59612 11.8358 4.85216C11.0919 4.1082 10.0436 3.63477 8.89379 3.63477ZM11.1933 10.1106C10.6015 10.6855 9.78993 11.0575 8.89379 11.0575C7.99766 11.0575 7.18607 10.6855 6.59428 10.1106C6.00249 9.51882 5.64742 8.70723 5.64742 7.81109C5.64742 6.91496 6.0194 6.10336 6.59428 5.51158C7.18607 4.91979 7.99766 4.56472 8.89379 4.56472C9.78993 4.56472 10.6015 4.9367 11.1933 5.51158C11.7851 6.10336 12.1402 6.91496 12.1402 7.81109C12.1571 8.70723 11.7851 9.51882 11.1933 10.1106Z" fill="#0E0E0E"/>
<path d="M14.9125 5.27615C15.3701 5.27615 15.741 4.90521 15.741 4.44764C15.741 3.99007 15.3701 3.61914 14.9125 3.61914C14.4549 3.61914 14.084 3.99007 14.084 4.44764C14.084 4.90521 14.4549 5.27615 14.9125 5.27615Z" fill="#0E0E0E"/>
</svg>
