<svg width="51" height="58" viewBox="0 0 51 58" fill="none" xmlns="http://www.w3.org/2000/svg">
<path d="M48.7649 21.4238L28.8828 1.54164C26.8274 -0.513822 23.4826 -0.513939 21.4271 1.54164C19.5793 3.38933 19.4201 6.20734 20.7846 8.21956L20.757 8.35796C19.3236 15.5257 15.8338 22.0465 10.6648 27.2154L1.54542 36.3348C-0.514965 38.3953 -0.515316 41.73 1.54542 43.7905L6.5158 48.7608C8.57607 50.8212 11.911 50.8214 13.9715 48.7608L15.2141 47.5182L23.9125 56.2165C25.9729 58.277 29.3076 58.2772 31.3681 56.2165C33.4236 54.1611 33.4236 50.8164 31.3681 48.761L27.6402 45.0331L28.8829 43.7905C30.9433 41.7302 30.9435 38.3955 28.8829 36.3349L28.0384 35.4903C32.1926 32.5819 36.9104 30.557 41.9487 29.5493L42.0888 29.5213C44.1458 30.9101 46.9572 30.6868 48.7649 28.8792H48.765C50.8202 26.8239 50.8202 23.4793 48.7649 21.4238ZM11.4863 46.2757C10.7996 46.9623 9.68771 46.9624 9.00099 46.2755L4.03061 41.3052C3.34378 40.6182 3.34378 39.5068 4.03061 38.82L12.7288 30.1216L20.1845 37.5773C19.3335 38.4283 12.3583 45.4036 11.4863 46.2757ZM28.8828 51.246C29.5678 51.9311 29.5678 53.046 28.8828 53.7312C28.1977 54.4163 27.0826 54.4163 26.3976 53.7312L17.6992 45.0329L20.1845 42.5477L28.8828 51.246ZM22.6697 40.0625C23.198 39.5342 23.9888 38.725 25.2368 37.6591L26.3976 38.82C27.0844 39.5068 27.0844 40.6182 26.3976 41.3052L25.1549 42.5478L22.6697 40.0625ZM22.7444 35.1669L15.1391 27.5617C19.2148 22.8555 22.1335 17.3003 23.695 11.2651L39.0409 26.611C33.0058 28.1725 27.4506 31.0911 22.7444 35.1669ZM46.2793 26.3939C45.5925 27.0806 44.481 27.0806 43.7941 26.3939L23.9123 6.51202C23.2254 5.82507 23.2254 4.71367 23.9123 4.02683C24.5991 3.34 25.7107 3.34 26.3976 4.02683L46.2793 23.9086C46.9644 24.5938 46.9644 25.7086 46.2793 26.3939Z" fill="#3CB339"/>
</svg>
