<svg width="55" height="55" viewBox="0 0 55 55" fill="none" xmlns="http://www.w3.org/2000/svg">
<path fill-rule="evenodd" clip-rule="evenodd" d="M4.07407 27.5C4.07407 14.5622 14.5622 4.07407 27.5 4.07407C40.4378 4.07407 50.9259 14.5622 50.9259 27.5C50.9259 40.4378 40.4378 50.9259 27.5 50.9259C14.5622 50.9259 4.07407 40.4378 4.07407 27.5ZM27.5 0C12.3122 0 0 12.3122 0 27.5C0 42.6878 12.3122 55 27.5 55C42.6878 55 55 42.6878 55 27.5C55 12.3122 42.6878 0 27.5 0ZM38.352 21.2179V37.8611C39.7412 38.3539 40.7392 39.6805 40.7392 41.2365C40.7392 43.211 39.1328 44.8173 37.1584 44.8173C35.184 44.8173 33.5777 43.211 33.5777 41.2365C33.5777 39.6805 34.5756 38.3538 35.9648 37.8611V30.7331H26.6549V37.8611C28.0442 38.3539 29.0421 39.6805 29.0421 41.2365C29.0421 43.211 27.4358 44.8173 25.4614 44.8173C23.487 44.8173 21.8806 43.211 21.8806 41.2365C21.8806 39.6805 22.8786 38.3538 24.2678 37.8611V30.7331H16.1515C14.1771 30.7331 12.5707 29.1268 12.5707 27.1523V21.2179C11.1815 20.7251 10.1836 19.3985 10.1836 17.8424C10.1836 15.868 11.7899 14.2617 13.7643 14.2617C15.7387 14.2617 17.3451 15.868 17.3451 17.8424C17.3451 19.3985 16.3471 20.7252 14.9579 21.2179V27.1523C14.9579 27.8105 15.4933 28.3459 16.1515 28.3459H24.2678V21.2179C22.8786 20.7251 21.8806 19.3985 21.8806 17.8424C21.8806 15.868 23.487 14.2617 25.4614 14.2617C27.4358 14.2617 29.0421 15.868 29.0421 17.8424C29.0421 19.3985 28.0442 20.7252 26.6549 21.2179V28.3459H35.9648V21.2179C34.5756 20.7251 33.5777 19.3985 33.5777 17.8424C33.5777 15.868 35.184 14.2617 37.1584 14.2617C39.1328 14.2617 40.7392 15.868 40.7392 17.8424C40.7392 19.3985 39.7412 20.7252 38.352 21.2179ZM26.6549 17.8424C26.6549 17.1843 26.1195 16.6489 25.4614 16.6489C24.8032 16.6489 24.2678 17.1843 24.2678 17.8424C24.2678 18.5006 24.8032 19.036 25.4614 19.036C26.1195 19.036 26.6549 18.5006 26.6549 17.8424ZM14.9579 17.8424C14.9579 17.1843 14.4225 16.6489 13.7643 16.6489C13.1062 16.6489 12.5707 17.1843 12.5707 17.8424C12.5707 18.5006 13.1062 19.036 13.7643 19.036C14.4225 19.036 14.9579 18.5006 14.9579 17.8424ZM24.2678 41.2365C24.2678 41.8947 24.8032 42.4301 25.4614 42.4301C26.1195 42.4301 26.6549 41.8947 26.6549 41.2365C26.6549 40.5784 26.1195 40.043 25.4614 40.043C24.8032 40.043 24.2678 40.5784 24.2678 41.2365ZM38.352 17.8424C38.352 17.1843 37.8166 16.6489 37.1584 16.6489C36.5003 16.6489 35.9648 17.1843 35.9648 17.8424C35.9648 18.5006 36.5003 19.036 37.1584 19.036C37.8166 19.036 38.352 18.5006 38.352 17.8424ZM35.9648 41.2365C35.9648 41.8947 36.5003 42.4301 37.1584 42.4301C37.8166 42.4301 38.352 41.8947 38.352 41.2365C38.352 40.5784 37.8166 40.043 37.1584 40.043C36.5003 40.043 35.9648 40.5784 35.9648 41.2365Z" fill="#3CB339"/>
</svg>
