<svg width="59" height="59" viewBox="0 0 59 59" fill="none" xmlns="http://www.w3.org/2000/svg">
<path d="M26.6344 42.3933C26.3047 42.7248 25.855 42.91 25.3876 42.91C24.9203 42.91 24.4706 42.7248 24.1409 42.3933L14.1842 32.4349C13.1508 31.4015 13.1508 29.7262 14.1842 28.6945L15.431 27.4478C16.4644 26.4144 18.138 26.4144 19.1714 27.4478L25.3876 33.664L42.1848 16.8668C43.2182 15.8334 44.8935 15.8334 45.9252 16.8668L47.172 18.1136C48.2054 19.147 48.2054 20.8223 47.172 21.854L26.6344 42.3933Z" fill="#3CB339"/>
<path d="M57.5 29.5C57.5 44.964 44.964 57.5 29.5 57.5C14.036 57.5 1.5 44.964 1.5 29.5C1.5 14.036 14.036 1.5 29.5 1.5C44.964 1.5 57.5 14.036 57.5 29.5Z" stroke="#30A13B" stroke-width="3"/>
</svg>
