<svg width="74" height="37" viewBox="0 0 74 37" fill="none" xmlns="http://www.w3.org/2000/svg">
<path d="M30.6421 14.2991V3.57422H39.627C40.737 3.57422 41.597 3.85422 42.207 4.41421C42.827 4.97421 43.137 5.8242 43.137 6.96419C43.137 7.93418 42.912 8.69417 42.462 9.24417C42.012 9.79416 41.372 10.1392 40.542 10.2792L43.017 14.2991H40.287L37.992 10.3542H33.0421V14.2991H30.6421ZM39.342 5.5242H33.0421V8.38918L39.342 8.40418C39.782 8.40418 40.117 8.29418 40.347 8.07418C40.587 7.85418 40.707 7.48418 40.707 6.96419C40.707 6.43419 40.587 6.0642 40.347 5.8542C40.117 5.6342 39.782 5.5242 39.342 5.5242Z" fill="white"/>
<path fill-rule="evenodd" clip-rule="evenodd" d="M29 1.49999H45.1998C45.476 1.49999 45.6998 1.72384 45.6998 1.99998V15.7999C45.6998 16.076 45.476 16.2999 45.1998 16.2999H39.3323L40.8939 17.7998H45.1998C46.3044 17.7998 47.1998 16.9044 47.1998 15.7999V1.99998C47.1998 0.895423 46.3044 0 45.1998 0H29C27.8954 0 27 0.895422 27 1.99998V15.7999C27 16.9044 27.8954 17.7998 29 17.7998H33.3662L35.0305 16.2999H29C28.7238 16.2999 28.5 16.076 28.5 15.7999V1.99998C28.5 1.72384 28.7238 1.49999 29 1.49999Z" fill="white"/>
<path d="M37.0758 15.5996L39.8037 18.8996H34.3478L37.0758 15.5996Z" fill="white"/>
<path d="M1.256 36H0.184V25.84L4.44 25.792C5.112 25.7707 5.61333 25.9093 5.944 26.208C6.27467 26.5067 6.44 26.9813 6.44 27.632V29.872C6.44 30.48 6.29067 30.9333 5.992 31.232C5.69333 31.5307 5.23467 31.696 4.616 31.728L4.632 31.488C4.86667 31.5413 5.048 31.6533 5.176 31.824C5.304 31.9947 5.42667 32.2507 5.544 32.592L6.728 36H5.656L4.248 31.92C4.216 31.856 4.184 31.8133 4.152 31.792C4.13067 31.76 4.072 31.744 3.976 31.744H0.952L1.24 31.52L1.256 36ZM1.24 26.48V31.072L1.048 30.848H5.128C5.26667 30.848 5.336 30.7787 5.336 30.64V26.912C5.336 26.7733 5.26667 26.704 5.128 26.704H1.048L1.24 26.48ZM13.215 36.08H9.999C9.36967 36.08 8.90567 35.9627 8.607 35.728C8.319 35.4933 8.175 35.0667 8.175 34.448V29.664C8.175 29.0453 8.303 28.624 8.559 28.4C8.815 28.176 9.25233 28.064 9.871 28.064H11.631C12.2603 28.064 12.7083 28.176 12.975 28.4C13.2523 28.624 13.391 29.0453 13.391 29.664V32.88H9.087V32.096H12.351V29.04C12.351 28.9547 12.3083 28.912 12.223 28.912H9.359C9.27367 28.912 9.231 28.9547 9.231 29.04V35.088C9.231 35.184 9.27367 35.232 9.359 35.232H13.215V36.08ZM17.2781 28.064H18.5421C19.1395 28.064 19.5715 28.176 19.8381 28.4C20.1048 28.6133 20.2381 29.0187 20.2381 29.616V36H19.2141V29.04C19.2141 28.9547 19.1661 28.912 19.0701 28.912H16.1741C16.0781 28.912 16.0301 28.9547 16.0301 29.04L16.0461 36H15.0061V28.16H15.8861L16.0301 28.912L15.8701 29.456C15.8701 28.9547 15.9821 28.5973 16.2061 28.384C16.4301 28.1707 16.7875 28.064 17.2781 28.064ZM25.3193 28.16V28.976H23.2713L23.4313 28.816V35.008C23.4313 35.0933 23.4739 35.136 23.5593 35.136H25.3193V36H24.2313C23.5913 36 23.1273 35.8827 22.8393 35.648C22.5513 35.4027 22.4073 34.976 22.4073 34.368V28.816L22.5673 28.976H21.4153V28.16H22.5673L22.4073 28.32V26.16H23.4313V28.32L23.2713 28.16H25.3193ZM28.7998 36.096H27.5678C26.9811 36.096 26.5491 35.984 26.2718 35.76C26.0051 35.536 25.8717 35.1307 25.8717 34.544V33.104C25.8717 32.496 26.0104 32.08 26.2878 31.856C26.5651 31.632 27.0131 31.52 27.6318 31.52H30.1758V32.304H27.0398C26.9544 32.304 26.9118 32.352 26.9118 32.448V35.12C26.9118 35.2053 26.9544 35.248 27.0398 35.248H30.0318V29.152C30.0318 29.056 29.9891 29.008 29.9038 29.008H26.2878V28.16H29.3118C29.9411 28.1493 30.3944 28.2613 30.6718 28.496C30.9491 28.72 31.0878 29.1467 31.0878 29.776V36H30.1758L30.0318 35.248L30.1438 34.704C30.1438 35.1947 30.0424 35.552 29.8398 35.776C29.6371 35.9893 29.2904 36.096 28.7998 36.096ZM33.9866 36H32.9626V25.2H33.9866V36ZM40.2355 30.416H43.0035C43.6755 30.416 44.1875 30.5547 44.5395 30.832C44.8915 31.1093 45.0675 31.5573 45.0675 32.176V34.208C45.0675 34.8587 44.9022 35.3333 44.5715 35.632C44.2408 35.9307 43.7395 36.0693 43.0675 36.048L39.0355 36V35.072H43.7555C43.8942 35.072 43.9635 35.008 43.9635 34.88V31.584C43.9635 31.4453 43.8942 31.376 43.7555 31.376H40.9235C40.2515 31.376 39.7502 31.248 39.4195 30.992C39.0888 30.736 38.9235 30.2827 38.9235 29.632V27.664C38.9235 27.0453 39.0995 26.576 39.4515 26.256C39.8035 25.9253 40.3155 25.7707 40.9875 25.792L44.7955 25.84V26.768H40.2355C40.0968 26.768 40.0275 26.832 40.0275 26.96V30.208C40.0275 30.3467 40.0968 30.416 40.2355 30.416ZM50.0068 28.16V28.976H47.9588L48.1188 28.816V35.008C48.1188 35.0933 48.1614 35.136 48.2468 35.136H50.0068V36H48.9188C48.2788 36 47.8148 35.8827 47.5268 35.648C47.2388 35.4027 47.0948 34.976 47.0948 34.368V28.816L47.2548 28.976H46.1028V28.16H47.2548L47.0948 28.32V26.16H48.1188V28.32L47.9588 28.16H50.0068ZM53.4873 36.096H52.2553C51.6686 36.096 51.2366 35.984 50.9593 35.76C50.6926 35.536 50.5592 35.1307 50.5592 34.544V33.104C50.5592 32.496 50.6979 32.08 50.9753 31.856C51.2526 31.632 51.7006 31.52 52.3193 31.52H54.8633V32.304H51.7273C51.6419 32.304 51.5993 32.352 51.5993 32.448V35.12C51.5993 35.2053 51.6419 35.248 51.7273 35.248H54.7193V29.152C54.7193 29.056 54.6766 29.008 54.5913 29.008H50.9753V28.16H53.9993C54.6286 28.1493 55.0819 28.2613 55.3593 28.496C55.6366 28.72 55.7753 29.1467 55.7753 29.776V36H54.8633L54.7193 35.248L54.8313 34.704C54.8313 35.1947 54.7299 35.552 54.5273 35.776C54.3246 35.9893 53.9779 36.096 53.4873 36.096ZM60.8661 28.16V28.976H58.8181L58.9781 28.816V35.008C58.9781 35.0933 59.0208 35.136 59.1061 35.136H60.8661V36H59.7781C59.1381 36 58.6741 35.8827 58.3861 35.648C58.0981 35.4027 57.9541 34.976 57.9541 34.368V28.816L58.1141 28.976H56.9621V28.16H58.1141L57.9541 28.32V26.16H58.9781V28.32L58.8181 28.16H60.8661ZM64.6826 36.096H63.4026C62.816 36.096 62.384 35.984 62.1066 35.76C61.84 35.536 61.7066 35.1307 61.7066 34.544V28.16H62.7466V35.12C62.7466 35.2053 62.7893 35.248 62.8746 35.248H65.9306L65.9146 28.16H66.9546V36H66.0746L65.9306 35.248L66.0266 34.704C66.0266 35.1947 65.9253 35.552 65.7226 35.776C65.52 35.9893 65.1733 36.096 64.6826 36.096ZM71.715 36.064H68.531V35.232H72.243C72.3283 35.232 72.371 35.184 72.371 35.088V32.544C72.371 32.4587 72.3283 32.416 72.243 32.416H70.179C69.5603 32.416 69.1123 32.304 68.835 32.08C68.5577 31.8453 68.419 31.4293 68.419 30.832V29.68C68.419 29.0613 68.5577 28.64 68.835 28.416C69.123 28.1813 69.5763 28.064 70.195 28.064H73.059V28.928H69.603C69.507 28.928 69.459 28.9707 69.459 29.056V31.456C69.459 31.552 69.507 31.6 69.603 31.6H71.651C72.2803 31.6 72.7283 31.712 72.995 31.936C73.2723 32.1493 73.411 32.5653 73.411 33.184V34.512C73.411 35.0987 73.2777 35.504 73.011 35.728C72.7443 35.952 72.3123 36.064 71.715 36.064Z" fill="white"/>
</svg>
