<svg width="20" height="20" viewBox="0 0 20 20" fill="none" xmlns="http://www.w3.org/2000/svg">
<g clip-path="url(#clip0_1_1016)">
<path d="M13.5451 6.45505C12.6456 5.55558 11.3757 4.97357 10.0001 4.97357C8.62443 4.97357 7.35459 5.52913 6.45511 6.45505C5.55564 7.35452 4.97363 8.62437 4.97363 10C4.97363 11.3757 5.55564 12.6455 6.45511 13.545C7.35459 14.4445 8.62443 15.0265 10.0001 15.0265C11.3757 15.0265 12.6456 14.4709 13.5451 13.545C14.4445 12.6455 15.0265 11.3757 15.0265 10C15.0265 8.62437 14.471 7.35452 13.5451 6.45505ZM12.5927 12.5926C11.9313 13.254 11.0054 13.6508 10.0001 13.6508C8.9948 13.6508 8.06887 13.254 7.4075 12.5926C6.74612 11.9312 6.34929 11.0053 6.34929 10C6.34929 8.99474 6.74612 8.06881 7.4075 7.40743C8.06887 6.74606 8.9948 6.34923 10.0001 6.34923C11.0054 6.34923 11.9313 6.74606 12.5927 7.40743C13.2541 8.06881 13.6509 8.99474 13.6509 10C13.6509 11.0053 13.2541 11.9312 12.5927 12.5926Z" fill="white"/>
<path d="M19.3123 9.31219H17.2752C16.9049 9.31219 16.5874 9.62965 16.5874 10C16.5874 10.3704 16.9049 10.6879 17.2752 10.6879H19.3123C19.6826 10.6879 20.0001 10.3704 20.0001 10C20.0001 9.62965 19.6826 9.31219 19.3123 9.31219Z" fill="white"/>
<path d="M9.99984 16.5873C9.62947 16.5873 9.31201 16.9047 9.31201 17.2751V19.3121C9.31201 19.6825 9.62947 20 9.99984 20C10.3702 20 10.6877 19.6825 10.6877 19.3121V17.2751C10.6877 16.9047 10.3702 16.5873 9.99984 16.5873Z" fill="white"/>
<path d="M17.0633 16.1111L15.6083 14.6561C15.3702 14.3916 14.9205 14.3916 14.6559 14.6561C14.3914 14.9207 14.3914 15.3439 14.6559 15.6085L16.111 17.0635C16.3755 17.3281 16.7988 17.3281 17.0633 17.0635C17.3279 16.799 17.3279 16.3757 17.0633 16.1111Z" fill="white"/>
<path d="M9.99984 0C9.62947 0 9.31201 0.31746 9.31201 0.687831V2.72487C9.31201 3.09524 9.62947 3.4127 9.99984 3.4127C10.3702 3.4127 10.6877 3.09524 10.6877 2.72487V0.687831C10.6877 0.31746 10.3702 0 9.99984 0Z" fill="white"/>
<path d="M17.0897 2.93651C16.8252 2.67196 16.4019 2.67196 16.1373 2.93651L14.6823 4.39154C14.4177 4.65609 14.4177 5.07937 14.6823 5.34392C14.9204 5.60847 15.3701 5.60847 15.6347 5.34392L17.0897 3.88889C17.3543 3.62434 17.3543 3.20106 17.0897 2.93651Z" fill="white"/>
<path d="M2.72487 9.31219H0.687831C0.31746 9.31219 0 9.62965 0 10C0 10.3704 0.291005 10.6879 0.687831 10.6879H2.72487C3.09524 10.6879 3.4127 10.3704 3.4127 10C3.4127 9.62965 3.09524 9.31219 2.72487 9.31219Z" fill="white"/>
<path d="M5.31725 14.6561C5.07915 14.3916 4.62942 14.3916 4.36486 14.6561L2.90984 16.1111C2.64529 16.3757 2.64529 16.799 2.90984 17.0635C3.17439 17.3281 3.59767 17.3281 3.86222 17.0635L5.31725 15.6085C5.5818 15.3439 5.5818 14.9207 5.31725 14.6561Z" fill="white"/>
<path d="M5.31725 4.39154L3.86222 2.93651C3.59767 2.67196 3.17439 2.67196 2.90984 2.93651C2.64529 3.20106 2.64529 3.62434 2.90984 3.88889L4.36486 5.34392C4.62942 5.60847 5.0527 5.60847 5.31725 5.34392C5.5818 5.07937 5.5818 4.65609 5.31725 4.39154Z" fill="white"/>
</g>
<defs>
<clipPath id="clip0_1_1016">
<rect width="20" height="20" fill="white"/>
</clipPath>
</defs>
</svg>
