<svg width="55" height="55" viewBox="0 0 55 55" fill="none" xmlns="http://www.w3.org/2000/svg">
<path d="M27.2634 53.2539L26.4634 52.8904C19.4013 49.6803 13.3446 44.9203 8.46279 38.7413C6.79828 36.6352 5.88184 33.9866 5.88184 31.2832V1.69141L8.6853 2.89424C12.1031 4.3608 14.8703 5.04372 17.3928 5.04372C21.8088 5.04372 26.189 2.3586 26.2327 2.33153L27.2634 1.69267L28.3123 2.30384C28.3555 2.3287 32.899 4.9449 37.2983 4.9449C40.4776 4.9449 43.5249 3.84467 45.8245 2.88605L48.6088 1.72602V31.5674C48.6088 34.1191 47.8207 36.559 46.3303 38.6254C41.7779 44.9326 35.6354 49.7401 28.0738 52.9137L27.2634 53.2539ZM9.90292 7.68196V31.2832C9.90292 33.0856 10.5119 34.8489 11.6181 36.2484C15.9136 41.6848 21.1957 45.9227 27.3279 48.8561C33.8261 45.9759 39.1189 41.7452 43.0692 36.2717C44.0621 34.8955 44.5874 33.2684 44.5874 31.5674V7.65552C42.4357 8.37873 39.9498 8.96599 37.2983 8.96599C33.1699 8.96599 29.1658 7.24608 27.3241 6.32901C25.5108 7.28448 21.5712 9.06512 17.3928 9.06512C14.6623 9.06544 12.065 8.42468 9.90292 7.68196ZM39.7254 20.2387L36.882 17.3952L25.0588 29.219L18.5131 22.6733L15.6694 25.5167L25.0588 34.9059L39.7254 20.2387Z" fill="#3CB339"/>
</svg>
