<svg width="20" height="12" viewBox="0 0 20 12" fill="none" xmlns="http://www.w3.org/2000/svg">
<path d="M14.9762 0.68689H5.17717C4.78998 0.68689 4.47607 1.00079 4.47607 1.38798C4.47607 4.47616 6.98852 6.98861 10.0767 6.98861C13.1649 6.98861 15.6773 4.47616 15.6773 1.38798C15.6773 1.00079 15.3634 0.68689 14.9762 0.68689ZM10.0767 5.58642C8.00052 5.58642 6.27144 4.07159 5.93678 2.08908H14.2166C13.8821 4.07159 12.153 5.58642 10.0767 5.58642Z" fill="white"/>
<path d="M19.4916 0.68689H17.1495C16.8687 0.68689 16.6411 0.937534 16.6411 1.2467C16.6411 1.55586 16.8687 1.8065 17.1495 1.8065H19.4916C19.7723 1.8065 20 1.55586 20 1.2467C20 0.937534 19.7723 0.68689 19.4916 0.68689Z" fill="white"/>
<path d="M2.85047 0.68689H0.508372C0.227615 0.68689 0 0.937534 0 1.2467C0 1.55586 0.227615 1.8065 0.508372 1.8065H2.85047C3.13123 1.8065 3.35885 1.55586 3.35885 1.2467C3.35885 0.937534 3.13123 0.68689 2.85047 0.68689Z" fill="white"/>
<path d="M11.1963 8.26354L11.1963 10.6056C11.1963 10.8864 10.9456 11.114 10.6365 11.114C10.3273 11.114 10.0767 10.8864 10.0767 10.6056L10.0767 8.26354C10.0767 7.98278 10.3273 7.75517 10.6365 7.75517C10.9456 7.75517 11.1963 7.98278 11.1963 8.26354Z" fill="white"/>
<path d="M4.81865 6.15494L3.14782 7.79621C2.94753 7.99296 2.60951 7.97366 2.39286 7.75311C2.17621 7.53255 2.16294 7.19424 2.36323 6.99749L4.03406 5.35622C4.23435 5.15948 4.57237 5.17878 4.78902 5.39933C5.00567 5.61988 5.01894 5.95819 4.81865 6.15494Z" fill="white"/>
<path d="M15.363 6.15494L17.0338 7.79621C17.2341 7.99296 17.5721 7.97366 17.7888 7.75311C18.0054 7.53255 18.0187 7.19424 17.8184 6.99749L16.1476 5.35622C15.9473 5.15948 15.6093 5.17878 15.3926 5.39933C15.176 5.61988 15.1627 5.95819 15.363 6.15494Z" fill="white"/>
</svg>
