<svg width="20" height="20" viewBox="0 0 20 20" fill="none" xmlns="http://www.w3.org/2000/svg">
<path fill-rule="evenodd" clip-rule="evenodd" d="M1.48148 10C1.48148 5.29535 5.29535 1.48148 10 1.48148C14.7046 1.48148 18.5185 5.29535 18.5185 10C18.5185 14.7046 14.7046 18.5185 10 18.5185C5.29535 18.5185 1.48148 14.7046 1.48148 10ZM10 0C4.47715 0 0 4.47715 0 10C0 15.5228 4.47715 20 10 20C15.5228 20 20 15.5228 20 10C20 4.47715 15.5228 0 10 0ZM13.9462 7.71453V13.7666C14.4513 13.9458 14.8142 14.4282 14.8142 14.994C14.8142 15.712 14.2301 16.2961 13.5122 16.2961C12.7942 16.2961 12.2101 15.712 12.2101 14.994C12.2101 14.4282 12.573 13.9458 13.0781 13.7666V11.1746H9.69271V13.7666C10.1979 13.9458 10.5608 14.4282 10.5608 14.994C10.5608 15.712 9.97665 16.2961 9.25868 16.2961C8.54071 16.2961 7.9566 15.712 7.9566 14.994C7.9566 14.4282 8.31949 13.9458 8.82465 13.7666V11.1746H5.87326C5.15529 11.1746 4.57118 10.5905 4.57118 9.87252V7.71453C4.06602 7.53534 3.70312 7.05292 3.70312 6.4871C3.70312 5.76913 4.28724 5.18502 5.00521 5.18502C5.72318 5.18502 6.30729 5.76913 6.30729 6.4871C6.30729 7.05292 5.9444 7.53537 5.43924 7.71453V9.87252C5.43924 10.1118 5.63394 10.3065 5.87326 10.3065H8.82465V7.71453C8.31949 7.53534 7.9566 7.05292 7.9566 6.4871C7.9566 5.76913 8.54071 5.18502 9.25868 5.18502C9.97665 5.18502 10.5608 5.76913 10.5608 6.4871C10.5608 7.05292 10.1979 7.53537 9.69271 7.71453V10.3065H13.0781V7.71453C12.573 7.53534 12.2101 7.05292 12.2101 6.4871C12.2101 5.76913 12.7942 5.18502 13.5122 5.18502C14.2301 5.18502 14.8142 5.76913 14.8142 6.4871C14.8142 7.05292 14.4513 7.53537 13.9462 7.71453ZM9.69271 6.4871C9.69271 6.24778 9.498 6.05307 9.25868 6.05307C9.01936 6.05307 8.82465 6.24778 8.82465 6.4871C8.82465 6.72642 9.01936 6.92113 9.25868 6.92113C9.498 6.92113 9.69271 6.72642 9.69271 6.4871ZM5.43924 6.4871C5.43924 6.24778 5.24453 6.05307 5.00521 6.05307C4.76589 6.05307 4.57118 6.24778 4.57118 6.4871C4.57118 6.72642 4.76589 6.92113 5.00521 6.92113C5.24453 6.92113 5.43924 6.72642 5.43924 6.4871ZM8.82465 14.994C8.82465 15.2334 9.01936 15.4281 9.25868 15.4281C9.498 15.4281 9.69271 15.2334 9.69271 14.994C9.69271 14.7547 9.498 14.56 9.25868 14.56C9.01936 14.56 8.82465 14.7547 8.82465 14.994ZM13.9462 6.4871C13.9462 6.24778 13.7515 6.05307 13.5122 6.05307C13.2728 6.05307 13.0781 6.24778 13.0781 6.4871C13.0781 6.72642 13.2728 6.92113 13.5122 6.92113C13.7515 6.92113 13.9462 6.72642 13.9462 6.4871ZM13.0781 14.994C13.0781 15.2334 13.2728 15.4281 13.5122 15.4281C13.7515 15.4281 13.9462 15.2334 13.9462 14.994C13.9462 14.7547 13.7515 14.56 13.5122 14.56C13.2728 14.56 13.0781 14.7547 13.0781 14.994Z" fill="white"/>
</svg>
