<svg width="43" height="30" viewBox="0 0 43 30" fill="none" xmlns="http://www.w3.org/2000/svg">
<path fill-rule="evenodd" clip-rule="evenodd" d="M3.74988 0H38.9165C39.4766 0 40.0031 0.131667 40.4807 0.352667L26.7663 14.113C26.7654 14.1139 26.7634 14.115 26.7634 14.115L26.7623 14.1164L26.7614 14.1179L22.3029 18.5913C21.8292 19.065 20.8374 19.065 20.3637 18.5913L15.9043 14.1172L15.904 14.1161L15.9032 14.115C15.9023 14.1141 15.9012 14.1139 15.9003 14.113L2.18555 0.35275C2.66313 0.131833 3.18988 0 3.74988 0ZM24.073 20.3565L27.6464 16.771L40.4809 29.6474C40.0033 29.8684 39.4767 30.0001 38.9167 30.0001H3.75005C3.19005 30.0001 2.6633 29.8682 2.18555 29.6473L15.0202 16.771L18.5938 20.3565C20.0742 21.842 22.6239 21.8107 24.073 20.3565ZM0.398833 2.10095C0.151667 2.60079 0 3.15562 0 3.74995V26.25C0 26.8443 0.1515 27.3991 0.39875 27.899L13.2557 15.0004L0.398833 2.10095ZM29.4111 15.0004L42.2679 2.1008C42.515 2.60063 42.6667 3.15546 42.6667 3.74996V26.25C42.6667 26.8445 42.515 27.3993 42.2679 27.8991L29.4111 15.0004Z" fill="#241F21"/>
</svg>
