<svg width="20" height="20" viewBox="0 0 20 20" fill="none" xmlns="http://www.w3.org/2000/svg">
<path fill-rule="evenodd" clip-rule="evenodd" d="M10 1.48148C5.29535 1.48148 1.48148 5.29535 1.48148 10C1.48148 14.7046 5.29535 18.5185 10 18.5185C14.7046 18.5185 18.5185 14.7046 18.5185 10C18.5185 5.29535 14.7046 1.48148 10 1.48148ZM0 10C0 4.47715 4.47715 0 10 0C15.5228 0 20 4.47715 20 10C20 15.5228 15.5228 20 10 20C4.47715 20 0 15.5228 0 10Z" fill="white"/>
<path d="M11.0682 11.588V7.84398H12.7602V11.588H11.0682ZM9.14821 14V12.68H10.0962V14H9.14821ZM9.14821 6.73998V5.41998H10.0962V6.73998H9.14821ZM9.14821 6.73998V5.41998H10.0962V6.73998H9.14821ZM12.7602 7.84398H11.0682C11.0682 7.49198 10.9802 7.21998 10.8042 7.02798C10.6362 6.83598 10.4002 6.73998 10.0962 6.73998V5.41998C10.6082 5.41998 11.0642 5.52398 11.4642 5.73198C11.8642 5.93998 12.1802 6.22798 12.4122 6.59598C12.6442 6.96398 12.7602 7.37998 12.7602 7.84398ZM12.7602 11.564C12.7602 12.036 12.6442 12.456 12.4122 12.824C12.1802 13.184 11.8642 13.472 11.4642 13.688C11.0642 13.896 10.6082 14 10.0962 14V12.68C10.4002 12.68 10.6362 12.584 10.8042 12.392C10.9802 12.192 11.0682 11.916 11.0682 11.564H12.7602ZM7.72021 14V5.41998H9.41221V14H7.72021Z" fill="white"/>
</svg>
