<svg width="61" height="38" viewBox="0 0 61 38" fill="none" xmlns="http://www.w3.org/2000/svg">
<path d="M5.48 36.04V37H1.864C1.224 37 0.754667 36.8773 0.456 36.632C0.157333 36.376 0.00800002 35.944 0.00800002 35.336V28.504C0.00800002 27.8853 0.157333 27.4533 0.456 27.208C0.754667 26.9627 1.224 26.84 1.864 26.84H5.48V27.8H1.24C1.15467 27.8 1.112 27.848 1.112 27.944V35.896C1.112 35.992 1.15467 36.04 1.24 36.04H5.48ZM10.8041 29.928H7.78013C7.68413 29.928 7.63613 29.9707 7.63613 30.056V36.104C7.63613 36.1893 7.68413 36.232 7.78013 36.232H10.8041C10.9001 36.232 10.9481 36.1893 10.9481 36.104V30.056C10.9481 29.9707 10.9001 29.928 10.8041 29.928ZM6.59613 35.464V30.696C6.59613 30.0773 6.74013 29.6507 7.02813 29.416C7.31613 29.1813 7.78013 29.064 8.42013 29.064H10.1641C10.8148 29.064 11.2788 29.1813 11.5561 29.416C11.8441 29.6507 11.9881 30.0773 11.9881 30.696V35.464C11.9881 36.072 11.8441 36.4987 11.5561 36.744C11.2788 36.9787 10.8148 37.096 10.1641 37.096H8.42013C7.78013 37.096 7.31613 36.9787 7.02813 36.744C6.74013 36.4987 6.59613 36.072 6.59613 35.464ZM15.95 29.064H17.214C17.8113 29.064 18.2433 29.176 18.51 29.4C18.7767 29.6133 18.91 30.0187 18.91 30.616V37H17.886V30.04C17.886 29.9547 17.838 29.912 17.742 29.912H14.846C14.75 29.912 14.702 29.9547 14.702 30.04L14.718 37H13.678V29.16H14.558L14.702 29.912L14.542 30.456C14.542 29.9547 14.654 29.5973 14.878 29.384C15.102 29.1707 15.4593 29.064 15.95 29.064ZM24.5031 35.592C24.4178 35.976 24.3165 36.28 24.1991 36.504C24.0925 36.728 23.9378 36.8827 23.7351 36.968C23.5325 37.0533 23.2338 37.0853 22.8391 37.064L21.5911 37L19.7671 29.16H20.8071L22.4231 36.248H23.3351C23.3778 36.248 23.4045 36.2427 23.4151 36.232C23.4365 36.2107 23.4525 36.1733 23.4631 36.12L25.0631 29.16H26.0551L24.5031 35.592ZM31.9806 37.08H28.7646C28.1353 37.08 27.6713 36.9627 27.3726 36.728C27.0846 36.4933 26.9406 36.0667 26.9406 35.448V30.664C26.9406 30.0453 27.0686 29.624 27.3246 29.4C27.5806 29.176 28.018 29.064 28.6366 29.064H30.3966C31.026 29.064 31.474 29.176 31.7406 29.4C32.018 29.624 32.1566 30.0453 32.1566 30.664V33.88H27.8526V33.096H31.1166V30.04C31.1166 29.9547 31.074 29.912 30.9886 29.912H28.1246C28.0393 29.912 27.9966 29.9547 27.9966 30.04V36.088C27.9966 36.184 28.0393 36.232 28.1246 36.232H31.9806V37.08ZM36.0438 29.064H37.0198V29.944H34.9238C34.8384 29.944 34.7958 29.9867 34.7958 30.072V37H33.7718L33.7558 29.16H34.6518L34.7958 29.912L34.6198 30.456C34.6198 29.9547 34.7318 29.5973 34.9557 29.384C35.1798 29.1707 35.5424 29.064 36.0438 29.064ZM41.3974 29.16V29.976H39.3494L39.5094 29.816V36.008C39.5094 36.0933 39.552 36.136 39.6374 36.136H41.3974V37H40.3094C39.6694 37 39.2054 36.8827 38.9174 36.648C38.6294 36.4027 38.4854 35.976 38.4854 35.368V29.816L38.6454 29.976H37.4934V29.16H38.6454L38.4854 29.32V27.16H39.5094V29.32L39.3494 29.16H41.3974ZM43.5339 37H42.4939V29.16H43.5339V37ZM43.5339 27.464H42.4939V26.376H43.5339V27.464ZM49.0094 37.064L45.5374 37V26.2H46.5774V29.912L46.4814 30.456C46.4814 29.9547 46.5774 29.5973 46.7694 29.384C46.972 29.1707 47.324 29.064 47.8254 29.064H49.0734C49.6707 29.064 50.1027 29.176 50.3694 29.4C50.636 29.6133 50.7694 30.0187 50.7694 30.616V35.48C50.7694 36.0773 50.6307 36.4933 50.3534 36.728C50.0867 36.9627 49.6387 37.0747 49.0094 37.064ZM46.5774 30.04V36.312L46.4334 36.168L49.6014 36.216C49.6974 36.216 49.7454 36.168 49.7454 36.072V30.04C49.7454 29.9547 49.6974 29.912 49.6014 29.912H46.7054C46.62 29.912 46.5774 29.9547 46.5774 30.04ZM53.6273 37H52.6033V26.2H53.6273V37ZM60.5431 37.08H57.3271C56.6978 37.08 56.2338 36.9627 55.9351 36.728C55.6471 36.4933 55.5031 36.0667 55.5031 35.448V30.664C55.5031 30.0453 55.6311 29.624 55.8871 29.4C56.1431 29.176 56.5805 29.064 57.1991 29.064H58.9591C59.5885 29.064 60.0365 29.176 60.3031 29.4C60.5805 29.624 60.7191 30.0453 60.7191 30.664V33.88H56.4151V33.096H59.6791V30.04C59.6791 29.9547 59.6365 29.912 59.5511 29.912H56.6871C56.6018 29.912 56.5591 29.9547 56.5591 30.04V36.088C56.5591 36.184 56.6018 36.232 56.6871 36.232H60.5431V37.08Z" fill="white"/>
<path d="M34.5441 6.45511C33.6446 5.55564 32.3748 4.97363 30.9991 4.97363C29.6235 4.97363 28.3536 5.52919 27.4541 6.45511C26.5547 7.35459 25.9727 8.62443 25.9727 10.0001C25.9727 11.3757 26.5547 12.6456 27.4541 13.5451C28.3536 14.4445 29.6235 15.0265 30.9991 15.0265C32.3748 15.0265 33.6446 14.471 34.5441 13.5451C35.4436 12.6456 36.0256 11.3757 36.0256 10.0001C36.0256 8.62443 35.47 7.35459 34.5441 6.45511ZM33.5917 12.5927C32.9303 13.2541 32.0044 13.6509 30.9991 13.6509C29.9938 13.6509 29.0679 13.2541 28.4065 12.5927C27.7451 11.9313 27.3483 11.0054 27.3483 10.0001C27.3483 8.9948 27.7451 8.06887 28.4065 7.4075C29.0679 6.74612 29.9938 6.34929 30.9991 6.34929C32.0044 6.34929 32.9303 6.74612 33.5917 7.4075C34.2531 8.06887 34.6499 8.9948 34.6499 10.0001C34.6499 11.0054 34.2531 11.9313 33.5917 12.5927Z" fill="white"/>
<path d="M40.3128 9.3125H38.2757C37.9054 9.3125 37.5879 9.62996 37.5879 10.0003C37.5879 10.3707 37.9054 10.6882 38.2757 10.6882H40.3128C40.6831 10.6882 41.0006 10.3707 41.0006 10.0003C41.0006 9.62996 40.6831 9.3125 40.3128 9.3125Z" fill="white"/>
<path d="M31.0003 16.5869C30.63 16.5869 30.3125 16.9044 30.3125 17.2747V19.3118C30.3125 19.6822 30.63 19.9996 31.0003 19.9996C31.3707 19.9996 31.6882 19.6822 31.6882 19.3118V17.2747C31.6882 16.9044 31.3707 16.5869 31.0003 16.5869Z" fill="white"/>
<path d="M38.0629 16.1114L36.6078 14.6564C36.3697 14.3919 35.92 14.3919 35.6554 14.6564C35.3909 14.921 35.3909 15.3443 35.6554 15.6088L37.1105 17.0638C37.375 17.3284 37.7983 17.3284 38.0629 17.0638C38.3274 16.7993 38.3274 16.376 38.0629 16.1114Z" fill="white"/>
<path d="M31.0003 0C30.63 0 30.3125 0.31746 30.3125 0.687831V2.72487C30.3125 3.09524 30.63 3.4127 31.0003 3.4127C31.3707 3.4127 31.6882 3.09524 31.6882 2.72487V0.687831C31.6882 0.31746 31.3707 0 31.0003 0Z" fill="white"/>
<path d="M38.0902 2.93669C37.8256 2.67214 37.4024 2.67214 37.1378 2.93669L35.6828 4.39172C35.4182 4.65627 35.4182 5.07955 35.6828 5.3441C35.9209 5.60865 36.3706 5.60865 36.6352 5.3441L38.0902 3.88907C38.3547 3.62452 38.3547 3.20124 38.0902 2.93669Z" fill="white"/>
<path d="M23.7249 9.3125H21.6878C21.3175 9.3125 21 9.62996 21 10.0003C21 10.3707 21.291 10.6882 21.6878 10.6882H23.7249C24.0952 10.6882 24.4127 10.3707 24.4127 10.0003C24.4127 9.62996 24.0952 9.3125 23.7249 9.3125Z" fill="white"/>
<path d="M26.3168 14.6564C26.0787 14.3919 25.6289 14.3919 25.3644 14.6564L23.9094 16.1114C23.6448 16.376 23.6448 16.7993 23.9094 17.0638C24.1739 17.3284 24.5972 17.3284 24.8617 17.0638L26.3168 15.6088C26.5813 15.3443 26.5813 14.921 26.3168 14.6564Z" fill="white"/>
<path d="M26.3168 4.39172L24.8617 2.93669C24.5972 2.67214 24.1739 2.67214 23.9094 2.93669C23.6448 3.20124 23.6448 3.62452 23.9094 3.88907L25.3644 5.3441C25.6289 5.60865 26.0522 5.60865 26.3168 5.3441C26.5813 5.07955 26.5813 4.65627 26.3168 4.39172Z" fill="white"/>
</svg>
