<svg width="15" height="15" viewBox="0 0 15 15" fill="none" xmlns="http://www.w3.org/2000/svg">
<path d="M8.87441 7.50011L14.7152 1.65911C15.0953 1.27918 15.0953 0.664882 14.7152 0.28495C14.3353 -0.0949832 13.721 -0.0949832 13.3411 0.28495L7.50007 6.12595L1.65925 0.28495C1.27914 -0.0949832 0.665016 -0.0949832 0.285083 0.28495C-0.0950277 0.664882 -0.0950277 1.27918 0.285083 1.65911L6.1259 7.50011L0.285083 13.3411C-0.0950277 13.721 -0.0950277 14.3353 0.285083 14.7153C0.474427 14.9048 0.723385 15 0.972165 15C1.22095 15 1.46973 14.9048 1.65925 14.7153L7.50007 8.87428L13.3411 14.7153C13.5306 14.9048 13.7794 15 14.0281 15C14.2769 15 14.5257 14.9048 14.7152 14.7153C15.0953 14.3353 15.0953 13.721 14.7152 13.3411L8.87441 7.50011Z" fill="white"/>
</svg>
