<svg width="207" height="45" viewBox="0 0 207 45" fill="none" xmlns="http://www.w3.org/2000/svg">
<path d="M51.0781 30.0773V10.2773H72.7889V13.8773H55.5089V18.2527H71.1827V21.8527H55.5089V26.4773H72.7889V30.0773H51.0781Z" fill="white"/>
<path d="M85.2104 30.2158C83.1981 30.2158 81.6104 29.9573 80.4473 29.4404C79.2843 28.905 78.4535 28.102 77.955 27.0312C77.4566 25.9604 77.2073 24.6127 77.2073 22.9881V10.2773H81.6381V22.9881C81.6381 24.3912 81.9612 25.3512 82.6073 25.8681C83.2719 26.3666 84.3889 26.6158 85.9581 26.6158H91.3027C92.8719 26.6158 93.9796 26.3666 94.6258 25.8681C95.2904 25.3512 95.6227 24.3912 95.6227 22.9881V10.2773H100.053V22.9881C100.053 24.6127 99.8043 25.9604 99.3058 27.0312C98.8073 28.102 97.9766 28.905 96.8135 29.4404C95.6504 29.9573 94.0627 30.2158 92.0504 30.2158H85.2104Z" fill="white"/>
<path d="M104.618 20.302V10.2773H128.988V20.302H124.501V13.8773H118.465V30.0773H114.034V13.8773H109.105V20.302H104.618Z" fill="white"/>
<path d="M133.549 30.0773V10.2773H150.137C152.186 10.2773 153.774 10.7943 154.9 11.8281C156.045 12.862 156.617 14.4312 156.617 16.5358C156.617 18.3266 156.202 19.7297 155.371 20.745C154.54 21.7604 153.359 22.3973 151.826 22.6558L156.395 30.0773H151.355L147.119 22.7943H137.98V30.0773H133.549ZM149.611 13.8773H137.98V19.1666L149.611 19.1943C150.423 19.1943 151.042 18.9912 151.466 18.585C151.909 18.1789 152.131 17.4958 152.131 16.5358C152.131 15.5573 151.909 14.8743 151.466 14.4866C151.042 14.0804 150.423 13.8773 149.611 13.8773Z" fill="white"/>
<path d="M159.667 30.0773L168.583 10.2773H175.424L184.34 30.0773H179.522L177.639 25.8958H166.368L164.485 30.0773H159.667ZM167.974 22.2958H176.033L172.184 13.7389H171.824L167.974 22.2958Z" fill="white"/>
<path d="M187.944 30.0773V10.2773H192.375V26.4773H206.858V30.0773H187.944Z" fill="white"/>
<path fill-rule="evenodd" clip-rule="evenodd" d="M4.4999 3.37492H40.9491C41.5704 3.37492 42.0741 3.87859 42.0741 4.4999V35.5492C42.0741 36.1705 41.5704 36.6742 40.9491 36.6742H27.7473L31.2609 40.0491H40.9491C43.4343 40.0491 45.449 38.0344 45.449 35.5492V4.4999C45.449 2.01467 43.4343 0 40.9491 0H4.4999C2.01467 0 0 2.01467 0 4.4999V35.5492C0 38.0344 2.01467 40.0491 4.4999 40.0491H14.3237L18.0685 36.6742H4.4999C3.87859 36.6742 3.37492 36.1705 3.37492 35.5492V4.4999C3.37492 3.87859 3.87859 3.37492 4.4999 3.37492Z" fill="#FF9D0B"/>
<path d="M22.6699 35.0996L28.8077 42.5244H16.532L22.6699 35.0996Z" fill="white"/>
<path d="M9 32V8H14.4378L31.4224 25.2531V8H36.793V32H31.3553L14.3706 14.7133V32H9Z" fill="white"/>
</svg>
