<svg width="206" height="45" viewBox="0 0 206 45" fill="none" xmlns="http://www.w3.org/2000/svg">
<path d="M8.19482 32.1737V8.04297H28.4106C30.9081 8.04297 32.843 8.67295 34.2155 9.93293C35.6105 11.1929 36.308 13.1054 36.308 15.6703C36.308 17.8527 35.8017 19.5627 34.7892 20.8002C33.7768 22.0377 32.3368 22.8139 30.4693 23.1289L36.038 32.1737H29.8956L24.732 23.2976H13.5947V32.1737H8.19482ZM27.7694 12.4304H13.5947V18.8765L27.7694 18.9102C28.7594 18.9102 29.5131 18.6627 30.0306 18.1677C30.5706 17.6728 30.8406 16.8403 30.8406 15.6703C30.8406 14.4778 30.5706 13.6453 30.0306 13.1729C29.5131 12.6779 28.7594 12.4304 27.7694 12.4304Z" fill="white"/>
<path fill-rule="evenodd" clip-rule="evenodd" d="M4.4999 3.37492H40.9491C41.5704 3.37492 42.0741 3.87859 42.0741 4.4999V35.5492C42.0741 36.1705 41.5704 36.6742 40.9491 36.6742H27.7473L31.2609 40.0491H40.9491C43.4343 40.0491 45.449 38.0344 45.449 35.5492V4.4999C45.449 2.01467 43.4343 0 40.9491 0H4.4999C2.01467 0 0 2.01467 0 4.4999V35.5492C0 38.0344 2.01467 40.0491 4.4999 40.0491H14.3237L18.0685 36.6742H4.4999C3.87859 36.6742 3.37492 36.1705 3.37492 35.5492V4.4999C3.37492 3.87859 3.87859 3.37492 4.4999 3.37492Z" fill="#FF9D0B"/>
<path d="M22.6699 35.0996L28.8077 42.5244H16.532L22.6699 35.0996Z" fill="white"/>
<path d="M51.0908 30.0786V10.2791H72.8011V13.879H55.5215V18.2543H71.195V21.8542H55.5215V26.4787H72.8011V30.0786H51.0908Z" fill="white"/>
<path d="M84.1977 30.0786L75.281 10.2791H80.0994L87.4377 26.6172H87.7977L95.136 10.2791H99.9543L91.0376 30.0786H84.1977Z" fill="white"/>
<path d="M103.267 30.0786V10.2791H124.977V13.879H107.698V18.2543H123.371V21.8542H107.698V26.4787H124.977V30.0786H103.267Z" fill="white"/>
<path d="M129.396 30.0786V10.2791H145.983C148.032 10.2791 149.62 10.796 150.746 11.8298C151.89 12.8636 152.463 14.4328 152.463 16.5374C152.463 18.3281 152.047 19.7312 151.217 20.7465C150.386 21.7619 149.204 22.3988 147.672 22.6573L152.241 30.0786H147.201L142.964 22.7957H133.826V30.0786H129.396ZM145.457 13.879H133.826V19.1681L145.457 19.1958C146.269 19.1958 146.887 18.9927 147.312 18.5866C147.755 18.1804 147.977 17.4974 147.977 16.5374C147.977 15.559 147.755 14.8759 147.312 14.4882C146.887 14.0821 146.269 13.879 145.457 13.879Z" fill="white"/>
<path d="M156.537 30.2171V26.6172L172.46 26.6449C173.272 26.6449 173.89 26.4603 174.315 26.091C174.758 25.7034 174.98 25.0849 174.98 24.2357C174.98 23.3865 174.758 22.7773 174.315 22.408C173.89 22.0204 173.272 21.8265 172.46 21.8265H162.546C160.497 21.8265 158.9 21.3373 157.755 20.3589C156.629 19.362 156.066 17.9035 156.066 15.9836C156.066 14.0636 156.629 12.6144 157.755 11.636C158.9 10.6391 160.497 10.1406 162.546 10.1406H178.109V13.7405L163.017 13.7129C162.223 13.7129 161.604 13.8975 161.161 14.2667C160.718 14.6174 160.497 15.1897 160.497 15.9836C160.497 16.7774 160.718 17.3589 161.161 17.7281C161.604 18.0789 162.223 18.2543 163.017 18.2543H172.93C174.98 18.2543 176.567 18.762 177.693 19.7773C178.838 20.7742 179.41 22.2604 179.41 24.2357C179.41 26.1926 178.838 27.6787 177.693 28.6941C176.567 29.7094 174.98 30.2171 172.93 30.2171H156.537Z" fill="white"/>
<path d="M183.573 30.0786V10.2791H205.283V13.879H188.003V18.2543H203.677V21.8542H188.003V26.4787H205.283V30.0786H183.573Z" fill="white"/>
</svg>
