<svg width="128" height="53" viewBox="0 0 128 53" fill="none" xmlns="http://www.w3.org/2000/svg">
<path d="M0 37.6783V9.93082H23.2458C26.1176 9.93082 28.3426 10.6552 29.9208 12.104C31.5248 13.5529 32.3269 15.752 32.3269 18.7014C32.3269 21.2109 31.7447 23.1772 30.5805 24.6001C29.4163 26.0231 27.7605 26.9157 25.6131 27.2779L32.0164 37.6783H24.9534L19.0158 27.4719H6.20924V37.6783H0ZM22.5085 14.9758H6.20924V22.3881L22.5085 22.4269C23.6469 22.4269 24.5136 22.1423 25.1086 21.5731C25.7295 21.004 26.04 20.0467 26.04 18.7014C26.04 17.3302 25.7295 16.3729 25.1086 15.8296C24.5136 15.2604 23.6469 14.9758 22.5085 14.9758Z" fill="#282828"/>
<path d="M37.7719 37.6783V9.93082H44.0588L63.6955 29.878V9.93082H69.9047V37.6783H63.6179L43.9812 17.6924V37.6783H37.7719Z" fill="#282828"/>
<path d="M86.2163 37.4196V9.67202H90.7956L103.214 9.63321C108.233 9.63321 112.127 10.8104 114.895 13.1647C117.664 15.5191 119.048 18.9729 119.048 23.5264C119.048 28.0798 117.664 31.5337 114.895 33.888C112.127 36.2424 108.233 37.4196 103.214 37.4196H86.2163ZM102.787 14.6782H92.4255V32.3745H102.787C106.047 32.3745 108.518 31.6631 110.199 30.2401C111.881 28.8172 112.722 26.5793 112.722 23.5264C112.722 20.4476 111.881 18.2097 110.199 16.8126C108.518 15.3897 106.047 14.6782 102.787 14.6782Z" fill="#282828"/>
<path fill-rule="evenodd" clip-rule="evenodd" d="M80.9133 4.56232H122.826C123.54 4.56232 124.119 5.14148 124.119 5.85591V41.559C124.119 42.2735 123.54 42.8526 122.826 42.8526H107.646L111.687 46.7334H122.826C125.683 46.7334 128 44.4168 128 41.559V5.85591C128 2.99819 125.683 0.681549 122.826 0.681549H80.9133C78.0555 0.681549 75.7389 2.99819 75.7389 5.85591V41.559C75.7389 44.4168 78.0555 46.7334 80.9133 46.7334H92.2117L96.5177 42.8526H80.9133C80.1988 42.8526 79.6197 42.2735 79.6197 41.559V5.85591C79.6197 5.14148 80.1988 4.56232 80.9133 4.56232Z" fill="#FF9D0B"/>
<path d="M101.806 41.0417L108.864 49.5794H94.748L101.806 41.0417Z" fill="#282828"/>
</svg>
