<svg width="99" height="40" viewBox="0 0 99 40" fill="none" xmlns="http://www.w3.org/2000/svg">
<path d="M0 28.6001V7.15009H17.97C20.19 7.15009 21.91 7.71009 23.13 8.83008C24.37 9.95008 24.99 11.6501 24.99 13.9301C24.99 15.8701 24.54 17.3901 23.64 18.4901C22.74 19.5901 21.46 20.2801 19.8 20.5601L24.75 28.6001H19.29L14.7 20.7101H4.8V28.6001H0ZM17.4 11.0501H4.8V16.7801L17.4 16.8101C18.28 16.8101 18.95 16.5901 19.41 16.1501C19.89 15.7101 20.13 14.9701 20.13 13.9301C20.13 12.8701 19.89 12.1301 19.41 11.7101C18.95 11.2701 18.28 11.0501 17.4 11.0501Z" fill="white"/>
<path d="M29.1992 28.6V7.15002H34.0592L49.2392 22.57V7.15002H54.0392V28.6H49.1792L33.9992 13.15V28.6H29.1992Z" fill="white"/>
<path d="M66.6484 28.3999V6.94992H70.1884L79.7884 6.91992C83.6684 6.91992 86.6784 7.82992 88.8184 9.64992C90.9584 11.4699 92.0284 14.1399 92.0284 17.6599C92.0284 21.1799 90.9584 23.8499 88.8184 25.6699C86.6784 27.4899 83.6684 28.3999 79.7884 28.3999H66.6484ZM79.4584 10.8199H71.4484V24.4999H79.4584C81.9784 24.4999 83.8884 23.9499 85.1884 22.8499C86.4884 21.7499 87.1384 20.0199 87.1384 17.6599C87.1384 15.2799 86.4884 13.5499 85.1884 12.4699C83.8884 11.3699 81.9784 10.8199 79.4584 10.8199Z" fill="white"/>
<path fill-rule="evenodd" clip-rule="evenodd" d="M62.5488 3H94.9488C95.5011 3 95.9488 3.44771 95.9488 4V31.6C95.9488 32.1523 95.5011 32.6 94.9488 32.6H83.2137L86.337 35.6H94.9488C97.1579 35.6 98.9488 33.8091 98.9488 31.6V4C98.9488 1.79086 97.1579 0 94.9488 0H62.5488C60.3397 0 58.5488 1.79086 58.5488 4V31.6C58.5488 33.8091 60.3397 35.6 62.5488 35.6H71.282L74.6107 32.6H62.5488C61.9965 32.6 61.5488 32.1523 61.5488 31.6V4C61.5488 3.44771 61.9965 3 62.5488 3Z" fill="#FF9D0B"/>
<path d="M78.7004 31.2L84.1563 37.7999H73.2444L78.7004 31.2Z" fill="white"/>
</svg>
