<svg width="181" height="37" viewBox="0 0 181 37" fill="none" xmlns="http://www.w3.org/2000/svg">
<path d="M37.4406 10.0008C35.6409 10.0418 34.473 11.9301 35.2355 13.5579C33.8644 14.7212 31.9519 15.9181 30.9285 15.6627C30.8277 15.6377 30.3167 15.0048 30.3128 12.604C30.3113 11.6228 30.3956 10.6493 30.4745 9.95478C31.7146 9.71618 32.6303 8.55883 32.4852 7.22194C32.3391 5.8756 31.1671 4.91145 29.8162 5.00645C27.9686 5.13637 26.8867 7.20811 27.869 8.80477C26.9275 10.2079 25.4494 11.8314 24.4166 11.8743C24.2861 11.8009 23.451 11.2118 22.3283 7.71257C21.9011 6.38013 21.4541 4.56386 21.4541 4.53207C22.1275 4.0505 22.5511 3.24237 22.4952 2.34126C22.4184 1.10156 21.4176 0.0926447 20.1786 0.00623755C18.7193 -0.0955604 17.5002 1.06203 17.5002 2.50001C17.5002 3.33674 17.9127 4.07894 18.5463 4.53207C18.5463 4.55824 18.1496 6.22341 17.6721 7.71257C16.5494 11.2118 15.7142 11.8009 15.5838 11.8743C14.5509 11.8314 13.072 10.2071 12.1314 8.80477C13.1133 7.20873 12.0324 5.13684 10.1849 5.00652C8.83385 4.91121 7.66141 5.87521 7.51524 7.2217C7.37008 8.55867 8.28579 9.71618 9.52588 9.95478C9.60479 10.6493 9.68917 11.6228 9.6876 12.604C9.6837 15.0048 9.17276 15.6377 9.07197 15.6627C8.04852 15.9189 6.136 14.7212 4.7649 13.5579C5.5274 11.9303 4.35888 10.0416 2.55948 10.0008C1.24408 9.97095 0.111333 10.9865 0.00797246 12.2982C-0.104685 13.7273 0.991029 14.9322 2.38128 14.997C2.99714 16.1718 4.32981 18.9093 5.25842 22.2136C5.30592 22.3826 5.45912 22.5002 5.63475 22.5002H34.3656C34.5412 22.5002 34.6944 22.3826 34.7419 22.2136C35.6706 18.9086 37.004 16.1718 37.6199 14.997C39.0092 14.9314 40.105 13.7276 39.9924 12.2984C39.8892 10.9865 38.7562 9.97079 37.4406 10.0008ZM20.0002 20.6252C18.8791 20.6252 18.1252 19.4947 18.1252 17.8127C18.1252 16.1306 18.8791 15.0001 20.0002 15.0001C21.1213 15.0001 21.8752 16.1306 21.8752 17.8127C21.8752 19.4947 21.1213 20.6252 20.0002 20.6252Z" fill="#FF9D0B"/>
<path d="M5.97614 25.4516C6.14825 26.5349 6.24989 27.6426 6.25013 28.7461C6.25028 29.4369 6.80255 30.0001 7.49334 30.0001H32.5072C33.198 30.0001 33.7503 29.4369 33.7504 28.7461C33.7506 27.6427 33.8524 26.535 34.0244 25.4516C34.0621 25.2145 33.8792 25 33.6391 25H6.36145C6.12137 25 5.9384 25.2145 5.97614 25.4516Z" fill="white"/>
<path d="M62.32 24.33C62.32 23.63 62.11 23.02 61.69 22.5C61.27 21.96 60.72 21.45 60.04 20.97C59.38 20.49 58.67 20.01 57.91 19.53C57.15 19.03 56.43 18.48 55.75 17.88C55.09 17.26 54.54 16.54 54.1 15.72C53.68 14.9 53.47 13.94 53.47 12.84H56.95C56.95 13.52 57.16 14.13 57.58 14.67C58.02 15.21 58.57 15.72 59.23 16.2C59.91 16.68 60.63 17.17 61.39 17.67C62.15 18.15 62.86 18.7 63.52 19.32C64.2 19.92 64.75 20.63 65.17 21.45C65.59 22.25 65.8 23.21 65.8 24.33H62.32ZM53.47 12.87C53.47 11.79 53.74 10.85 54.28 10.05C54.82 9.23 55.56 8.6 56.5 8.16C57.46 7.7 58.55 7.47 59.77 7.47V10.32C58.89 10.32 58.2 10.55 57.7 11.01C57.2 11.45 56.95 12.07 56.95 12.87H53.47ZM65.8 24.3C65.8 25.4 65.53 26.35 64.99 27.15C64.45 27.95 63.71 28.58 62.77 29.04C61.83 29.48 60.74 29.7 59.5 29.7V26.88C60.38 26.88 61.07 26.65 61.57 26.19C62.07 25.73 62.32 25.1 62.32 24.3H65.8ZM62.32 12.84C62.22 12 61.93 11.37 61.45 10.95C60.99 10.53 60.43 10.32 59.77 10.32V7.47C60.79 7.47 61.7 7.67 62.5 8.07C63.3 8.47 63.95 9.03 64.45 9.75C64.97 10.45 65.3 11.28 65.44 12.24L62.32 12.84ZM56.2 23.01C56.3 24.21 56.64 25.16 57.22 25.86C57.8 26.54 58.56 26.88 59.5 26.88V29.7C57.68 29.7 56.2 29.16 55.06 28.08C53.94 27 53.27 25.5 53.05 23.58L56.2 23.01ZM70.9293 20.04V17.19H80.1093V20.04H70.9293ZM78.9093 29.25V7.95H82.3893V29.25H78.9093ZM69.7293 29.25V7.95H73.2093V29.25H69.7293ZM95.8291 23.88V13.29H99.3091V23.88H95.8291ZM86.7391 23.88V13.29H90.2191V23.88H86.7391ZM99.3091 13.35H95.8291C95.8291 12.39 95.5791 11.65 95.0791 11.13C94.5791 10.59 93.8891 10.32 93.0091 10.32V7.5C94.2491 7.5 95.3391 7.75 96.2791 8.25C97.2191 8.75 97.9591 9.44 98.4991 10.32C99.0391 11.2 99.3091 12.21 99.3091 13.35ZM86.7391 13.35C86.7391 12.21 87.0091 11.2 87.5491 10.32C88.0891 9.44 88.8291 8.75 89.7691 8.25C90.7291 7.75 91.8191 7.5 93.0391 7.5V10.32C92.1591 10.32 91.4691 10.59 90.9691 11.13C90.4691 11.65 90.2191 12.39 90.2191 13.35H86.7391ZM99.3091 23.85C99.3091 24.99 99.0391 26 98.4991 26.88C97.9591 27.76 97.2191 28.45 96.2791 28.95C95.3391 29.45 94.2491 29.7 93.0091 29.7V26.85C93.8891 26.85 94.5791 26.59 95.0791 26.07C95.5791 25.53 95.8291 24.79 95.8291 23.85H99.3091ZM86.7391 23.85H90.2191C90.2191 24.79 90.4691 25.53 90.9691 26.07C91.4691 26.59 92.1591 26.85 93.0391 26.85V29.7C91.8191 29.7 90.7291 29.45 89.7691 28.95C88.8291 28.45 88.0891 27.76 87.5491 26.88C87.0091 26 86.7391 24.99 86.7391 23.85ZM116.451 29.25L112.371 7.95H115.311L119.541 29.25H116.451ZM106.941 29.25L102.921 7.95H106.311L110.331 29.25H106.941ZM108.021 29.25L112.251 7.95H115.191L111.111 29.25H108.021ZM117.231 29.25L121.251 7.95H124.641L120.621 29.25H117.231Z" fill="#FF9D0B"/>
<path d="M134.992 23.88V13.29H138.472V23.88H134.992ZM134.992 13.32C134.992 12.18 135.262 11.17 135.802 10.29C136.342 9.41 137.082 8.72 138.022 8.22C138.982 7.72 140.072 7.47 141.292 7.47V10.29C140.412 10.29 139.722 10.56 139.222 11.1C138.722 11.62 138.472 12.36 138.472 13.32H134.992ZM134.992 23.88H138.472C138.472 24.82 138.722 25.56 139.222 26.1C139.722 26.62 140.412 26.88 141.292 26.88V29.73C140.072 29.73 138.982 29.48 138.022 28.98C137.082 28.48 136.342 27.79 135.802 26.91C135.262 26.03 134.992 25.02 134.992 23.88ZM144.562 14.16C144.462 12.96 144.122 12.02 143.542 11.34C142.962 10.64 142.202 10.29 141.262 10.29V7.47C143.082 7.47 144.562 8.01 145.702 9.09C146.842 10.15 147.512 11.65 147.712 13.59L144.562 14.16ZM144.562 23.01L147.712 23.61C147.512 25.53 146.842 27.03 145.702 28.11C144.562 29.19 143.082 29.73 141.262 29.73V26.88C142.202 26.88 142.962 26.54 143.542 25.86C144.122 25.18 144.462 24.23 144.562 23.01ZM153.833 25.32V22.47H161.483V25.32H153.833ZM158.903 7.95L153.653 29.25H150.263L155.513 7.95H158.903ZM158.963 7.95L164.183 29.25H160.793L155.573 7.95H158.963ZM175.842 29.25L172.062 19.05H175.512L179.292 29.25H175.842ZM170.232 20.67V17.82H172.782V20.67H170.232ZM170.232 10.77V7.95H172.782V10.77H170.232ZM175.572 14.85V13.77H179.052V14.85H175.572ZM179.052 13.8H175.572C175.572 12.84 175.322 12.1 174.822 11.58C174.322 11.04 173.632 10.77 172.752 10.77V7.95C173.992 7.95 175.082 8.2 176.022 8.7C176.962 9.2 177.702 9.89 178.242 10.77C178.782 11.65 179.052 12.66 179.052 13.8ZM179.052 14.82C179.052 15.96 178.782 16.97 178.242 17.85C177.702 18.73 176.962 19.42 176.022 19.92C175.082 20.42 173.992 20.67 172.752 20.67V17.82C173.632 17.82 174.322 17.56 174.822 17.04C175.322 16.5 175.572 15.76 175.572 14.82H179.052ZM167.502 29.25V7.95H170.982V29.25H167.502Z" fill="white"/>
</svg>
