<svg width="172" height="113" viewBox="0 0 172 113" fill="none" xmlns="http://www.w3.org/2000/svg">
<path d="M120.881 20.0014C117.281 20.0835 114.946 23.86 116.471 27.1157C113.728 29.4423 109.903 31.836 107.856 31.3251C107.655 31.2751 106.633 30.0094 106.625 25.2079C106.622 23.2454 106.791 21.2985 106.949 19.9094C109.429 19.4322 111.26 17.1175 110.97 14.4438C110.678 11.7511 108.334 9.82282 105.632 10.0128C101.937 10.2727 99.773 14.4161 101.738 17.6094C99.8547 20.4157 96.8984 23.6625 94.8328 23.7485C94.5719 23.6016 92.9016 22.4235 90.6562 15.425C89.8019 12.7602 88.9078 9.12766 88.9078 9.06407C90.2547 8.10094 91.1019 6.48468 90.9902 4.68249C90.8364 2.20311 88.835 0.185288 86.3569 0.012475C83.4384 -0.191119 81.0001 2.12404 81.0001 4.99999C81.0001 6.67343 81.8251 8.15781 83.0923 9.06407C83.0923 9.11641 82.299 12.4467 81.3439 15.425C79.0985 22.4235 77.4282 23.6016 77.1673 23.7485C75.1017 23.6625 72.1438 20.4141 70.2626 17.6094C72.2263 14.4174 70.0646 10.2736 66.3696 10.013C63.6676 9.82235 61.3227 11.7503 61.0304 14.4433C60.7401 17.1172 62.5715 19.4322 65.0516 19.9094C65.2094 21.2985 65.3782 23.2454 65.3751 25.2079C65.3673 30.0094 64.3454 31.2751 64.1438 31.3251C62.0969 31.8376 58.2719 29.4423 55.5297 27.1157C57.0547 23.8604 54.7177 20.083 51.1189 20.0014C48.4881 19.9418 46.2227 21.9729 46.0159 24.5961C45.7906 27.4544 47.982 29.8641 50.7625 29.9938C51.9942 32.3434 54.6596 37.8184 56.5168 44.4268C56.6118 44.765 56.9182 45.0001 57.2694 45.0001H114.731C115.082 45.0001 115.388 44.765 115.483 44.4268C117.341 37.817 120.007 32.3434 121.239 29.9938C124.018 29.8626 126.209 27.4549 125.984 24.5966C125.778 21.9729 123.512 19.9414 120.881 20.0014ZM86.0001 41.2501C83.7579 41.2501 82.2501 38.9892 82.2501 35.6251C82.2501 32.261 83.7579 30.0001 86.0001 30.0001C88.2423 30.0001 89.7501 32.261 89.7501 35.6251C89.7501 38.9892 88.2423 41.2501 86.0001 41.2501Z" fill="#FF9D0B"/>
<path d="M57.9523 50.9031C58.2965 53.0699 58.4998 55.2852 58.5002 57.4922C58.5006 58.8738 59.6051 60 60.9867 60H111.014C112.396 60 113.5 58.8738 113.5 57.4922C113.501 55.2853 113.704 53.07 114.048 50.9031C114.124 50.4289 113.758 50 113.278 50H58.7229C58.2427 50 57.8768 50.4289 57.9523 50.9031Z" fill="white"/>
<path d="M13.76 103.44C13.76 102.507 13.48 101.693 12.92 101C12.36 100.28 11.6267 99.6 10.72 98.96C9.84 98.32 8.89333 97.68 7.88 97.04C6.86667 96.3733 5.90667 95.64 5 94.84C4.12 94.0133 3.38667 93.0533 2.8 91.96C2.24 90.8667 1.96 89.5867 1.96 88.12H6.6C6.6 89.0267 6.88 89.84 7.44 90.56C8.02667 91.28 8.76 91.96 9.64 92.6C10.5467 93.24 11.5067 93.8933 12.52 94.56C13.5333 95.2 14.48 95.9333 15.36 96.76C16.2667 97.56 17 98.5067 17.56 99.6C18.12 100.667 18.4 101.947 18.4 103.44H13.76ZM1.96 88.16C1.96 86.72 2.32 85.4667 3.04 84.4C3.76 83.3067 4.74667 82.4667 6 81.88C7.28 81.2667 8.73333 80.96 10.36 80.96V84.76C9.18667 84.76 8.26667 85.0667 7.6 85.68C6.93333 86.2667 6.6 87.0933 6.6 88.16H1.96ZM18.4 103.4C18.4 104.867 18.04 106.133 17.32 107.2C16.6 108.267 15.6133 109.107 14.36 109.72C13.1067 110.307 11.6533 110.6 10 110.6V106.84C11.1733 106.84 12.0933 106.533 12.76 105.92C13.4267 105.307 13.76 104.467 13.76 103.4H18.4ZM13.76 88.12C13.6267 87 13.24 86.16 12.6 85.6C11.9867 85.04 11.24 84.76 10.36 84.76V80.96C11.72 80.96 12.9333 81.2267 14 81.76C15.0667 82.2933 15.9333 83.04 16.6 84C17.2933 84.9333 17.7333 86.04 17.92 87.32L13.76 88.12ZM5.6 101.68C5.73333 103.28 6.18667 104.547 6.96 105.48C7.73333 106.387 8.74667 106.84 10 106.84V110.6C7.57333 110.6 5.6 109.88 4.08 108.44C2.58667 107 1.69333 105 1.4 102.44L5.6 101.68ZM25.2391 97.72V93.92H37.4791V97.72H25.2391ZM35.8791 110V81.6H40.5191V110H35.8791ZM23.6391 110V81.6H28.2791V110H23.6391ZM58.4388 102.84V88.72H63.0788V102.84H58.4388ZM46.3188 102.84V88.72H50.9588V102.84H46.3188ZM63.0788 88.8H58.4388C58.4388 87.52 58.1054 86.5333 57.4388 85.84C56.7721 85.12 55.8521 84.76 54.6788 84.76V81C56.3321 81 57.7854 81.3333 59.0388 82C60.2921 82.6667 61.2788 83.5867 61.9988 84.76C62.7188 85.9333 63.0788 87.28 63.0788 88.8ZM46.3188 88.8C46.3188 87.28 46.6788 85.9333 47.3988 84.76C48.1188 83.5867 49.1054 82.6667 50.3588 82C51.6388 81.3333 53.0921 81 54.7188 81V84.76C53.5454 84.76 52.6254 85.12 51.9588 85.84C51.2921 86.5333 50.9588 87.52 50.9588 88.8H46.3188ZM63.0788 102.8C63.0788 104.32 62.7188 105.667 61.9988 106.84C61.2788 108.013 60.2921 108.933 59.0388 109.6C57.7854 110.267 56.3321 110.6 54.6788 110.6V106.8C55.8521 106.8 56.7721 106.453 57.4388 105.76C58.1054 105.04 58.4388 104.053 58.4388 102.8H63.0788ZM46.3188 102.8H50.9588C50.9588 104.053 51.2921 105.04 51.9588 105.76C52.6254 106.453 53.5454 106.8 54.7188 106.8V110.6C53.0921 110.6 51.6388 110.267 50.3588 109.6C49.1054 108.933 48.1188 108.013 47.3988 106.84C46.6788 105.667 46.3188 104.32 46.3188 102.8ZM85.9353 110L80.4953 81.6H84.4153L90.0553 110H85.9353ZM73.2553 110L67.8953 81.6H72.4153L77.7753 110H73.2553ZM74.6953 110L80.3353 81.6H84.2553L78.8153 110H74.6953ZM86.9753 110L92.3353 81.6H96.8553L91.4953 110H86.9753Z" fill="#FF9D0B"/>
<path d="M110.656 102.84V88.72H115.296V102.84H110.656ZM110.656 88.76C110.656 87.24 111.016 85.8933 111.736 84.72C112.456 83.5467 113.443 82.6267 114.696 81.96C115.976 81.2933 117.43 80.96 119.056 80.96V84.72C117.883 84.72 116.963 85.08 116.296 85.8C115.63 86.4933 115.296 87.48 115.296 88.76H110.656ZM110.656 102.84H115.296C115.296 104.093 115.63 105.08 116.296 105.8C116.963 106.493 117.883 106.84 119.056 106.84V110.64C117.43 110.64 115.976 110.307 114.696 109.64C113.443 108.973 112.456 108.053 111.736 106.88C111.016 105.707 110.656 104.36 110.656 102.84ZM123.416 89.88C123.283 88.28 122.83 87.0267 122.056 86.12C121.283 85.1867 120.27 84.72 119.016 84.72V80.96C121.443 80.96 123.416 81.68 124.936 83.12C126.456 84.5333 127.35 86.5333 127.616 89.12L123.416 89.88ZM123.416 101.68L127.616 102.48C127.35 105.04 126.456 107.04 124.936 108.48C123.416 109.92 121.443 110.64 119.016 110.64V106.84C120.27 106.84 121.283 106.387 122.056 105.48C122.83 104.573 123.283 103.307 123.416 101.68ZM135.777 104.76V100.96H145.977V104.76H135.777ZM142.537 81.6L135.537 110H131.017L138.017 81.6H142.537ZM142.617 81.6L149.577 110H145.057L138.097 81.6H142.617ZM165.123 110L160.083 96.4H164.683L169.723 110H165.123ZM157.643 98.56V94.76H161.043V98.56H157.643ZM157.643 85.36V81.6H161.043V85.36H157.643ZM164.763 90.8V89.36H169.403V90.8H164.763ZM169.403 89.4H164.763C164.763 88.12 164.43 87.1333 163.763 86.44C163.096 85.72 162.176 85.36 161.003 85.36V81.6C162.656 81.6 164.11 81.9333 165.363 82.6C166.616 83.2667 167.603 84.1867 168.323 85.36C169.043 86.5333 169.403 87.88 169.403 89.4ZM169.403 90.76C169.403 92.28 169.043 93.6267 168.323 94.8C167.603 95.9733 166.616 96.8933 165.363 97.56C164.11 98.2267 162.656 98.56 161.003 98.56V94.76C162.176 94.76 163.096 94.4133 163.763 93.72C164.43 93 164.763 92.0133 164.763 90.76H169.403ZM154.003 110V81.6H158.643V110H154.003Z" fill="white"/>
</svg>
