<svg width="55" height="45" viewBox="0 0 55 45" fill="none" xmlns="http://www.w3.org/2000/svg">
<path opacity="0.7" d="M0 0H54.5192V40C54.5192 42.7614 52.2807 45 49.5192 45H0V0Z" fill="#282828"/>
<path d="M44.7235 16.1546C42.9065 16.196 41.7273 18.1024 42.4972 19.7459C41.1129 20.9204 39.182 22.1288 38.1487 21.8709C38.0469 21.8456 37.5311 21.2067 37.5271 18.7828C37.5256 17.7921 37.6108 16.8093 37.6904 16.1081C38.9424 15.8672 39.8669 14.6987 39.7204 13.349C39.5729 11.9897 38.3897 11.0163 37.0257 11.1122C35.1604 11.2434 34.0681 13.335 35.0598 14.947C34.1093 16.3637 32.617 18.0027 31.5742 18.0461C31.4425 17.972 30.5993 17.3772 29.4658 13.8443C29.0345 12.4991 28.5832 10.6654 28.5832 10.6333C29.2631 10.1471 29.6908 9.33116 29.6344 8.42139C29.5568 7.16977 28.5464 6.15115 27.2955 6.06391C25.8222 5.96114 24.5913 7.12986 24.5913 8.58167C24.5913 9.42644 25.0078 10.1758 25.6475 10.6333C25.6475 10.6597 25.247 12.3409 24.7648 13.8443C23.6314 17.3772 22.7882 17.972 22.6565 18.0461C21.6137 18.0027 20.1206 16.3629 19.1709 14.947C20.1622 13.3357 19.0709 11.2438 17.2057 11.1123C15.8416 11.0161 14.6579 11.9893 14.5104 13.3488C14.3638 14.6986 15.2883 15.8672 16.5403 16.1081C16.62 16.8093 16.7052 17.7921 16.7036 18.7828C16.6997 21.2067 16.1838 21.8456 16.0821 21.8709C15.0488 22.1296 13.1179 20.9204 11.7336 19.7459C12.5034 18.1026 11.3236 16.1957 9.50695 16.1546C8.17889 16.1244 7.03525 17.1498 6.9309 18.474C6.81716 19.9169 7.92341 21.1334 9.32703 21.1988C9.94881 22.3849 11.2943 25.1488 12.2318 28.4848C12.2798 28.6555 12.4345 28.7742 12.6118 28.7742H41.6189C41.7962 28.7742 41.9509 28.6555 41.9988 28.4848C42.9364 25.1481 44.2826 22.3849 44.9044 21.1988C46.3071 21.1326 47.4134 19.9172 47.2998 18.4743C47.1956 17.1498 46.0517 16.1243 44.7235 16.1546ZM27.1154 26.8811C25.9835 26.8811 25.2223 25.7398 25.2223 24.0416C25.2223 22.3433 25.9835 21.202 27.1154 21.202C28.2473 21.202 29.0084 22.3433 29.0084 24.0416C29.0084 25.7398 28.2473 26.8811 27.1154 26.8811Z" fill="#FF9D0B"/>
<path d="M12.9562 31.7547C13.1299 32.8485 13.2326 33.9668 13.2328 35.081C13.2329 35.7784 13.7905 36.347 14.488 36.347H39.7423C40.4398 36.347 40.9973 35.7784 40.9975 35.081C40.9977 33.9669 41.1004 32.8486 41.2741 31.7547C41.3121 31.5153 41.1275 31.2988 40.8851 31.2988H13.3452C13.1028 31.2988 12.9181 31.5153 12.9562 31.7547Z" fill="white"/>
</svg>
