<svg width="27" height="60" viewBox="0 0 27 60" fill="none" xmlns="http://www.w3.org/2000/svg">
<path fill-rule="evenodd" clip-rule="evenodd" d="M7.92 0V8.04857L0 12.1029V4.28572C0 3.14907 0.451529 2.05898 1.25526 1.25526C2.05898 0.451529 3.14907 0 4.28572 0H7.92ZM7.92 21V9.95996L0.0599998 13.92H0V24.9857L7.92 21ZM7.92 22.92V33.96L0 37.9371V26.8971L7.92 22.92ZM7.92 35.88V46.92L0 50.8972V39.8743L7.92 35.88ZM7.92 60.0003V48.8574L0 52.826V55.7146C0 56.8512 0.451529 57.9413 1.25526 58.745C2.05898 59.5488 3.14907 60.0003 4.28572 60.0003H7.92ZM10.0286 0H16.6714V60H10.0286V0ZM26.6914 12V4.28572C26.6914 3.14907 26.2399 2.05898 25.4362 1.25526C24.6325 0.451529 23.5424 0 22.4057 0H18.7714V8.02286L26.6914 12ZM18.7714 9.95996L26.6914 13.9285V24.96L18.7714 21V9.95996ZM26.6914 26.8971L18.7714 22.92V33.96L26.6914 37.9457V26.8971ZM18.7714 35.88L26.6914 39.84V50.9143L18.7714 46.92V35.88ZM26.6915 55.7146V52.8003L26.5286 52.7403L18.7715 48.8574V60.0003H22.4058C23.5424 60.0003 24.6325 59.5488 25.4362 58.745C26.24 57.9413 26.6915 56.8512 26.6915 55.7146Z" fill="#FF9D0B"/>
</svg>
